<svg id="svg" version="1.1" xmlns="http://www.w3.org/2000/svg" xmlns:xlink="http://www.w3.org/1999/xlink" width="400" height="540.3693931398417" viewBox="0, 0, 400,540.3693931398417"><g id="svgg"><path id="path0" d="M252.800 2.213 C 252.800 3.810,252.967 4.489,253.400 4.655 C 253.852 4.829,254.000 5.558,254.000 7.619 C 254.000 9.123,254.180 10.464,254.400 10.600 C 254.620 10.736,254.800 11.985,254.800 13.375 C 254.800 15.133,254.983 16.054,255.400 16.400 C 255.895 16.811,256.000 18.242,256.000 24.606 C 256.000 31.089,255.905 32.351,255.400 32.545 C 254.940 32.721,254.800 33.479,254.800 35.787 C 254.800 37.529,254.631 38.800,254.400 38.800 C 254.171 38.800,254.000 40.004,254.000 41.613 C 254.000 43.744,253.855 44.481,253.400 44.655 C 253.066 44.783,252.800 45.378,252.800 45.994 C 252.800 46.603,252.530 47.326,252.200 47.600 C 251.870 47.874,251.600 48.616,251.600 49.249 C 251.600 49.882,251.420 50.400,251.200 50.400 C 250.980 50.400,250.800 51.036,250.800 51.813 C 250.800 52.699,250.577 53.311,250.200 53.455 C 249.835 53.595,249.600 54.201,249.600 55.000 C 249.600 55.799,249.365 56.405,249.000 56.545 C 248.670 56.671,248.400 57.141,248.400 57.587 C 248.400 58.034,248.220 58.400,248.000 58.400 C 247.780 58.400,247.600 58.940,247.600 59.600 C 247.600 60.400,247.400 60.800,247.000 60.800 C 246.627 60.800,246.400 61.178,246.400 61.800 C 246.400 62.350,246.223 62.800,246.008 62.800 C 245.792 62.800,245.502 63.250,245.364 63.800 C 245.226 64.350,244.953 64.800,244.757 64.800 C 244.560 64.800,244.400 65.141,244.400 65.557 C 244.400 65.974,244.130 66.418,243.800 66.545 C 243.470 66.671,243.200 67.051,243.200 67.387 C 243.200 67.724,243.020 68.000,242.800 68.000 C 242.580 68.000,242.400 68.366,242.400 68.813 C 242.400 69.259,242.130 69.729,241.800 69.855 C 241.470 69.982,241.200 70.336,241.200 70.643 C 241.200 70.949,240.930 71.200,240.600 71.200 C 240.270 71.200,240.000 71.470,240.000 71.800 C 240.000 72.130,239.820 72.400,239.600 72.400 C 239.380 72.400,239.200 72.850,239.200 73.400 C 239.200 74.022,238.973 74.400,238.600 74.400 C 238.270 74.400,238.000 74.651,238.000 74.957 C 238.000 75.264,237.730 75.618,237.400 75.745 C 237.070 75.871,236.800 76.216,236.800 76.511 C 236.800 76.806,235.450 78.460,233.800 80.187 C 232.150 81.913,230.800 83.573,230.800 83.876 C 230.800 84.178,230.530 84.529,230.200 84.655 C 229.870 84.782,229.600 85.136,229.600 85.443 C 229.600 85.749,229.330 86.000,229.000 86.000 C 228.670 86.000,228.400 86.193,228.400 86.429 C 228.400 86.982,227.382 88.000,226.829 88.000 C 226.593 88.000,226.400 88.270,226.400 88.600 C 226.400 88.930,226.160 89.200,225.868 89.200 C 225.575 89.200,225.094 89.650,224.800 90.200 C 224.506 90.750,224.025 91.200,223.732 91.200 C 223.440 91.200,223.200 91.470,223.200 91.800 C 223.200 92.130,223.007 92.400,222.771 92.400 C 222.218 92.400,221.200 93.418,221.200 93.971 C 221.200 94.207,220.930 94.400,220.600 94.400 C 220.270 94.400,220.000 94.593,220.000 94.829 C 220.000 95.382,218.982 96.400,218.429 96.400 C 218.193 96.400,218.000 96.670,218.000 97.000 C 218.000 97.330,217.749 97.600,217.443 97.600 C 217.136 97.600,216.782 97.870,216.655 98.200 C 216.529 98.530,216.178 98.800,215.875 98.800 C 215.572 98.800,214.386 99.700,213.239 100.800 C 212.092 101.900,210.984 102.800,210.776 102.800 C 210.569 102.800,210.400 102.993,210.400 103.229 C 210.400 103.739,209.399 104.800,208.918 104.800 C 208.731 104.800,207.987 105.340,207.264 106.000 C 206.542 106.660,205.859 107.200,205.747 107.200 C 205.374 107.200,204.400 108.336,204.400 108.771 C 204.400 109.007,204.130 109.200,203.800 109.200 C 203.470 109.200,203.200 109.470,203.200 109.800 C 203.200 110.173,202.822 110.400,202.200 110.400 C 201.650 110.400,201.200 110.580,201.200 110.800 C 201.200 111.020,200.930 111.200,200.600 111.200 C 200.270 111.200,200.000 111.470,200.000 111.800 C 200.000 112.130,199.760 112.400,199.468 112.400 C 199.175 112.400,198.702 112.836,198.416 113.370 C 198.131 113.903,197.471 114.446,196.949 114.577 C 196.427 114.708,196.000 114.992,196.000 115.208 C 196.000 115.423,195.806 115.600,195.569 115.600 C 195.009 115.600,192.800 117.809,192.800 118.369 C 192.800 118.606,192.350 118.800,191.800 118.800 C 191.250 118.800,190.800 118.980,190.800 119.200 C 190.800 119.420,190.530 119.600,190.200 119.600 C 189.870 119.600,189.600 119.870,189.600 120.200 C 189.600 120.530,189.330 120.800,189.000 120.800 C 188.670 120.800,188.400 121.070,188.400 121.400 C 188.400 121.730,188.130 122.000,187.800 122.000 C 187.470 122.000,187.200 122.180,187.200 122.400 C 187.200 122.620,186.885 122.800,186.500 122.801 C 186.115 122.801,185.152 123.476,184.359 124.301 C 182.928 125.790,181.950 126.554,180.800 127.079 C 179.926 127.479,178.000 129.467,178.000 129.969 C 178.000 130.206,177.616 130.400,177.146 130.400 C 176.676 130.400,175.875 130.850,175.365 131.400 C 174.855 131.950,174.250 132.400,174.019 132.400 C 173.789 132.400,173.600 132.670,173.600 133.000 C 173.600 133.330,173.373 133.600,173.095 133.600 C 172.817 133.600,172.252 134.050,171.839 134.600 C 171.426 135.150,170.753 135.600,170.344 135.600 C 169.935 135.600,169.600 135.870,169.600 136.200 C 169.600 136.530,169.330 136.800,169.000 136.800 C 168.670 136.800,168.400 136.980,168.400 137.200 C 168.400 137.420,168.130 137.600,167.800 137.600 C 167.470 137.600,167.200 137.793,167.200 138.029 C 167.200 138.582,166.182 139.600,165.629 139.600 C 165.393 139.600,165.200 139.784,165.200 140.010 C 165.200 140.235,164.750 140.591,164.200 140.800 C 163.650 141.009,163.200 141.365,163.200 141.590 C 163.200 141.816,163.006 142.000,162.769 142.000 C 162.209 142.000,160.000 144.209,160.000 144.769 C 160.000 145.006,159.824 145.200,159.609 145.200 C 159.134 145.200,154.800 149.414,154.800 149.876 C 154.800 150.057,154.270 150.439,153.623 150.726 C 152.976 151.012,152.212 151.776,151.926 152.423 C 151.639 153.070,151.255 153.600,151.072 153.600 C 150.584 153.600,148.400 155.864,148.400 156.369 C 148.400 156.606,148.206 156.800,147.969 156.800 C 147.409 156.800,145.200 159.009,145.200 159.569 C 145.200 159.806,145.007 160.000,144.771 160.000 C 144.129 160.000,143.200 161.055,143.200 161.784 C 143.200 162.137,142.930 162.529,142.600 162.655 C 142.270 162.782,142.000 163.136,142.000 163.443 C 142.000 163.749,141.730 164.000,141.400 164.000 C 141.070 164.000,140.800 164.270,140.800 164.600 C 140.800 164.930,140.663 165.200,140.495 165.200 C 140.189 165.200,139.467 166.385,138.971 167.700 C 138.826 168.085,138.535 168.400,138.325 168.400 C 137.743 168.400,136.800 169.469,136.800 170.129 C 136.800 170.451,136.530 170.818,136.200 170.945 C 135.870 171.071,135.600 171.436,135.600 171.754 C 135.600 172.073,135.465 172.393,135.300 172.467 C 134.803 172.688,133.600 175.210,133.600 176.032 C 133.600 176.455,133.330 176.800,133.000 176.800 C 132.627 176.800,132.400 177.178,132.400 177.800 C 132.400 178.350,132.220 178.800,132.000 178.800 C 131.780 178.800,131.600 179.263,131.600 179.829 C 131.600 180.394,131.330 181.127,131.000 181.457 C 130.670 181.787,130.400 182.472,130.400 182.980 C 130.400 183.487,130.130 184.126,129.800 184.400 C 129.404 184.728,129.200 185.622,129.200 187.025 C 129.200 188.195,129.020 189.264,128.800 189.400 C 128.556 189.551,128.400 192.671,128.400 197.424 C 128.400 202.341,128.547 205.200,128.800 205.200 C 129.026 205.200,129.200 206.333,129.200 207.800 C 129.200 209.844,129.328 210.400,129.800 210.400 C 130.230 210.400,130.400 210.839,130.400 211.951 C 130.400 212.842,130.655 213.714,131.000 214.000 C 131.330 214.274,131.600 215.095,131.600 215.825 C 131.600 216.555,131.780 217.264,132.000 217.400 C 132.220 217.536,132.400 218.092,132.400 218.636 C 132.400 219.180,132.670 219.729,133.000 219.855 C 133.330 219.982,133.600 220.516,133.600 221.043 C 133.600 221.569,133.780 222.000,134.000 222.000 C 134.220 222.000,134.400 222.450,134.400 223.000 C 134.400 223.622,134.627 224.000,135.000 224.000 C 135.375 224.000,135.600 224.379,135.600 225.013 C 135.600 225.569,135.870 226.129,136.200 226.255 C 136.530 226.382,136.800 226.916,136.800 227.443 C 136.800 227.969,136.980 228.400,137.200 228.400 C 137.420 228.400,137.600 228.657,137.600 228.971 C 137.600 229.286,137.825 229.788,138.100 230.088 C 138.830 230.885,139.589 232.099,139.858 232.900 C 139.988 233.285,140.252 233.600,140.447 233.600 C 140.641 233.600,140.800 233.876,140.800 234.213 C 140.800 234.549,141.070 234.929,141.400 235.055 C 141.730 235.182,142.000 235.626,142.000 236.043 C 142.000 236.459,142.225 236.801,142.500 236.803 C 143.016 236.806,144.000 238.561,144.000 239.480 C 144.000 239.766,144.193 240.000,144.429 240.000 C 145.039 240.000,145.847 240.889,146.174 241.919 C 146.328 242.403,146.622 242.800,146.827 242.800 C 147.032 242.800,147.200 243.070,147.200 243.400 C 147.200 243.730,147.470 244.000,147.800 244.000 C 148.130 244.000,148.400 244.270,148.400 244.600 C 148.400 244.930,148.560 245.200,148.757 245.200 C 148.953 245.200,149.226 245.650,149.364 246.200 C 149.502 246.750,149.792 247.200,150.008 247.200 C 150.223 247.200,150.400 247.470,150.400 247.800 C 150.400 248.130,150.670 248.400,151.000 248.400 C 151.330 248.400,151.600 248.593,151.600 248.829 C 151.600 249.382,152.618 250.400,153.171 250.400 C 153.407 250.400,153.600 250.651,153.600 250.957 C 153.600 251.264,153.870 251.618,154.200 251.745 C 154.530 251.871,154.800 252.242,154.800 252.568 C 154.800 252.895,155.700 254.062,156.800 255.162 C 157.900 256.262,158.800 257.350,158.800 257.581 C 158.800 257.811,158.993 258.000,159.229 258.000 C 159.782 258.000,160.800 259.018,160.800 259.571 C 160.800 259.807,161.070 260.000,161.400 260.000 C 161.730 260.000,162.000 260.161,162.000 260.359 C 162.000 260.793,163.483 262.571,166.300 265.513 C 167.455 266.719,168.400 267.862,168.400 268.053 C 168.400 268.244,168.640 268.400,168.932 268.400 C 169.225 268.400,169.706 268.850,170.000 269.400 C 170.294 269.950,170.775 270.400,171.068 270.400 C 171.360 270.400,171.600 270.566,171.600 270.769 C 171.600 271.250,173.950 273.600,174.431 273.600 C 174.634 273.600,174.800 273.840,174.800 274.132 C 174.800 274.425,175.250 274.906,175.800 275.200 C 176.350 275.494,176.800 275.975,176.800 276.268 C 176.800 276.560,176.972 276.800,177.182 276.800 C 177.393 276.800,178.550 277.745,179.754 278.900 C 182.769 281.793,184.437 283.200,184.850 283.200 C 185.043 283.200,185.200 283.470,185.200 283.800 C 185.200 284.130,185.393 284.400,185.629 284.400 C 186.182 284.400,187.200 285.418,187.200 285.971 C 187.200 286.207,187.374 286.400,187.586 286.400 C 188.109 286.400,190.400 288.669,190.400 289.187 C 190.400 289.414,190.670 289.600,191.000 289.600 C 191.330 289.600,191.600 289.780,191.600 290.000 C 191.600 290.220,191.870 290.400,192.200 290.400 C 192.530 290.400,192.800 290.594,192.800 290.831 C 192.800 291.354,194.993 293.600,195.504 293.600 C 195.705 293.600,196.627 294.320,197.552 295.200 C 199.227 296.793,200.965 297.303,201.301 296.300 C 201.552 295.553,200.905 293.035,200.421 292.874 C 200.190 292.797,200.000 292.298,200.000 291.767 C 200.000 291.174,199.768 290.800,199.400 290.800 C 199.070 290.800,198.800 290.528,198.800 290.195 C 198.800 289.428,197.955 287.899,197.300 287.480 C 197.025 287.304,196.800 286.719,196.800 286.180 C 196.800 285.576,196.570 285.200,196.200 285.200 C 195.827 285.200,195.600 284.822,195.600 284.200 C 195.600 283.650,195.420 283.200,195.200 283.200 C 194.980 283.200,194.800 282.949,194.800 282.643 C 194.800 282.336,194.530 281.982,194.200 281.855 C 193.870 281.729,193.600 281.259,193.600 280.813 C 193.600 280.366,193.449 280.000,193.264 280.000 C 193.080 280.000,192.585 279.282,192.164 278.405 C 191.744 277.527,191.175 276.807,190.900 276.805 C 190.625 276.802,190.400 276.466,190.400 276.058 C 190.400 275.651,189.995 274.865,189.500 274.314 C 188.493 273.191,187.728 272.096,187.325 271.200 C 187.177 270.870,186.638 270.234,186.128 269.787 C 185.617 269.340,185.200 268.747,185.200 268.468 C 185.200 268.190,184.750 267.545,184.200 267.035 C 183.650 266.525,183.200 265.808,183.200 265.442 C 183.200 265.075,182.930 264.671,182.600 264.545 C 182.270 264.418,182.000 264.064,182.000 263.757 C 182.000 263.451,181.823 263.200,181.608 263.200 C 181.392 263.200,181.102 262.750,180.964 262.200 C 180.826 261.650,180.553 261.200,180.357 261.200 C 180.160 261.200,180.000 260.930,180.000 260.600 C 180.000 260.270,179.730 260.000,179.400 260.000 C 179.070 260.000,178.800 259.730,178.800 259.400 C 178.800 259.070,178.640 258.800,178.443 258.800 C 178.247 258.800,177.974 258.350,177.836 257.800 C 177.698 257.250,177.408 256.800,177.192 256.800 C 176.977 256.800,176.800 256.549,176.800 256.243 C 176.800 255.936,176.530 255.582,176.200 255.455 C 175.870 255.329,175.600 254.902,175.600 254.507 C 175.600 254.113,175.150 253.452,174.600 253.039 C 174.028 252.609,173.600 251.884,173.600 251.344 C 173.600 250.825,173.372 250.400,173.094 250.400 C 172.816 250.400,172.277 249.680,171.896 248.800 C 171.514 247.920,171.022 247.200,170.801 247.200 C 170.581 247.200,170.400 246.750,170.400 246.200 C 170.400 245.650,170.175 245.199,169.900 245.197 C 169.384 245.194,168.400 243.439,168.400 242.520 C 168.400 242.234,168.130 242.000,167.800 242.000 C 167.427 242.000,167.200 241.622,167.200 241.000 C 167.200 240.450,167.020 240.000,166.800 240.000 C 166.580 240.000,166.400 239.634,166.400 239.187 C 166.400 238.741,166.130 238.271,165.800 238.145 C 165.470 238.018,165.200 237.478,165.200 236.945 C 165.200 236.411,164.930 235.871,164.600 235.745 C 164.270 235.618,164.000 235.084,164.000 234.557 C 164.000 234.031,163.820 233.600,163.600 233.600 C 163.380 233.600,163.200 233.184,163.200 232.676 C 163.200 232.169,162.936 231.404,162.613 230.976 C 162.290 230.549,162.020 229.795,162.013 229.300 C 162.005 228.772,161.752 228.400,161.400 228.400 C 160.968 228.400,160.800 227.958,160.800 226.824 C 160.800 225.957,160.620 225.136,160.400 225.000 C 160.180 224.864,160.000 223.973,160.000 223.019 C 160.000 221.847,159.806 221.211,159.400 221.055 C 158.945 220.881,158.800 220.142,158.800 218.000 C 158.800 215.858,158.655 215.119,158.200 214.945 C 157.312 214.604,157.312 204.485,158.200 204.145 C 158.641 203.976,158.800 203.280,158.800 201.529 C 158.800 199.941,159.001 198.942,159.400 198.543 C 159.753 198.190,160.000 197.213,160.000 196.171 C 160.000 195.197,160.180 194.400,160.400 194.400 C 160.620 194.400,160.800 193.789,160.800 193.043 C 160.800 192.205,161.030 191.597,161.400 191.455 C 161.730 191.329,162.000 190.847,162.000 190.384 C 162.000 189.921,162.270 189.273,162.600 188.943 C 162.930 188.613,163.200 187.996,163.200 187.571 C 163.200 187.147,163.380 186.800,163.600 186.800 C 163.820 186.800,164.000 186.372,164.000 185.849 C 164.000 185.326,164.270 184.674,164.600 184.400 C 164.930 184.126,165.200 183.654,165.200 183.351 C 165.200 183.048,165.377 182.800,165.592 182.800 C 165.808 182.800,166.098 182.350,166.236 181.800 C 166.374 181.250,166.647 180.800,166.843 180.800 C 167.040 180.800,167.200 180.350,167.200 179.800 C 167.200 179.178,167.427 178.800,167.800 178.800 C 168.130 178.800,168.400 178.530,168.400 178.200 C 168.400 177.870,168.580 177.600,168.800 177.600 C 169.020 177.600,169.200 177.150,169.200 176.600 C 169.200 175.978,169.427 175.600,169.800 175.600 C 170.130 175.600,170.400 175.330,170.400 175.000 C 170.400 174.670,170.625 174.399,170.900 174.397 C 171.416 174.394,172.400 172.639,172.400 171.720 C 172.400 171.434,172.594 171.200,172.831 171.200 C 173.499 171.200,175.600 168.938,175.600 168.218 C 175.600 167.864,175.870 167.471,176.200 167.345 C 176.530 167.218,176.800 166.864,176.800 166.557 C 176.800 166.251,176.993 166.000,177.229 166.000 C 177.782 166.000,178.800 164.982,178.800 164.429 C 178.800 164.193,179.070 164.000,179.400 164.000 C 179.730 164.000,180.000 163.760,180.000 163.468 C 180.000 163.175,180.450 162.694,181.000 162.400 C 181.550 162.106,182.000 161.625,182.000 161.332 C 182.000 161.040,182.270 160.800,182.600 160.800 C 182.930 160.800,183.200 160.607,183.200 160.371 C 183.200 159.818,184.218 158.800,184.771 158.800 C 185.007 158.800,185.200 158.530,185.200 158.200 C 185.200 157.870,185.440 157.600,185.732 157.600 C 186.025 157.600,186.506 157.150,186.800 156.600 C 187.094 156.050,187.575 155.600,187.868 155.600 C 188.160 155.600,188.400 155.330,188.400 155.000 C 188.400 154.670,188.593 154.400,188.829 154.400 C 189.382 154.400,190.400 153.382,190.400 152.829 C 190.400 152.593,190.670 152.400,191.000 152.400 C 191.330 152.400,191.600 152.130,191.600 151.800 C 191.600 151.470,191.870 151.200,192.200 151.200 C 192.530 151.200,192.800 151.061,192.800 150.891 C 192.800 150.721,193.430 150.243,194.200 149.828 C 194.970 149.413,195.600 148.832,195.600 148.537 C 195.600 148.242,195.870 148.000,196.200 148.000 C 196.530 148.000,196.800 147.820,196.800 147.600 C 196.800 147.380,197.070 147.200,197.400 147.200 C 197.730 147.200,198.000 146.958,198.000 146.663 C 198.000 146.368,198.630 145.787,199.400 145.372 C 200.170 144.957,200.800 144.479,200.800 144.309 C 200.800 144.139,201.070 144.000,201.400 144.000 C 201.730 144.000,202.000 143.730,202.000 143.400 C 202.000 143.070,202.204 142.800,202.454 142.800 C 202.704 142.800,203.293 142.385,203.763 141.878 C 204.233 141.371,204.929 140.836,205.309 140.690 C 205.689 140.544,206.000 140.239,206.000 140.013 C 206.000 139.786,206.270 139.600,206.600 139.600 C 206.930 139.600,207.200 139.420,207.200 139.200 C 207.200 138.980,207.470 138.800,207.800 138.800 C 208.130 138.800,208.400 138.530,208.400 138.200 C 208.400 137.870,208.670 137.600,209.000 137.600 C 209.330 137.600,209.600 137.358,209.600 137.063 C 209.600 136.768,210.230 136.187,211.000 135.772 C 211.770 135.357,212.400 134.879,212.400 134.709 C 212.400 134.539,212.582 134.400,212.805 134.400 C 213.028 134.400,214.106 133.500,215.200 132.400 C 216.294 131.300,217.372 130.400,217.595 130.400 C 217.818 130.400,218.000 130.130,218.000 129.800 C 218.000 129.470,218.180 129.200,218.400 129.200 C 218.620 129.200,218.800 128.974,218.800 128.698 C 218.800 128.421,219.295 127.976,219.900 127.708 C 220.505 127.440,222.503 125.776,224.341 124.010 C 226.179 122.245,227.844 120.800,228.041 120.800 C 228.238 120.800,228.400 120.530,228.400 120.200 C 228.400 119.870,228.670 119.600,229.000 119.600 C 229.330 119.600,229.600 119.420,229.600 119.200 C 229.600 118.980,230.275 118.101,231.100 117.247 C 233.104 115.171,236.000 111.907,236.000 111.723 C 236.000 111.642,236.900 110.703,238.000 109.638 C 239.100 108.572,240.000 107.497,240.000 107.250 C 240.000 107.002,240.270 106.800,240.600 106.800 C 240.930 106.800,241.200 106.573,241.200 106.296 C 241.200 106.019,241.650 105.307,242.200 104.713 C 242.750 104.120,243.200 103.447,243.200 103.217 C 243.200 102.988,243.470 102.800,243.800 102.800 C 244.130 102.800,244.400 102.530,244.400 102.200 C 244.400 101.870,244.580 101.600,244.800 101.600 C 245.020 101.600,245.202 101.285,245.204 100.900 C 245.206 100.515,245.924 99.570,246.800 98.800 C 247.764 97.952,248.394 97.045,248.396 96.500 C 248.398 95.968,248.646 95.600,249.000 95.600 C 249.330 95.600,249.600 95.349,249.600 95.043 C 249.600 94.736,249.870 94.382,250.200 94.255 C 250.530 94.129,250.800 93.659,250.800 93.213 C 250.800 92.766,250.980 92.400,251.200 92.400 C 251.420 92.400,251.600 92.130,251.600 91.800 C 251.600 91.470,251.870 91.200,252.200 91.200 C 252.530 91.200,252.800 90.883,252.800 90.496 C 252.800 90.109,253.250 89.307,253.800 88.713 C 254.350 88.120,254.800 87.267,254.800 86.817 C 254.800 86.357,255.062 86.000,255.400 86.000 C 255.773 86.000,256.000 85.622,256.000 85.000 C 256.000 84.450,256.159 84.000,256.353 84.000 C 256.548 84.000,256.821 83.685,256.960 83.300 C 257.302 82.354,258.207 80.833,258.754 80.286 C 258.999 80.041,259.200 79.516,259.200 79.120 C 259.200 78.724,259.380 78.400,259.600 78.400 C 259.820 78.400,260.000 77.969,260.000 77.443 C 260.000 76.916,260.270 76.382,260.600 76.255 C 260.930 76.129,261.200 75.591,261.200 75.062 C 261.200 74.532,261.470 73.874,261.800 73.600 C 262.130 73.326,262.400 72.674,262.400 72.151 C 262.400 71.628,262.580 71.200,262.800 71.200 C 263.020 71.200,263.200 70.679,263.200 70.043 C 263.200 69.383,263.458 68.787,263.800 68.655 C 264.151 68.521,264.400 67.921,264.400 67.213 C 264.400 66.546,264.578 66.000,264.795 66.000 C 265.013 66.000,265.306 65.276,265.448 64.391 C 265.589 63.506,265.861 62.686,266.053 62.568 C 266.244 62.449,266.400 61.463,266.400 60.376 C 266.400 58.886,266.548 58.400,267.000 58.400 C 267.467 58.400,267.600 57.863,267.600 55.971 C 267.600 54.346,267.798 53.344,268.200 52.943 C 268.663 52.480,268.800 51.304,268.800 47.795 C 268.800 45.195,268.971 43.141,269.200 43.000 C 269.420 42.864,269.600 41.604,269.600 40.200 C 269.600 38.796,269.420 37.536,269.200 37.400 C 268.973 37.260,268.800 35.279,268.800 32.825 C 268.800 29.467,268.666 28.386,268.200 28.000 C 267.802 27.670,267.600 26.774,267.600 25.338 C 267.600 23.784,267.431 23.110,267.000 22.945 C 266.609 22.795,266.400 22.172,266.400 21.157 C 266.400 20.301,266.220 19.600,266.000 19.600 C 265.780 19.600,265.600 19.073,265.600 18.429 C 265.600 17.784,265.330 16.987,265.000 16.657 C 264.670 16.327,264.400 15.704,264.400 15.271 C 264.400 14.839,264.130 14.382,263.800 14.255 C 263.470 14.129,263.200 13.580,263.200 13.036 C 263.200 12.492,263.020 11.936,262.800 11.800 C 262.580 11.664,262.400 11.223,262.400 10.819 C 262.400 10.416,262.130 9.982,261.800 9.855 C 261.470 9.729,261.200 9.259,261.200 8.813 C 261.200 8.357,260.936 8.000,260.600 8.000 C 260.227 8.000,260.000 7.622,260.000 7.000 C 260.000 6.450,259.820 6.000,259.600 6.000 C 259.380 6.000,259.200 5.730,259.200 5.400 C 259.200 5.070,258.930 4.800,258.600 4.800 C 258.227 4.800,258.000 4.422,258.000 3.800 C 258.000 3.178,257.773 2.800,257.400 2.800 C 257.070 2.800,256.800 2.530,256.800 2.200 C 256.800 1.870,256.620 1.600,256.400 1.600 C 256.180 1.600,256.000 1.351,256.000 1.047 C 256.000 0.498,254.844 0.016,253.500 0.005 C 252.917 0.001,252.800 0.370,252.800 2.213 M321.012 109.981 C 320.869 110.211,319.784 110.400,318.600 110.400 C 317.416 110.400,316.336 110.580,316.200 110.800 C 316.064 111.020,315.328 111.200,314.564 111.200 C 313.698 111.200,313.088 111.426,312.945 111.800 C 312.795 112.191,312.172 112.400,311.157 112.400 C 310.301 112.400,309.600 112.580,309.600 112.800 C 309.600 113.020,309.004 113.200,308.276 113.200 C 307.549 113.200,306.604 113.464,306.176 113.787 C 305.749 114.110,304.927 114.380,304.349 114.387 C 303.771 114.394,303.090 114.650,302.836 114.956 C 302.400 115.481,301.568 115.732,298.500 116.263 C 297.764 116.390,297.200 116.729,297.200 117.044 C 297.200 117.426,296.700 117.600,295.600 117.600 C 294.444 117.600,294.000 117.767,294.000 118.200 C 294.000 118.633,293.556 118.800,292.400 118.800 C 291.520 118.800,290.800 118.980,290.800 119.200 C 290.800 119.420,290.350 119.600,289.800 119.600 C 289.178 119.600,288.800 119.827,288.800 120.200 C 288.800 120.633,288.356 120.800,287.200 120.800 C 286.044 120.800,285.600 120.967,285.600 121.400 C 285.600 121.769,285.225 122.000,284.624 122.000 C 284.087 122.000,283.536 122.180,283.400 122.400 C 283.264 122.620,282.533 122.800,281.776 122.800 C 280.820 122.800,280.400 122.983,280.400 123.400 C 280.400 123.800,280.000 124.000,279.200 124.000 C 278.540 124.000,278.000 124.180,278.000 124.400 C 278.000 124.620,277.662 124.800,277.249 124.800 C 276.836 124.800,276.274 125.070,276.000 125.400 C 275.726 125.730,274.978 126.000,274.338 126.000 C 273.673 126.000,273.076 126.257,272.945 126.600 C 272.818 126.930,272.284 127.200,271.757 127.200 C 271.231 127.200,270.800 127.380,270.800 127.600 C 270.800 127.820,270.350 128.000,269.800 128.000 C 269.178 128.000,268.800 128.227,268.800 128.600 C 268.800 129.000,268.400 129.200,267.600 129.200 C 266.800 129.200,266.400 129.400,266.400 129.800 C 266.400 130.173,266.022 130.400,265.400 130.400 C 264.850 130.400,264.400 130.580,264.400 130.800 C 264.400 131.020,263.950 131.200,263.400 131.200 C 262.778 131.200,262.400 131.427,262.400 131.800 C 262.400 132.175,262.021 132.400,261.387 132.400 C 260.831 132.400,260.271 132.670,260.145 133.000 C 260.018 133.330,259.484 133.600,258.957 133.600 C 258.431 133.600,258.000 133.780,258.000 134.000 C 258.000 134.220,257.634 134.400,257.187 134.400 C 256.741 134.400,256.271 134.670,256.145 135.000 C 256.018 135.330,255.600 135.600,255.216 135.600 C 254.831 135.600,254.031 136.050,253.438 136.600 C 252.844 137.150,252.008 137.600,251.579 137.600 C 251.151 137.600,250.800 137.870,250.800 138.200 C 250.800 138.573,250.422 138.800,249.800 138.800 C 249.250 138.800,248.800 138.980,248.800 139.200 C 248.800 139.420,248.549 139.600,248.243 139.600 C 247.936 139.600,247.582 139.870,247.455 140.200 C 247.329 140.530,246.879 140.800,246.455 140.800 C 246.032 140.800,245.582 141.070,245.455 141.400 C 245.329 141.730,244.859 142.000,244.413 142.000 C 243.966 142.000,243.600 142.180,243.600 142.400 C 243.600 142.620,243.330 142.800,243.000 142.800 C 242.670 142.800,242.400 143.070,242.400 143.400 C 242.400 143.738,242.042 144.000,241.581 144.000 C 241.130 144.000,240.364 144.405,239.878 144.900 C 238.979 145.815,237.881 146.590,236.800 147.073 C 236.470 147.220,235.804 147.759,235.319 148.270 C 234.835 148.782,234.154 149.200,233.807 149.200 C 233.459 149.200,233.071 149.470,232.945 149.800 C 232.818 150.130,232.541 150.400,232.329 150.400 C 231.810 150.400,230.800 151.438,230.800 151.971 C 230.800 152.207,230.530 152.400,230.200 152.400 C 229.870 152.400,229.600 152.670,229.600 153.000 C 229.600 153.345,229.239 153.600,228.750 153.600 C 228.255 153.600,227.091 154.436,225.962 155.600 C 224.897 156.700,223.839 157.600,223.612 157.600 C 223.386 157.600,223.200 157.766,223.200 157.969 C 223.200 158.450,220.850 160.800,220.369 160.800 C 220.166 160.800,220.000 160.993,220.000 161.229 C 220.000 161.782,218.982 162.800,218.429 162.800 C 218.193 162.800,218.000 163.070,218.000 163.400 C 218.000 163.730,217.730 164.000,217.400 164.000 C 217.070 164.000,216.800 164.204,216.800 164.454 C 216.800 164.704,216.350 165.325,215.800 165.835 C 215.250 166.345,214.800 167.130,214.800 167.581 C 214.800 168.031,214.607 168.400,214.371 168.400 C 213.818 168.400,212.800 169.418,212.800 169.971 C 212.800 170.207,212.573 170.400,212.295 170.400 C 211.815 170.400,211.150 171.364,210.571 172.900 C 210.426 173.285,210.148 173.600,209.953 173.600 C 209.759 173.600,209.600 174.050,209.600 174.600 C 209.600 175.222,209.373 175.600,209.000 175.600 C 208.670 175.600,208.400 175.870,208.400 176.200 C 208.400 176.530,208.240 176.800,208.043 176.800 C 207.847 176.800,207.574 177.250,207.436 177.800 C 207.298 178.350,207.008 178.800,206.792 178.800 C 206.577 178.800,206.400 179.231,206.400 179.757 C 206.400 180.284,206.130 180.818,205.800 180.945 C 205.470 181.071,205.200 181.631,205.200 182.187 C 205.200 182.744,205.020 183.200,204.800 183.200 C 204.580 183.200,204.400 183.628,204.400 184.151 C 204.400 184.674,204.130 185.326,203.800 185.600 C 203.470 185.874,203.200 186.687,203.200 187.406 C 203.200 188.200,202.964 188.805,202.600 188.945 C 202.204 189.097,202.000 189.723,202.000 190.787 C 202.000 191.674,201.820 192.400,201.600 192.400 C 201.374 192.400,201.200 193.538,201.200 195.013 C 201.200 196.966,201.049 197.683,200.600 197.855 C 199.704 198.199,199.704 213.111,200.600 213.455 C 201.047 213.627,201.200 214.339,201.200 216.243 C 201.200 217.681,201.375 218.800,201.600 218.800 C 201.820 218.800,202.000 219.678,202.000 220.751 C 202.000 221.997,202.217 222.882,202.600 223.200 C 202.930 223.474,203.200 224.222,203.200 224.862 C 203.200 225.527,203.457 226.124,203.800 226.255 C 204.170 226.397,204.400 227.005,204.400 227.843 C 204.400 228.589,204.580 229.200,204.800 229.200 C 205.020 229.200,205.200 229.740,205.200 230.400 C 205.200 231.200,205.400 231.600,205.800 231.600 C 206.173 231.600,206.400 231.978,206.400 232.600 C 206.400 233.150,206.560 233.600,206.757 233.600 C 206.953 233.600,207.226 234.050,207.364 234.600 C 207.502 235.150,207.792 235.600,208.008 235.600 C 208.223 235.600,208.400 236.056,208.400 236.613 C 208.400 237.169,208.670 237.729,209.000 237.855 C 209.330 237.982,209.600 238.516,209.600 239.043 C 209.600 239.569,209.760 240.000,209.957 240.000 C 210.153 240.000,210.426 240.450,210.564 241.000 C 210.702 241.550,210.992 242.000,211.208 242.000 C 211.423 242.000,211.600 242.270,211.600 242.600 C 211.600 242.930,211.870 243.200,212.200 243.200 C 212.546 243.200,212.800 243.562,212.800 244.054 C 212.800 244.524,213.250 245.325,213.800 245.835 C 214.350 246.345,214.800 247.130,214.800 247.581 C 214.800 248.042,215.062 248.400,215.400 248.400 C 215.730 248.400,216.000 248.670,216.000 249.000 C 216.000 249.330,216.180 249.600,216.400 249.600 C 216.620 249.600,216.800 249.842,216.800 250.139 C 216.800 250.828,218.153 252.400,218.747 252.400 C 218.996 252.400,219.200 252.670,219.200 253.000 C 219.200 253.330,219.380 253.600,219.600 253.600 C 219.820 253.600,220.000 253.870,220.000 254.200 C 220.000 254.530,220.270 254.800,220.600 254.800 C 220.930 254.800,221.203 255.115,221.206 255.500 C 221.214 256.308,223.288 258.800,223.953 258.800 C 224.199 258.800,224.400 259.070,224.400 259.400 C 224.400 259.730,224.560 260.000,224.757 260.000 C 224.953 260.000,225.226 260.450,225.364 261.000 C 225.502 261.550,225.792 262.000,226.008 262.000 C 226.223 262.000,226.400 262.270,226.400 262.600 C 226.400 262.930,226.605 263.200,226.856 263.200 C 227.475 263.200,228.372 264.438,228.387 265.313 C 228.394 265.704,228.670 266.129,229.000 266.255 C 229.330 266.382,229.600 266.916,229.600 267.443 C 229.600 268.027,229.834 268.400,230.200 268.400 C 230.573 268.400,230.800 268.778,230.800 269.400 C 230.800 269.950,230.980 270.400,231.200 270.400 C 231.420 270.400,231.600 270.927,231.600 271.571 C 231.600 272.216,231.870 273.013,232.200 273.343 C 232.530 273.673,232.800 274.586,232.800 275.371 C 232.800 276.157,232.980 276.800,233.200 276.800 C 233.448 276.800,233.600 278.925,233.600 282.376 C 233.600 285.663,233.436 288.054,233.200 288.200 C 232.980 288.336,232.800 289.135,232.800 289.975 C 232.800 290.844,232.542 291.716,232.200 292.000 C 231.870 292.274,231.600 293.016,231.600 293.649 C 231.600 294.282,231.420 294.800,231.200 294.800 C 230.980 294.800,230.800 295.340,230.800 296.000 C 230.800 296.800,230.600 297.200,230.200 297.200 C 229.834 297.200,229.600 297.573,229.600 298.157 C 229.600 298.684,229.330 299.218,229.000 299.345 C 228.670 299.471,228.400 299.941,228.400 300.387 C 228.400 300.834,228.220 301.200,228.000 301.200 C 227.780 301.200,227.600 301.650,227.600 302.200 C 227.600 302.822,227.373 303.200,227.000 303.200 C 226.670 303.200,226.400 303.451,226.400 303.757 C 226.400 304.064,226.146 304.412,225.835 304.531 C 225.525 304.650,225.039 305.390,224.755 306.174 C 224.471 306.958,224.082 307.600,223.889 307.600 C 223.389 307.600,221.200 309.854,221.200 310.369 C 221.200 310.606,221.007 310.800,220.771 310.800 C 220.218 310.800,219.200 311.818,219.200 312.371 C 219.200 312.607,218.930 312.800,218.600 312.800 C 218.270 312.800,218.000 313.070,218.000 313.400 C 218.000 313.730,217.820 314.000,217.600 314.000 C 216.948 314.000,217.145 315.493,217.833 315.757 C 218.923 316.175,219.905 316.024,220.145 315.400 C 220.271 315.070,220.741 314.800,221.187 314.800 C 221.643 314.800,222.000 314.536,222.000 314.200 C 222.000 313.834,222.373 313.600,222.958 313.600 C 223.485 313.600,224.340 313.153,224.858 312.607 C 225.376 312.061,226.053 311.611,226.362 311.607 C 226.671 311.603,227.514 311.150,228.236 310.600 C 228.957 310.050,229.713 309.600,229.917 309.600 C 230.121 309.600,230.618 309.161,231.021 308.624 C 231.424 308.087,232.169 307.544,232.677 307.416 C 233.185 307.289,233.600 307.008,233.600 306.792 C 233.600 306.577,233.870 306.400,234.200 306.400 C 234.530 306.400,234.800 306.130,234.800 305.800 C 234.800 305.470,235.070 305.200,235.400 305.200 C 235.730 305.200,236.000 305.032,236.000 304.827 C 236.000 304.622,236.356 304.341,236.790 304.203 C 237.225 304.065,238.218 303.333,238.997 302.576 C 239.777 301.819,240.591 301.200,240.807 301.200 C 241.023 301.200,241.200 300.930,241.200 300.600 C 241.200 300.270,241.393 300.000,241.629 300.000 C 242.182 300.000,243.200 298.982,243.200 298.429 C 243.200 298.193,243.470 298.000,243.800 298.000 C 244.130 298.000,244.400 297.807,244.400 297.571 C 244.400 297.018,245.418 296.000,245.971 296.000 C 246.207 296.000,246.400 295.730,246.400 295.400 C 246.400 295.070,246.670 294.800,247.000 294.800 C 247.330 294.800,247.600 294.607,247.600 294.371 C 247.600 293.818,248.618 292.800,249.171 292.800 C 249.407 292.800,249.600 292.530,249.600 292.200 C 249.600 291.870,249.870 291.600,250.200 291.600 C 250.530 291.600,250.800 291.330,250.800 291.000 C 250.800 290.670,250.980 290.400,251.200 290.400 C 251.420 290.400,251.600 290.130,251.600 289.800 C 251.600 289.470,251.786 289.200,252.013 289.200 C 252.239 289.200,252.544 288.889,252.690 288.509 C 252.836 288.129,253.371 287.433,253.878 286.963 C 254.385 286.493,254.800 285.724,254.800 285.254 C 254.800 284.762,255.054 284.400,255.400 284.400 C 255.730 284.400,256.000 284.130,256.000 283.800 C 256.000 283.470,256.180 283.200,256.400 283.200 C 256.620 283.200,256.800 282.750,256.800 282.200 C 256.800 281.578,257.027 281.200,257.400 281.200 C 257.800 281.200,258.000 280.800,258.000 280.000 C 258.000 279.200,258.200 278.800,258.600 278.800 C 258.973 278.800,259.200 278.422,259.200 277.800 C 259.200 277.250,259.380 276.800,259.600 276.800 C 259.820 276.800,260.000 276.080,260.000 275.200 C 260.000 274.044,260.167 273.600,260.600 273.600 C 261.031 273.600,261.200 273.160,261.200 272.043 C 261.200 271.028,261.409 270.405,261.800 270.255 C 262.308 270.061,262.400 268.699,262.400 261.413 C 262.400 254.024,262.315 252.800,261.800 252.800 C 261.346 252.800,261.200 252.310,261.200 250.787 C 261.200 249.368,261.023 248.707,260.600 248.545 C 260.270 248.418,260.000 247.884,260.000 247.357 C 260.000 246.831,259.820 246.400,259.600 246.400 C 259.380 246.400,259.200 245.944,259.200 245.387 C 259.200 244.831,258.930 244.271,258.600 244.145 C 258.270 244.018,258.000 243.484,258.000 242.957 C 258.000 242.373,257.766 242.000,257.400 242.000 C 257.027 242.000,256.800 241.622,256.800 241.000 C 256.800 240.450,256.620 240.000,256.400 240.000 C 256.180 240.000,256.000 239.730,256.000 239.400 C 256.000 239.070,255.730 238.800,255.400 238.800 C 255.054 238.800,254.800 238.438,254.800 237.946 C 254.800 237.476,254.350 236.675,253.800 236.165 C 253.250 235.655,252.800 234.954,252.800 234.607 C 252.800 234.259,252.530 233.871,252.200 233.745 C 251.870 233.618,251.600 233.306,251.600 233.052 C 251.600 232.798,251.150 232.252,250.600 231.839 C 250.050 231.426,249.600 230.753,249.600 230.344 C 249.600 229.935,249.330 229.600,249.000 229.600 C 248.670 229.600,248.400 229.330,248.400 229.000 C 248.400 228.670,248.220 228.400,248.000 228.400 C 247.780 228.400,247.600 228.034,247.600 227.587 C 247.600 227.141,247.330 226.671,247.000 226.545 C 246.670 226.418,246.400 226.064,246.400 225.757 C 246.400 225.451,246.130 225.200,245.800 225.200 C 245.470 225.200,245.200 224.966,245.200 224.680 C 245.200 223.842,244.236 222.007,243.794 222.003 C 243.571 222.001,243.077 221.280,242.696 220.400 C 242.314 219.520,241.822 218.800,241.601 218.800 C 241.381 218.800,241.200 218.434,241.200 217.987 C 241.200 217.541,240.930 217.071,240.600 216.945 C 240.270 216.818,240.000 216.464,240.000 216.157 C 240.000 215.851,239.820 215.600,239.600 215.600 C 239.380 215.600,239.200 215.234,239.200 214.787 C 239.200 214.341,238.930 213.871,238.600 213.745 C 238.270 213.618,238.000 213.084,238.000 212.557 C 238.000 211.973,237.766 211.600,237.400 211.600 C 237.031 211.600,236.800 211.225,236.800 210.624 C 236.800 210.087,236.620 209.536,236.400 209.400 C 236.180 209.264,236.000 208.798,236.000 208.364 C 236.000 207.930,235.730 207.471,235.400 207.345 C 235.028 207.202,234.800 206.593,234.800 205.745 C 234.800 204.896,234.572 204.287,234.200 204.145 C 233.809 203.995,233.600 203.372,233.600 202.357 C 233.600 201.501,233.420 200.800,233.200 200.800 C 232.951 200.800,232.800 198.475,232.800 194.624 C 232.800 190.937,232.961 188.348,233.200 188.200 C 233.420 188.064,233.600 187.353,233.600 186.619 C 233.600 185.803,233.833 185.196,234.200 185.055 C 234.577 184.911,234.800 184.299,234.800 183.413 C 234.800 182.424,234.980 182.000,235.400 182.000 C 235.769 182.000,236.000 181.625,236.000 181.024 C 236.000 180.487,236.180 179.936,236.400 179.800 C 236.620 179.664,236.800 179.113,236.800 178.576 C 236.800 177.975,237.031 177.600,237.400 177.600 C 237.730 177.600,238.000 177.330,238.000 177.000 C 238.000 176.670,238.168 176.400,238.373 176.400 C 238.578 176.400,238.873 175.995,239.029 175.500 C 239.184 175.005,239.736 174.204,240.256 173.719 C 240.775 173.235,241.200 172.470,241.200 172.019 C 241.200 171.569,241.393 171.200,241.629 171.200 C 242.182 171.200,243.200 170.182,243.200 169.629 C 243.200 169.393,243.470 169.200,243.800 169.200 C 244.130 169.200,244.400 168.930,244.400 168.600 C 244.400 168.270,244.580 168.000,244.800 168.000 C 245.020 168.000,245.202 167.685,245.204 167.300 C 245.206 166.915,245.924 165.970,246.800 165.200 C 247.676 164.430,248.394 163.575,248.396 163.300 C 248.398 163.025,248.594 162.800,248.831 162.800 C 249.391 162.800,251.600 160.591,251.600 160.031 C 251.600 159.794,251.870 159.600,252.200 159.600 C 252.530 159.600,252.800 159.420,252.800 159.200 C 252.800 158.980,253.051 158.800,253.357 158.800 C 253.664 158.800,254.018 158.530,254.145 158.200 C 254.271 157.870,254.569 157.600,254.807 157.600 C 255.044 157.600,255.655 157.150,256.165 156.600 C 256.675 156.050,257.296 155.600,257.546 155.600 C 257.796 155.600,258.000 155.330,258.000 155.000 C 258.000 154.670,258.193 154.400,258.429 154.400 C 258.982 154.400,260.000 153.382,260.000 152.829 C 260.000 152.593,260.270 152.400,260.600 152.400 C 260.930 152.400,261.200 152.130,261.200 151.800 C 261.200 151.454,261.562 151.200,262.054 151.200 C 262.524 151.200,263.325 150.750,263.835 150.200 C 264.345 149.650,264.950 149.200,265.181 149.200 C 265.411 149.200,265.600 148.995,265.600 148.744 C 265.600 148.129,266.835 147.228,267.700 147.213 C 268.085 147.206,268.400 146.930,268.400 146.600 C 268.400 146.270,268.604 146.000,268.854 146.000 C 269.104 146.000,269.725 145.550,270.235 145.000 C 270.745 144.450,271.530 144.000,271.981 144.000 C 272.442 144.000,272.800 143.738,272.800 143.400 C 272.800 143.070,272.988 142.800,273.217 142.800 C 273.447 142.800,274.120 142.350,274.713 141.800 C 275.307 141.250,275.993 140.800,276.240 140.800 C 276.486 140.800,277.026 140.350,277.439 139.800 C 277.852 139.250,278.507 138.800,278.895 138.800 C 279.653 138.800,281.200 137.458,281.200 136.800 C 281.200 136.580,281.650 136.400,282.200 136.400 C 282.750 136.400,283.200 136.220,283.200 136.000 C 283.200 135.780,283.470 135.600,283.800 135.600 C 284.130 135.600,284.400 135.330,284.400 135.000 C 284.400 134.627,284.778 134.400,285.400 134.400 C 285.950 134.400,286.400 134.220,286.400 134.000 C 286.400 133.780,286.670 133.600,287.000 133.600 C 287.330 133.600,287.600 133.330,287.600 133.000 C 287.600 132.627,287.978 132.400,288.600 132.400 C 289.222 132.400,289.600 132.173,289.600 131.800 C 289.600 131.470,289.870 131.200,290.200 131.200 C 290.530 131.200,290.800 131.040,290.800 130.843 C 290.800 130.647,291.250 130.374,291.800 130.236 C 292.350 130.098,292.800 129.808,292.800 129.592 C 292.800 129.377,293.070 129.200,293.400 129.200 C 293.730 129.200,294.000 128.930,294.000 128.600 C 294.000 128.227,294.378 128.000,295.000 128.000 C 295.550 128.000,296.000 127.863,296.000 127.695 C 296.000 127.389,297.185 126.667,298.500 126.171 C 298.885 126.026,299.200 125.658,299.200 125.353 C 299.200 125.030,299.615 124.800,300.200 124.800 C 300.750 124.800,301.200 124.620,301.200 124.400 C 301.200 124.180,301.470 124.000,301.800 124.000 C 302.130 124.000,302.400 123.730,302.400 123.400 C 302.400 123.027,302.778 122.800,303.400 122.800 C 303.950 122.800,304.400 122.640,304.400 122.443 C 304.400 122.247,304.850 121.974,305.400 121.836 C 305.950 121.698,306.400 121.408,306.400 121.192 C 306.400 120.977,306.670 120.800,307.000 120.800 C 307.330 120.800,307.600 120.530,307.600 120.200 C 307.600 119.827,307.978 119.600,308.600 119.600 C 309.150 119.600,309.600 119.420,309.600 119.200 C 309.600 118.980,309.851 118.800,310.157 118.800 C 310.464 118.800,310.818 118.530,310.945 118.200 C 311.071 117.870,311.541 117.600,311.987 117.600 C 312.443 117.600,312.800 117.336,312.800 117.000 C 312.800 116.670,313.145 116.400,313.568 116.400 C 314.435 116.400,316.794 115.158,316.797 114.700 C 316.799 114.535,317.160 114.400,317.600 114.400 C 318.044 114.400,318.400 114.133,318.400 113.800 C 318.400 113.427,318.778 113.200,319.400 113.200 C 319.950 113.200,320.400 113.040,320.400 112.843 C 320.400 112.647,320.850 112.374,321.400 112.236 C 322.018 112.081,322.400 111.701,322.400 111.241 C 322.400 110.307,321.382 109.382,321.012 109.981 M294.800 385.624 C 294.800 386.077,294.980 386.336,295.200 386.200 C 295.420 386.064,295.600 385.693,295.600 385.376 C 295.600 385.059,295.420 384.800,295.200 384.800 C 294.980 384.800,294.800 385.171,294.800 385.624 M129.371 417.200 C 129.371 417.640,129.513 418.000,129.686 418.000 C 129.859 418.000,130.000 417.640,130.000 417.200 C 130.000 416.760,129.859 416.400,129.686 416.400 C 129.513 416.400,129.371 416.760,129.371 417.200 " stroke="none" fill="#e46c04" fill-rule="evenodd"></path><path id="path1" d="M351.400 291.200 C 351.262 291.423,349.405 291.600,347.205 291.600 C 344.298 291.600,343.105 291.752,342.680 292.177 C 342.342 292.515,341.170 292.792,339.851 292.846 C 338.613 292.896,337.600 293.086,337.600 293.268 C 337.600 293.451,337.094 293.600,336.476 293.600 C 335.859 293.600,335.004 293.864,334.576 294.187 C 334.149 294.510,333.318 294.780,332.729 294.787 C 332.139 294.794,331.394 295.064,331.071 295.386 C 330.749 295.708,330.248 296.023,329.958 296.086 C 329.667 296.149,328.975 296.605,328.419 297.100 C 327.863 297.595,327.271 298.000,327.104 298.000 C 326.937 298.000,326.800 298.270,326.800 298.600 C 326.800 298.930,326.622 299.200,326.405 299.200 C 325.469 299.200,324.400 300.633,324.400 301.889 C 324.400 303.152,324.459 303.200,326.000 303.200 C 327.156 303.200,327.600 303.033,327.600 302.600 C 327.600 302.157,328.064 302.000,329.376 302.000 C 330.353 302.000,331.264 301.820,331.400 301.600 C 331.536 301.380,332.434 301.200,333.395 301.200 C 334.415 301.200,335.393 300.950,335.743 300.600 C 336.229 300.114,337.635 300.000,343.171 300.000 C 348.975 300.000,350.000 300.090,350.000 300.600 C 350.000 301.033,350.444 301.200,351.600 301.200 C 352.480 301.200,353.200 301.380,353.200 301.600 C 353.200 301.820,353.920 302.000,354.800 302.000 C 355.956 302.000,356.400 302.167,356.400 302.600 C 356.400 302.930,356.751 303.200,357.180 303.200 C 357.609 303.200,358.104 303.425,358.280 303.700 C 358.699 304.355,360.228 305.200,360.995 305.200 C 361.328 305.200,361.600 305.470,361.600 305.800 C 361.600 306.130,361.870 306.400,362.200 306.400 C 362.530 306.400,362.800 306.568,362.800 306.773 C 362.800 306.978,363.131 307.251,363.535 307.379 C 364.590 307.714,368.656 311.715,368.980 312.738 C 369.131 313.212,369.422 313.600,369.627 313.600 C 369.832 313.600,370.000 313.870,370.000 314.200 C 370.000 314.530,370.168 314.800,370.373 314.800 C 370.578 314.800,370.872 315.205,371.027 315.700 C 371.181 316.195,371.473 316.706,371.674 316.836 C 371.875 316.966,372.069 317.461,372.105 317.936 C 372.141 318.411,372.402 318.800,372.685 318.800 C 372.991 318.800,373.200 319.288,373.200 320.000 C 373.200 320.660,373.380 321.200,373.600 321.200 C 373.820 321.200,374.000 321.907,374.000 322.771 C 374.000 323.636,374.270 324.613,374.600 324.943 C 375.069 325.412,375.200 326.630,375.200 330.529 C 375.200 334.591,375.089 335.557,374.600 335.745 C 374.206 335.896,374.000 336.520,374.000 337.564 C 374.000 338.438,373.859 339.240,373.687 339.346 C 373.515 339.452,373.331 340.110,373.278 340.807 C 373.225 341.505,372.916 342.341,372.591 342.666 C 372.266 342.991,372.000 343.784,372.000 344.429 C 372.000 345.073,371.824 345.600,371.610 345.600 C 371.395 345.600,370.810 346.431,370.310 347.448 C 368.820 350.473,368.624 350.800,368.305 350.800 C 368.137 350.800,368.000 351.250,368.000 351.800 C 368.000 352.422,367.773 352.800,367.400 352.800 C 367.070 352.800,366.800 353.070,366.800 353.400 C 366.800 353.730,366.530 354.000,366.200 354.000 C 365.870 354.000,365.640 354.135,365.689 354.300 C 365.826 354.759,364.647 357.200,364.289 357.200 C 363.946 357.200,361.600 359.497,361.600 359.833 C 361.600 359.946,361.124 360.480,360.542 361.019 C 359.959 361.559,359.627 362.000,359.803 362.000 C 359.979 362.000,359.735 362.336,359.261 362.747 C 358.788 363.158,358.400 363.698,358.400 363.947 C 358.400 364.196,358.160 364.400,357.868 364.400 C 357.575 364.400,357.115 364.812,356.846 365.315 C 356.382 366.182,355.468 366.838,353.900 367.429 C 353.515 367.574,353.200 367.942,353.200 368.247 C 353.200 368.551,353.032 368.800,352.827 368.800 C 352.621 368.800,351.529 369.700,350.400 370.800 C 349.271 371.900,348.198 372.800,348.016 372.800 C 347.834 372.800,347.582 373.070,347.455 373.400 C 347.329 373.730,346.937 374.000,346.584 374.000 C 345.855 374.000,344.800 374.929,344.800 375.571 C 344.800 375.807,344.530 376.000,344.200 376.000 C 343.870 376.000,343.600 376.270,343.600 376.600 C 343.600 376.973,343.222 377.200,342.600 377.200 C 342.050 377.200,341.600 377.380,341.600 377.600 C 341.600 377.820,341.330 378.000,341.000 378.000 C 340.670 378.000,340.400 378.270,340.400 378.600 C 340.400 378.930,340.059 379.200,339.643 379.200 C 339.226 379.200,338.782 379.470,338.655 379.800 C 338.529 380.130,338.149 380.400,337.813 380.400 C 337.476 380.400,337.200 380.560,337.200 380.757 C 337.200 380.953,336.743 381.228,336.184 381.368 C 335.625 381.509,335.275 381.798,335.407 382.012 C 335.539 382.225,335.277 382.400,334.824 382.400 C 334.371 382.400,334.000 382.577,334.000 382.792 C 334.000 383.008,333.550 383.298,333.000 383.436 C 332.450 383.574,332.000 383.847,332.000 384.043 C 332.000 384.240,331.730 384.400,331.400 384.400 C 331.070 384.400,330.800 384.670,330.800 385.000 C 330.800 385.330,330.502 385.600,330.138 385.600 C 329.774 385.600,328.886 386.050,328.164 386.600 C 327.443 387.150,326.571 387.600,326.227 387.600 C 325.882 387.600,325.600 387.870,325.600 388.200 C 325.600 388.573,325.222 388.800,324.600 388.800 C 324.050 388.800,323.600 388.980,323.600 389.200 C 323.600 389.420,323.234 389.600,322.787 389.600 C 322.341 389.600,321.871 389.870,321.745 390.200 C 321.618 390.530,321.174 390.800,320.757 390.800 C 320.341 390.800,320.000 390.967,320.000 391.171 C 320.000 391.601,317.738 392.800,316.926 392.800 C 316.623 392.800,316.271 393.070,316.145 393.400 C 316.018 393.730,315.484 394.000,314.957 394.000 C 314.406 394.000,314.000 394.236,314.000 394.557 C 314.000 394.864,313.730 395.218,313.400 395.345 C 313.070 395.471,312.800 395.851,312.800 396.187 C 312.800 396.524,312.620 396.800,312.400 396.800 C 312.180 396.800,312.000 397.340,312.000 398.000 C 312.000 399.372,314.215 399.787,315.200 398.600 C 315.484 398.258,316.356 398.000,317.225 398.000 C 318.065 398.000,318.864 397.820,319.000 397.600 C 319.136 397.380,319.845 397.200,320.575 397.200 C 321.305 397.200,322.126 396.930,322.400 396.600 C 322.704 396.234,323.580 396.000,324.649 396.000 C 325.939 396.000,326.400 395.842,326.400 395.400 C 326.400 394.967,326.844 394.800,328.000 394.800 C 328.880 394.800,329.600 394.620,329.600 394.400 C 329.600 394.180,330.118 394.000,330.751 394.000 C 331.384 394.000,332.126 393.730,332.400 393.400 C 332.674 393.070,333.405 392.800,334.025 392.800 C 334.645 392.800,335.264 392.620,335.400 392.400 C 335.536 392.180,336.065 392.000,336.575 392.000 C 337.085 392.000,337.726 391.730,338.000 391.400 C 338.274 391.070,338.913 390.800,339.420 390.800 C 339.928 390.800,340.613 390.530,340.943 390.200 C 341.273 389.870,342.006 389.600,342.571 389.600 C 343.137 389.600,343.600 389.420,343.600 389.200 C 343.600 388.980,344.037 388.800,344.571 388.800 C 345.106 388.800,345.813 388.530,346.143 388.200 C 346.473 387.870,347.121 387.600,347.584 387.600 C 348.047 387.600,348.529 387.330,348.655 387.000 C 348.782 386.670,349.316 386.400,349.843 386.400 C 350.369 386.400,350.800 386.220,350.800 386.000 C 350.800 385.780,351.231 385.600,351.757 385.600 C 352.284 385.600,352.818 385.330,352.945 385.000 C 353.071 384.670,353.631 384.400,354.187 384.400 C 354.821 384.400,355.200 384.175,355.200 383.800 C 355.200 383.427,355.578 383.200,356.200 383.200 C 356.750 383.200,357.200 383.020,357.200 382.800 C 357.200 382.580,357.650 382.400,358.200 382.400 C 358.822 382.400,359.200 382.173,359.200 381.800 C 359.200 381.470,359.545 381.200,359.968 381.200 C 360.835 381.200,363.194 379.958,363.197 379.500 C 363.199 379.335,363.448 379.200,363.751 379.200 C 364.054 379.200,364.526 378.930,364.800 378.600 C 365.074 378.270,365.570 378.000,365.903 378.000 C 366.236 378.000,366.925 377.550,367.435 377.000 C 367.945 376.450,368.631 376.000,368.961 376.000 C 369.291 376.000,369.704 375.775,369.880 375.499 C 370.056 375.224,370.740 374.735,371.400 374.412 C 372.693 373.779,373.998 372.629,374.003 372.117 C 374.007 371.745,375.927 370.800,376.680 370.800 C 376.966 370.800,377.200 370.530,377.200 370.200 C 377.200 369.870,377.394 369.600,377.631 369.600 C 378.191 369.600,380.400 367.391,380.400 366.831 C 380.400 366.594,380.603 366.400,380.852 366.400 C 381.404 366.400,385.600 362.158,385.600 361.600 C 385.600 361.380,385.870 361.200,386.200 361.200 C 386.530 361.200,386.800 360.930,386.800 360.600 C 386.800 360.270,387.070 360.000,387.400 360.000 C 387.730 360.000,388.000 359.839,388.000 359.642 C 388.000 359.445,388.447 358.860,388.993 358.342 C 389.539 357.824,389.989 357.218,389.993 356.996 C 389.997 356.774,390.450 356.107,391.000 355.513 C 391.550 354.920,392.000 354.151,392.000 353.805 C 392.000 353.458,392.270 353.071,392.600 352.945 C 392.930 352.818,393.200 352.464,393.200 352.157 C 393.200 351.851,393.380 351.600,393.600 351.600 C 393.820 351.600,394.000 351.150,394.000 350.600 C 394.000 349.978,394.227 349.600,394.600 349.600 C 394.978 349.600,395.200 349.219,395.200 348.571 C 395.200 348.006,395.470 347.273,395.800 346.943 C 396.130 346.613,396.400 346.006,396.400 345.595 C 396.400 345.184,396.580 344.736,396.800 344.600 C 397.020 344.464,397.200 343.643,397.200 342.776 C 397.200 341.642,397.368 341.200,397.800 341.200 C 398.259 341.200,398.400 340.694,398.400 339.043 C 398.400 337.494,398.569 336.821,399.000 336.655 C 399.496 336.465,399.600 335.391,399.600 330.441 C 399.600 325.655,399.480 324.337,399.000 323.857 C 398.624 323.482,398.400 322.498,398.400 321.229 C 398.400 319.692,398.254 319.200,397.800 319.200 C 397.383 319.200,397.200 318.780,397.200 317.824 C 397.200 317.067,397.020 316.336,396.800 316.200 C 396.580 316.064,396.400 315.598,396.400 315.164 C 396.400 314.730,396.130 314.271,395.800 314.145 C 395.470 314.018,395.197 313.529,395.193 313.057 C 395.189 312.586,394.751 311.787,394.219 311.283 C 393.686 310.778,393.190 309.968,393.116 309.483 C 393.042 308.997,392.760 308.645,392.491 308.700 C 392.221 308.755,392.000 308.596,392.000 308.346 C 392.000 308.096,391.550 307.475,391.000 306.965 C 390.450 306.455,390.000 305.850,390.000 305.619 C 390.000 305.389,389.814 305.200,389.587 305.200 C 389.069 305.200,386.800 302.909,386.800 302.386 C 386.800 302.174,386.570 302.000,386.288 302.000 C 386.007 302.000,385.512 301.629,385.188 301.175 C 384.865 300.721,383.970 300.056,383.200 299.697 C 382.430 299.337,381.656 298.808,381.480 298.522 C 381.304 298.235,380.809 298.000,380.380 298.000 C 379.951 298.000,379.600 297.833,379.600 297.629 C 379.600 297.103,377.256 296.000,376.139 296.000 C 375.571 296.000,375.200 295.763,375.200 295.400 C 375.200 295.060,374.841 294.800,374.371 294.800 C 373.916 294.800,373.273 294.530,372.943 294.200 C 372.613 293.870,371.826 293.600,371.195 293.600 C 370.564 293.600,369.936 293.420,369.800 293.200 C 369.664 292.980,368.741 292.800,367.748 292.800 C 366.677 292.800,365.699 292.556,365.343 292.200 C 364.895 291.752,363.793 291.600,360.995 291.600 C 358.928 291.600,357.136 291.421,357.000 291.200 C 356.864 290.980,355.604 290.800,354.200 290.800 C 352.796 290.800,351.536 290.980,351.400 291.200 M127.000 296.400 C 126.858 296.630,124.681 296.805,121.876 296.813 C 118.224 296.822,116.805 296.973,116.224 297.413 C 115.708 297.803,114.481 298.000,112.573 298.000 C 110.505 298.000,109.558 298.169,109.200 298.600 C 108.846 299.026,107.911 299.200,105.975 299.200 C 104.475 299.200,103.136 299.380,103.000 299.600 C 102.864 299.820,101.898 300.000,100.853 300.000 C 99.802 300.000,98.606 300.262,98.176 300.587 C 97.749 300.910,96.646 301.180,95.724 301.187 C 94.802 301.194,93.936 301.380,93.800 301.600 C 93.664 301.820,92.856 302.000,92.005 302.000 C 91.154 302.000,90.187 302.270,89.857 302.600 C 89.526 302.932,88.548 303.200,87.671 303.200 C 86.631 303.200,86.006 303.406,85.855 303.800 C 85.703 304.196,85.077 304.400,84.013 304.400 C 83.126 304.400,82.400 304.580,82.400 304.800 C 82.400 305.020,81.792 305.200,81.049 305.200 C 80.306 305.200,79.474 305.470,79.200 305.800 C 78.926 306.130,78.113 306.400,77.394 306.400 C 76.600 306.400,75.995 306.636,75.855 307.000 C 75.721 307.351,75.121 307.600,74.413 307.600 C 73.746 307.600,73.200 307.780,73.200 308.000 C 73.200 308.220,72.570 308.400,71.800 308.400 C 70.822 308.400,70.400 308.581,70.400 309.000 C 70.400 309.397,70.003 309.600,69.229 309.600 C 68.584 309.600,67.787 309.870,67.457 310.200 C 67.127 310.530,66.394 310.800,65.829 310.800 C 65.263 310.800,64.800 310.980,64.800 311.200 C 64.800 311.420,64.455 311.600,64.033 311.600 C 62.901 311.600,61.973 312.033,62.226 312.442 C 62.348 312.639,61.807 312.800,61.024 312.800 C 60.241 312.800,59.600 312.960,59.600 313.157 C 59.600 313.353,59.150 313.626,58.600 313.764 C 58.050 313.902,57.600 314.192,57.600 314.408 C 57.600 314.623,57.150 314.800,56.600 314.800 C 55.978 314.800,55.600 315.027,55.600 315.400 C 55.600 315.800,55.200 316.000,54.400 316.000 C 53.740 316.000,53.200 316.180,53.200 316.400 C 53.200 316.620,52.834 316.800,52.387 316.800 C 51.941 316.800,51.471 317.070,51.345 317.400 C 51.218 317.730,50.783 318.000,50.377 318.000 C 49.972 318.000,49.496 318.225,49.320 318.501 C 49.144 318.776,48.470 319.271,47.821 319.601 C 45.458 320.802,44.000 322.700,44.000 324.574 C 44.000 325.143,43.771 325.600,43.486 325.600 C 43.203 325.600,42.971 325.960,42.971 326.400 C 42.971 326.840,43.203 327.200,43.486 327.200 C 43.790 327.200,44.000 327.689,44.000 328.400 C 44.000 329.060,44.180 329.600,44.400 329.600 C 44.620 329.600,44.800 329.864,44.800 330.186 C 44.800 330.508,45.205 330.984,45.700 331.244 C 46.195 331.504,46.744 331.961,46.920 332.258 C 47.096 332.556,47.486 332.800,47.787 332.800 C 48.087 332.800,48.393 332.978,48.467 333.195 C 48.540 333.412,49.555 333.926,50.722 334.337 C 51.889 334.748,53.050 335.290,53.302 335.542 C 53.554 335.794,54.354 336.000,55.080 336.000 C 55.806 336.000,56.400 336.180,56.400 336.400 C 56.400 336.620,57.101 336.800,57.957 336.800 C 58.972 336.800,59.595 337.009,59.745 337.400 C 59.903 337.813,60.548 338.000,61.816 338.000 C 62.919 338.000,63.898 338.240,64.257 338.600 C 64.643 338.986,65.632 339.200,67.029 339.200 C 68.223 339.200,69.200 339.380,69.200 339.600 C 69.200 339.831,70.471 340.000,72.213 340.000 C 74.521 340.000,75.279 340.140,75.455 340.600 C 75.636 341.071,76.446 341.200,79.209 341.200 C 81.673 341.200,82.783 341.350,82.900 341.700 C 83.014 342.042,84.316 342.242,87.033 342.335 C 89.215 342.409,91.171 342.634,91.380 342.835 C 91.589 343.036,94.250 343.200,97.293 343.200 C 101.841 343.200,102.866 343.307,103.055 343.800 C 103.250 344.307,104.579 344.400,111.609 344.400 C 117.913 344.400,119.974 344.521,120.100 344.900 C 120.232 345.295,127.192 345.400,153.113 345.400 C 178.857 345.400,186.068 345.292,186.460 344.900 C 186.831 344.529,189.308 344.400,196.031 344.400 C 203.606 344.400,205.184 344.301,205.600 343.800 C 206.004 343.313,207.292 343.200,212.449 343.200 C 216.416 343.200,218.800 343.050,218.800 342.800 C 218.800 342.556,220.635 342.399,223.500 342.398 C 226.887 342.396,228.520 342.228,229.346 341.798 C 230.138 341.384,231.719 341.200,234.474 341.200 C 237.481 341.200,238.604 341.053,239.057 340.600 C 239.500 340.157,240.585 340.000,243.205 340.000 C 245.156 340.000,246.864 339.820,247.000 339.600 C 247.136 339.380,248.655 339.200,250.375 339.200 C 252.667 339.200,253.635 339.040,254.000 338.600 C 254.366 338.159,255.337 338.000,257.662 338.000 C 260.105 338.000,260.878 337.863,261.055 337.400 C 261.227 336.953,261.939 336.800,263.843 336.800 C 265.281 336.800,266.400 336.625,266.400 336.400 C 266.400 336.172,267.590 336.000,269.171 336.000 C 271.102 336.000,272.125 335.818,272.543 335.400 C 272.917 335.026,273.899 334.800,275.148 334.800 C 276.251 334.800,277.264 334.620,277.400 334.400 C 277.536 334.180,278.524 334.000,279.595 334.000 C 280.793 334.000,281.774 333.769,282.143 333.400 C 282.497 333.046,283.475 332.800,284.529 332.800 C 285.747 332.800,286.388 332.609,286.545 332.200 C 286.707 331.777,287.368 331.600,288.787 331.600 C 289.894 331.600,290.800 331.420,290.800 331.200 C 290.800 330.980,291.166 330.800,291.613 330.800 C 292.059 330.800,292.522 330.546,292.641 330.236 C 292.761 329.926,293.295 329.563,293.829 329.428 C 294.363 329.294,294.800 329.008,294.800 328.792 C 294.800 328.577,295.070 328.400,295.400 328.400 C 295.730 328.400,296.000 328.220,296.000 328.000 C 296.000 327.780,296.366 327.600,296.813 327.600 C 297.259 327.600,297.729 327.330,297.855 327.000 C 297.982 326.670,298.516 326.400,299.043 326.400 C 299.627 326.400,300.000 326.166,300.000 325.800 C 300.000 325.427,300.378 325.200,301.000 325.200 C 301.550 325.200,302.000 325.020,302.000 324.800 C 302.000 324.580,302.276 324.400,302.613 324.400 C 302.949 324.400,303.329 324.130,303.455 323.800 C 303.582 323.470,304.116 323.200,304.643 323.200 C 305.169 323.200,305.600 323.020,305.600 322.800 C 305.600 322.580,305.938 322.400,306.351 322.400 C 306.764 322.400,307.326 322.130,307.600 321.800 C 307.874 321.470,308.417 321.200,308.806 321.200 C 309.196 321.200,309.618 320.930,309.745 320.600 C 309.871 320.270,310.403 320.000,310.926 320.000 C 312.949 320.000,316.284 317.718,315.864 316.622 C 315.602 315.939,311.830 315.705,311.433 316.347 C 311.315 316.538,309.828 316.783,308.128 316.892 C 306.340 317.007,304.973 317.282,304.885 317.545 C 304.791 317.826,303.685 318.000,301.995 318.000 C 300.095 318.000,299.074 318.184,298.657 318.600 C 298.231 319.026,297.191 319.200,295.062 319.200 C 293.415 319.200,292.007 319.371,291.933 319.579 C 291.860 319.788,290.227 319.992,288.304 320.034 C 285.916 320.085,284.664 320.282,284.355 320.654 C 284.038 321.036,282.894 321.200,280.551 321.200 C 277.839 321.200,277.200 321.314,277.200 321.800 C 277.200 322.295,276.467 322.400,273.000 322.400 C 270.467 322.400,268.800 322.559,268.800 322.800 C 268.800 323.038,267.276 323.200,265.029 323.200 C 262.210 323.200,261.106 323.352,260.657 323.800 C 260.197 324.260,259.041 324.400,255.709 324.400 C 253.317 324.400,251.189 324.561,250.980 324.758 C 250.771 324.955,248.382 325.190,245.671 325.281 C 242.560 325.385,240.638 325.615,240.459 325.905 C 240.269 326.211,238.285 326.383,234.504 326.422 C 230.182 326.465,228.722 326.612,228.367 327.039 C 228.001 327.481,226.425 327.600,220.951 327.600 C 216.584 327.600,214.000 327.749,214.000 328.000 C 214.000 328.254,210.936 328.400,205.608 328.400 C 199.140 328.400,196.870 328.536,195.708 328.993 C 194.492 329.471,191.219 329.611,178.800 329.719 C 163.912 329.848,162.345 329.922,161.745 330.522 C 161.142 331.125,140.249 330.812,139.424 330.187 C 138.785 329.704,136.658 329.598,127.424 329.587 C 118.189 329.577,116.062 329.470,115.424 328.987 C 114.843 328.548,113.460 328.400,109.947 328.400 C 107.245 328.400,105.142 328.230,105.000 328.000 C 104.864 327.780,103.435 327.600,101.825 327.600 C 99.711 327.600,98.760 327.433,98.400 327.000 C 98.080 326.615,97.194 326.400,95.922 326.400 C 94.696 326.400,93.715 326.172,93.343 325.800 C 93.013 325.470,92.126 325.200,91.371 325.200 C 90.617 325.200,90.000 325.020,90.000 324.800 C 90.000 324.580,89.479 324.400,88.843 324.400 C 88.183 324.400,87.587 324.142,87.455 323.800 C 87.329 323.470,86.949 323.200,86.613 323.200 C 86.276 323.200,86.000 323.020,86.000 322.800 C 86.000 322.580,85.730 322.400,85.400 322.400 C 85.070 322.400,84.800 322.130,84.800 321.800 C 84.800 321.470,84.620 321.200,84.400 321.200 C 84.180 321.200,84.000 320.930,84.000 320.600 C 84.000 320.270,84.180 320.000,84.400 320.000 C 84.620 320.000,84.800 319.760,84.800 319.466 C 84.800 318.869,86.970 316.800,87.597 316.800 C 87.818 316.800,88.000 316.640,88.000 316.443 C 88.000 316.247,88.450 315.974,89.000 315.836 C 89.550 315.698,90.000 315.408,90.000 315.192 C 90.000 314.977,90.251 314.800,90.557 314.800 C 90.864 314.800,91.218 314.530,91.345 314.200 C 91.471 313.870,91.930 313.600,92.364 313.600 C 92.798 313.600,93.264 313.420,93.400 313.200 C 93.536 312.980,93.975 312.800,94.375 312.800 C 94.775 312.800,95.326 312.530,95.600 312.200 C 95.874 311.870,96.616 311.600,97.249 311.600 C 97.882 311.600,98.400 311.420,98.400 311.200 C 98.400 310.980,98.747 310.800,99.171 310.800 C 99.596 310.800,100.213 310.530,100.543 310.200 C 100.873 309.870,101.584 309.600,102.122 309.600 C 102.661 309.600,103.310 309.350,103.564 309.044 C 104.003 308.515,104.396 308.388,107.532 307.765 C 108.264 307.619,108.958 307.252,109.075 306.950 C 109.204 306.614,109.891 306.400,110.843 306.400 C 111.960 306.400,112.400 306.231,112.400 305.800 C 112.400 305.357,112.864 305.200,114.176 305.200 C 115.153 305.200,116.064 305.020,116.200 304.800 C 116.336 304.580,116.964 304.400,117.595 304.400 C 118.226 304.400,119.013 304.130,119.343 303.800 C 119.673 303.470,120.564 303.200,121.322 303.200 C 122.081 303.200,122.926 302.930,123.200 302.600 C 123.484 302.258,124.356 302.000,125.225 302.000 C 126.065 302.000,126.864 301.820,127.000 301.600 C 127.136 301.380,127.872 301.200,128.636 301.200 C 129.502 301.200,130.112 300.974,130.255 300.600 C 130.416 300.181,131.069 300.000,132.419 300.000 C 133.483 300.000,134.464 299.820,134.600 299.600 C 134.736 299.380,135.517 299.200,136.335 299.200 C 138.211 299.200,139.600 298.254,139.600 296.977 L 139.600 296.000 133.424 296.000 C 129.737 296.000,127.148 296.161,127.000 296.400 M114.800 357.600 C 114.800 357.820,114.337 358.000,113.771 358.000 C 113.206 358.000,112.473 358.270,112.143 358.600 C 111.813 358.930,111.016 359.200,110.371 359.200 C 109.727 359.200,109.200 359.357,109.200 359.549 C 109.200 359.741,108.480 360.013,107.600 360.154 C 106.720 360.294,106.000 360.587,106.000 360.805 C 106.000 361.022,105.550 361.200,105.000 361.200 C 104.378 361.200,104.000 361.427,104.000 361.800 C 104.000 362.173,103.622 362.400,103.000 362.400 C 102.450 362.400,102.000 362.580,102.000 362.800 C 102.000 363.020,101.544 363.200,100.987 363.200 C 100.431 363.200,99.871 363.470,99.745 363.800 C 99.618 364.130,99.168 364.400,98.745 364.400 C 98.321 364.400,97.871 364.670,97.745 365.000 C 97.618 365.330,97.166 365.600,96.740 365.600 C 96.314 365.600,95.480 366.050,94.887 366.600 C 94.293 367.150,93.576 367.600,93.292 367.600 C 93.007 367.600,92.671 367.870,92.545 368.200 C 92.418 368.530,92.141 368.800,91.929 368.800 C 91.410 368.800,90.400 369.838,90.400 370.371 C 90.400 370.607,90.226 370.800,90.014 370.800 C 89.195 370.800,87.200 373.201,87.200 374.187 C 87.200 374.772,86.971 375.200,86.658 375.200 C 86.258 375.200,86.096 375.983,86.037 378.200 C 85.972 380.679,86.066 381.200,86.579 381.200 C 86.975 381.200,87.200 381.563,87.200 382.200 C 87.200 382.750,87.380 383.200,87.600 383.200 C 87.820 383.200,88.000 383.470,88.000 383.800 C 88.000 384.130,88.184 384.400,88.409 384.400 C 88.633 384.400,89.022 384.850,89.273 385.400 C 89.523 385.950,89.925 386.403,90.164 386.406 C 90.404 386.410,91.209 386.950,91.954 387.606 C 92.699 388.263,93.554 388.800,93.854 388.800 C 94.154 388.800,94.400 388.980,94.400 389.200 C 94.400 389.420,94.790 389.600,95.267 389.600 C 95.743 389.600,96.024 389.710,95.890 389.844 C 95.557 390.176,99.051 392.000,100.021 392.000 C 100.450 392.000,100.800 392.180,100.800 392.400 C 100.800 392.620,101.321 392.800,101.957 392.800 C 102.617 392.800,103.213 393.058,103.345 393.400 C 103.478 393.747,104.076 394.000,104.764 394.000 C 105.418 394.000,106.064 394.180,106.200 394.400 C 106.336 394.620,107.337 394.800,108.424 394.800 C 109.914 394.800,110.400 394.948,110.400 395.400 C 110.400 395.824,110.839 396.004,111.900 396.013 C 112.725 396.020,113.749 396.290,114.176 396.613 C 114.604 396.936,115.718 397.200,116.653 397.200 C 117.588 397.200,118.464 397.380,118.600 397.600 C 118.736 397.820,119.922 398.000,121.236 398.000 C 122.991 398.000,123.686 398.159,123.855 398.600 C 124.026 399.045,124.734 399.200,126.597 399.200 C 128.047 399.200,129.593 399.453,130.254 399.798 C 130.979 400.176,132.530 400.396,134.476 400.398 C 136.168 400.399,137.664 400.580,137.800 400.800 C 137.942 401.029,140.014 401.200,142.652 401.200 C 146.212 401.200,147.393 401.336,147.857 401.800 C 148.353 402.296,149.939 402.400,156.995 402.400 C 163.364 402.400,165.575 402.524,165.696 402.889 C 165.934 403.603,186.121 403.847,189.400 403.175 C 190.720 402.904,196.066 402.574,201.281 402.442 C 208.055 402.269,210.904 402.057,211.261 401.700 C 211.612 401.348,213.392 401.200,217.256 401.200 C 220.489 401.200,222.855 401.035,223.000 400.800 C 223.136 400.580,224.912 400.400,226.947 400.400 C 229.581 400.400,230.871 400.231,231.424 399.813 C 231.973 399.397,233.284 399.222,235.913 399.213 C 238.835 399.203,239.674 399.072,239.855 398.600 C 240.035 398.133,240.825 398.000,243.419 398.000 C 245.253 398.000,246.864 397.820,247.000 397.600 C 247.136 397.380,248.412 397.200,249.836 397.200 C 251.768 397.200,252.484 397.048,252.655 396.600 C 252.831 396.141,253.585 396.000,255.855 396.000 C 258.126 396.000,258.879 395.859,259.055 395.400 C 259.224 394.962,259.914 394.800,261.619 394.800 C 262.903 394.800,264.064 394.620,264.200 394.400 C 264.336 394.180,265.302 394.000,266.347 394.000 C 267.398 394.000,268.594 393.738,269.024 393.413 C 269.451 393.090,270.644 392.820,271.676 392.813 C 272.708 392.806,273.664 392.620,273.800 392.400 C 273.936 392.180,274.825 392.000,275.775 392.000 C 276.822 392.000,277.698 391.764,278.000 391.400 C 278.316 391.019,279.200 390.800,280.420 390.800 C 281.596 390.800,282.576 390.567,282.943 390.200 C 283.273 389.870,284.175 389.600,284.948 389.600 C 285.721 389.600,286.464 389.420,286.600 389.200 C 286.736 388.980,287.432 388.800,288.147 388.800 C 288.862 388.800,289.796 388.536,290.224 388.213 C 290.651 387.890,291.639 387.620,292.420 387.613 C 293.201 387.606,294.056 387.384,294.320 387.120 C 294.984 386.456,294.938 384.400,294.260 384.400 C 293.962 384.400,292.873 383.950,291.838 383.400 C 290.804 382.850,289.607 382.400,289.179 382.400 C 288.750 382.400,288.400 382.130,288.400 381.800 C 288.400 381.427,288.022 381.200,287.400 381.200 C 286.850 381.200,286.400 381.020,286.400 380.800 C 286.400 380.580,285.950 380.400,285.400 380.400 C 284.778 380.400,284.400 380.173,284.400 379.800 C 284.400 379.470,284.130 379.200,283.800 379.200 C 283.470 379.200,283.200 379.040,283.200 378.843 C 283.200 378.647,282.750 378.374,282.200 378.236 C 281.650 378.098,281.200 377.808,281.200 377.592 C 281.200 377.377,280.924 377.200,280.587 377.200 C 280.251 377.200,279.871 376.930,279.745 376.600 C 279.618 376.270,279.174 376.000,278.757 376.000 C 278.341 376.000,278.000 375.730,278.000 375.400 C 278.000 375.070,277.815 374.800,277.589 374.800 C 277.363 374.800,276.543 374.221,275.765 373.514 C 273.404 371.365,267.944 370.696,266.288 372.352 C 266.042 372.598,264.700 372.800,263.307 372.800 C 261.425 372.800,260.716 372.954,260.545 373.400 C 260.369 373.858,259.619 374.000,257.381 374.000 C 255.767 374.000,254.336 374.180,254.200 374.400 C 254.064 374.620,252.716 374.800,251.205 374.800 C 249.296 374.800,248.274 374.983,247.857 375.400 C 247.430 375.827,246.390 376.000,244.257 376.000 C 242.124 376.000,241.084 376.173,240.657 376.600 C 240.219 377.038,239.152 377.200,236.709 377.200 C 234.867 377.200,233.189 377.370,232.980 377.579 C 232.771 377.787,230.848 377.990,228.707 378.030 C 225.967 378.080,224.679 378.264,224.358 378.651 C 224.017 379.062,222.667 379.200,218.994 379.200 C 215.000 379.200,214.043 379.312,213.855 379.800 C 213.662 380.305,212.391 380.400,205.836 380.400 C 201.075 380.400,197.951 380.555,197.800 380.800 C 197.641 381.057,191.337 381.200,180.200 381.200 C 169.063 381.200,162.759 381.057,162.600 380.800 C 162.448 380.554,159.192 380.400,154.164 380.400 C 147.254 380.400,145.939 380.306,145.745 379.800 C 145.556 379.308,144.531 379.198,140.057 379.187 C 136.120 379.178,134.402 379.025,133.891 378.636 C 133.420 378.280,131.803 378.075,129.091 378.028 C 126.841 377.990,124.829 377.788,124.620 377.579 C 124.411 377.371,123.215 377.200,121.963 377.200 C 120.308 377.200,119.623 377.036,119.455 376.600 C 119.311 376.223,118.699 376.000,117.813 376.000 C 117.036 376.000,116.400 375.832,116.400 375.627 C 116.400 375.422,115.995 375.136,115.500 374.991 C 113.593 374.435,112.400 373.785,112.400 373.302 C 112.400 373.026,112.207 372.800,111.971 372.800 C 111.273 372.800,110.400 371.718,110.400 370.852 C 110.400 370.409,110.220 369.936,109.999 369.799 C 109.731 369.634,109.731 369.303,109.999 368.802 C 110.220 368.390,110.400 367.681,110.400 367.226 C 110.400 366.772,110.580 366.400,110.800 366.400 C 111.020 366.400,111.200 365.950,111.200 365.400 C 111.200 364.778,111.427 364.400,111.800 364.400 C 112.130 364.400,112.400 364.234,112.400 364.031 C 112.400 363.550,114.750 361.200,115.231 361.200 C 115.434 361.200,115.600 360.930,115.600 360.600 C 115.600 360.270,115.786 360.000,116.013 360.000 C 116.651 360.000,117.169 358.276,116.705 357.700 C 116.225 357.104,114.800 357.030,114.800 357.600 M127.600 416.800 C 127.270 417.013,126.415 417.191,125.700 417.194 C 124.985 417.197,124.400 417.380,124.400 417.600 C 124.400 417.820,123.995 418.001,123.500 418.002 C 123.005 418.004,122.084 418.274,121.454 418.602 C 120.824 418.931,119.982 419.200,119.583 419.200 C 119.184 419.200,118.587 419.470,118.257 419.800 C 117.927 420.130,117.295 420.400,116.852 420.400 C 116.409 420.400,115.936 420.580,115.800 420.800 C 115.664 421.020,115.198 421.200,114.764 421.200 C 114.330 421.200,113.871 421.470,113.745 421.800 C 113.618 422.130,113.078 422.400,112.545 422.400 C 112.011 422.400,111.471 422.670,111.345 423.000 C 111.218 423.330,110.856 423.600,110.540 423.600 C 110.224 423.600,109.480 424.050,108.887 424.600 C 108.293 425.150,107.612 425.600,107.372 425.600 C 107.132 425.600,106.694 426.050,106.400 426.600 C 106.106 427.150,105.715 427.600,105.532 427.600 C 105.350 427.600,105.200 427.870,105.200 428.200 C 105.200 428.530,104.930 428.800,104.600 428.800 C 104.270 428.800,104.000 429.070,104.000 429.400 C 104.000 429.730,103.730 430.000,103.400 430.000 C 103.031 430.000,102.800 430.375,102.800 430.976 C 102.800 431.513,102.651 432.045,102.469 432.157 C 101.992 432.452,101.881 436.879,102.344 437.165 C 102.558 437.298,102.801 438.001,102.884 438.729 C 102.968 439.456,103.214 440.175,103.431 440.326 C 103.649 440.476,104.518 441.455,105.362 442.500 C 106.206 443.545,107.040 444.400,107.216 444.400 C 107.391 444.400,108.284 445.120,109.200 446.000 C 110.116 446.880,111.191 447.600,111.590 447.600 C 111.988 447.600,112.418 447.870,112.545 448.200 C 112.671 448.530,113.119 448.800,113.538 448.800 C 113.958 448.800,114.526 449.070,114.800 449.400 C 115.074 449.730,115.636 450.000,116.049 450.000 C 116.462 450.000,116.800 450.180,116.800 450.400 C 116.800 450.620,117.231 450.800,117.757 450.800 C 118.284 450.800,118.818 451.070,118.945 451.400 C 119.071 451.730,119.631 452.000,120.187 452.000 C 120.744 452.000,121.200 452.180,121.200 452.400 C 121.200 452.620,121.335 452.779,121.500 452.753 C 122.745 452.556,124.000 452.881,124.000 453.400 C 124.000 453.821,124.425 454.000,125.429 454.000 C 126.214 454.000,127.127 454.270,127.457 454.600 C 127.787 454.930,128.674 455.200,129.429 455.200 C 130.183 455.200,130.800 455.380,130.800 455.600 C 130.800 455.820,131.616 456.000,132.613 456.000 C 133.855 456.000,134.498 456.189,134.655 456.600 C 134.816 457.018,135.468 457.200,136.809 457.200 C 137.881 457.200,138.800 457.400,138.884 457.651 C 138.966 457.899,139.975 458.192,141.125 458.302 C 142.276 458.413,143.314 458.660,143.432 458.852 C 143.550 459.043,144.875 459.200,146.375 459.200 C 148.311 459.200,149.246 459.374,149.600 459.800 C 149.969 460.245,150.955 460.400,153.416 460.400 C 155.715 460.400,156.784 460.554,156.899 460.900 C 157.254 461.971,210.528 463.047,212.600 462.025 C 213.040 461.808,215.455 461.579,217.967 461.515 C 221.180 461.434,222.584 461.252,222.700 460.900 C 222.816 460.554,223.885 460.400,226.184 460.400 C 228.645 460.400,229.631 460.245,230.000 459.800 C 230.360 459.367,231.311 459.200,233.425 459.200 C 235.035 459.200,236.451 459.042,236.570 458.849 C 236.689 458.655,237.905 458.416,239.271 458.317 C 240.666 458.217,241.823 457.932,241.910 457.669 C 242.004 457.389,242.921 457.200,244.184 457.200 C 245.579 457.200,246.472 456.995,246.800 456.600 C 247.117 456.219,248.000 456.000,249.225 456.000 C 250.285 456.000,251.264 455.820,251.400 455.600 C 251.536 455.380,252.425 455.200,253.375 455.200 C 254.422 455.200,255.298 454.964,255.600 454.600 C 255.882 454.261,256.754 454.000,257.606 454.000 C 258.578 454.000,259.196 453.787,259.345 453.400 C 259.496 453.006,260.120 452.800,261.164 452.800 C 262.038 452.800,262.864 452.620,263.000 452.400 C 263.136 452.180,263.957 452.000,264.824 452.000 C 265.958 452.000,266.400 451.832,266.400 451.400 C 266.400 450.967,266.844 450.800,268.000 450.800 C 268.880 450.800,269.600 450.643,269.600 450.451 C 269.600 450.259,270.320 449.987,271.200 449.846 C 272.080 449.706,272.800 449.413,272.800 449.195 C 272.800 448.978,273.436 448.800,274.213 448.800 C 275.099 448.800,275.711 448.577,275.855 448.200 C 275.982 447.870,276.506 447.600,277.019 447.600 C 277.533 447.600,278.064 447.420,278.200 447.200 C 278.336 446.980,278.874 446.800,279.395 446.800 C 279.916 446.800,280.613 446.530,280.943 446.200 C 281.273 445.870,281.896 445.600,282.329 445.600 C 282.761 445.600,283.218 445.330,283.345 445.000 C 283.471 444.670,284.016 444.400,284.554 444.400 C 286.613 444.400,285.920 441.824,283.752 441.417 C 283.008 441.278,282.400 440.992,282.400 440.782 C 282.400 440.572,281.860 440.400,281.200 440.400 C 280.491 440.400,280.000 440.190,280.000 439.887 C 280.000 439.605,279.513 439.334,278.918 439.285 C 278.322 439.236,277.656 439.016,277.438 438.798 C 277.219 438.579,276.645 438.400,276.163 438.400 C 275.680 438.400,275.182 438.130,275.055 437.800 C 274.929 437.470,274.389 437.200,273.855 437.200 C 273.322 437.200,272.782 436.930,272.655 436.600 C 272.529 436.270,272.059 436.000,271.613 436.000 C 271.166 436.000,270.800 435.820,270.800 435.600 C 270.800 435.380,270.344 435.200,269.787 435.200 C 269.231 435.200,268.671 434.930,268.545 434.600 C 268.418 434.270,267.903 434.000,267.400 434.000 C 266.897 434.000,266.382 433.730,266.255 433.400 C 266.129 433.070,265.659 432.800,265.213 432.800 C 264.766 432.800,264.400 432.620,264.400 432.400 C 264.400 432.180,264.051 432.000,263.624 432.000 C 263.197 432.000,262.743 431.831,262.615 431.624 C 262.487 431.416,261.576 430.845,260.591 430.353 C 259.606 429.861,258.800 429.310,258.800 429.129 C 258.800 428.948,258.369 428.800,257.843 428.800 C 257.316 428.800,256.782 428.530,256.655 428.200 C 256.494 427.779,255.838 427.600,254.462 427.600 C 253.204 427.600,252.319 427.816,252.000 428.200 C 251.662 428.608,250.755 428.800,249.175 428.800 C 247.895 428.800,246.751 428.955,246.634 429.146 C 246.516 429.336,245.143 429.582,243.581 429.694 C 242.020 429.806,240.540 430.100,240.291 430.349 C 240.043 430.597,238.650 430.800,237.196 430.800 C 235.491 430.800,234.277 431.008,233.776 431.387 C 233.253 431.783,231.990 431.979,229.900 431.987 C 228.108 431.995,226.800 432.169,226.800 432.400 C 226.800 432.637,225.350 432.800,223.249 432.800 C 220.580 432.800,219.574 432.949,219.200 433.400 C 218.809 433.871,217.689 434.000,213.980 434.000 C 210.315 434.000,209.123 434.134,208.657 434.600 C 207.786 435.471,167.154 435.509,166.433 434.639 C 166.078 434.212,164.618 434.065,160.296 434.022 C 156.357 433.982,154.534 433.817,154.327 433.482 C 154.129 433.161,152.360 432.953,149.015 432.859 C 146.257 432.781,144.000 432.556,144.000 432.359 C 144.000 432.161,142.582 432.000,140.849 432.000 C 138.536 432.000,137.566 431.840,137.200 431.400 C 136.900 431.038,136.025 430.800,134.997 430.800 C 134.059 430.800,132.776 430.531,132.146 430.202 C 131.516 429.874,130.696 429.604,130.324 429.602 C 129.952 429.601,129.536 429.420,129.400 429.200 C 129.264 428.980,128.713 428.800,128.176 428.800 C 127.575 428.800,127.200 428.569,127.200 428.200 C 127.200 427.870,127.006 427.600,126.769 427.600 C 125.044 427.600,123.557 424.474,124.700 423.251 C 125.085 422.838,126.077 421.758,126.905 420.851 C 127.733 419.943,128.567 419.200,128.758 419.200 C 129.153 419.200,129.626 417.166,129.340 416.702 C 129.085 416.290,128.323 416.333,127.600 416.800 M69.200 455.580 C 69.200 455.847,67.619 456.000,64.849 456.000 C 61.469 456.000,60.387 456.134,60.000 456.600 C 59.647 457.025,58.714 457.200,56.800 457.200 C 54.886 457.200,53.953 457.375,53.600 457.800 C 53.282 458.183,52.397 458.400,51.151 458.400 C 50.078 458.400,49.200 458.580,49.200 458.800 C 49.200 459.020,48.294 459.200,47.187 459.200 C 45.768 459.200,45.107 459.377,44.945 459.800 C 44.790 460.204,44.155 460.400,43.000 460.400 C 41.845 460.400,41.210 460.596,41.055 461.000 C 40.904 461.393,40.281 461.600,39.246 461.600 C 38.377 461.600,37.607 461.774,37.533 461.987 C 37.460 462.200,36.794 462.420,36.053 462.476 C 35.313 462.532,34.619 462.807,34.511 463.089 C 34.403 463.370,33.839 463.606,33.257 463.613 C 32.676 463.620,31.851 463.890,31.424 464.213 C 30.996 464.536,30.321 464.800,29.924 464.800 C 29.526 464.800,29.200 464.980,29.200 465.200 C 29.200 465.420,28.673 465.600,28.029 465.600 C 27.384 465.600,26.587 465.870,26.257 466.200 C 25.927 466.530,25.295 466.800,24.852 466.800 C 24.409 466.800,23.936 466.980,23.800 467.200 C 23.664 467.420,23.198 467.600,22.764 467.600 C 22.330 467.600,21.871 467.870,21.745 468.200 C 21.618 468.530,21.103 468.800,20.600 468.800 C 20.097 468.800,19.582 469.070,19.455 469.400 C 19.329 469.730,18.859 470.000,18.413 470.000 C 17.966 470.000,17.600 470.180,17.600 470.400 C 17.600 470.620,17.144 470.800,16.587 470.800 C 16.031 470.800,15.471 471.070,15.345 471.400 C 15.218 471.730,14.783 472.000,14.377 472.000 C 13.972 472.000,13.496 472.225,13.320 472.500 C 12.901 473.155,11.372 474.000,10.605 474.000 C 10.272 474.000,10.000 474.270,10.000 474.600 C 10.000 474.930,9.685 475.203,9.300 475.207 C 8.915 475.211,8.176 475.661,7.658 476.207 C 7.140 476.753,6.555 477.200,6.358 477.200 C 6.161 477.200,6.000 477.470,6.000 477.800 C 6.000 478.130,5.806 478.400,5.569 478.400 C 5.009 478.400,2.800 480.609,2.800 481.169 C 2.800 481.406,2.530 481.600,2.200 481.600 C 1.827 481.600,1.600 481.978,1.600 482.600 C 1.600 483.180,1.370 483.600,1.052 483.600 C -0.173 483.600,-0.169 491.407,1.057 491.877 C 1.355 491.992,1.600 492.516,1.600 493.043 C 1.600 493.594,1.836 494.000,2.157 494.000 C 2.464 494.000,2.818 494.270,2.945 494.600 C 3.071 494.930,3.407 495.200,3.692 495.200 C 3.976 495.200,4.693 495.650,5.287 496.200 C 5.880 496.750,6.714 497.200,7.140 497.200 C 7.566 497.200,8.018 497.470,8.145 497.800 C 8.271 498.130,8.831 498.400,9.387 498.400 C 9.944 498.400,10.400 498.543,10.400 498.718 C 10.400 498.893,11.050 499.080,11.844 499.134 C 12.638 499.187,13.551 499.494,13.873 499.815 C 14.194 500.137,15.145 500.400,15.986 500.400 C 16.929 500.400,17.597 500.615,17.730 500.961 C 17.941 501.511,19.152 501.719,25.200 502.247 C 26.819 502.388,27.921 502.686,28.120 503.037 C 28.349 503.440,29.264 503.600,31.343 503.600 C 33.277 503.600,34.506 503.796,35.024 504.187 C 35.534 504.574,36.784 504.779,38.676 504.787 C 40.258 504.794,41.664 504.980,41.800 505.200 C 41.936 505.420,43.637 505.600,45.581 505.600 C 48.353 505.600,49.164 505.729,49.345 506.200 C 49.528 506.678,50.386 506.800,53.554 506.800 C 56.382 506.800,57.581 506.945,57.700 507.300 C 57.814 507.644,59.138 507.843,61.933 507.937 C 64.170 508.013,66.000 508.238,66.000 508.437 C 66.000 508.637,68.048 508.800,70.551 508.800 C 74.108 508.800,75.211 508.931,75.600 509.400 C 75.989 509.869,77.092 510.000,80.649 510.000 C 83.416 510.000,85.200 510.157,85.200 510.400 C 85.200 510.648,87.384 510.800,90.951 510.800 C 95.575 510.800,96.800 510.918,97.200 511.400 C 97.604 511.887,98.883 512.000,103.969 512.000 C 108.453 512.000,110.382 512.142,110.739 512.500 C 111.350 513.113,121.711 513.547,142.329 513.824 C 154.412 513.987,157.014 514.122,157.785 514.627 C 159.034 515.445,191.626 515.324,191.900 514.500 C 192.029 514.113,195.251 514.000,206.210 514.000 C 215.207 514.000,220.443 513.854,220.600 513.600 C 220.751 513.356,223.795 513.200,228.395 513.200 C 234.571 513.200,236.052 513.091,236.543 512.600 C 237.023 512.120,238.347 512.000,243.184 512.000 C 248.185 512.000,249.265 511.897,249.455 511.400 C 249.644 510.910,250.628 510.800,254.843 510.800 C 258.014 510.800,260.000 510.646,260.000 510.400 C 260.000 510.159,261.657 510.000,264.171 510.000 C 267.346 510.000,268.486 509.857,268.943 509.400 C 269.387 508.955,270.477 508.800,273.148 508.800 C 275.131 508.800,276.864 508.620,277.000 508.400 C 277.136 508.180,278.642 508.000,280.347 508.000 C 282.454 508.000,283.696 507.812,284.224 507.413 C 284.734 507.027,285.983 506.821,287.871 506.813 C 289.877 506.804,290.924 506.619,291.343 506.200 C 291.762 505.781,292.788 505.600,294.748 505.600 C 296.291 505.600,297.664 505.420,297.800 505.200 C 297.936 504.980,299.122 504.800,300.436 504.800 C 302.191 504.800,302.886 504.641,303.055 504.200 C 303.226 503.755,303.933 503.600,305.794 503.600 C 307.535 503.600,308.454 503.417,308.800 503.000 C 309.128 502.604,310.022 502.400,311.425 502.400 C 312.595 502.400,313.664 502.220,313.800 502.000 C 313.936 501.780,314.902 501.600,315.947 501.600 C 316.998 501.600,318.194 501.338,318.624 501.013 C 319.051 500.690,320.236 500.420,321.257 500.413 C 322.530 500.404,323.187 500.211,323.345 499.800 C 323.502 499.390,324.143 499.200,325.364 499.200 C 326.348 499.200,327.264 499.020,327.400 498.800 C 327.536 498.580,328.344 498.400,329.195 498.400 C 330.046 498.400,331.013 498.130,331.343 497.800 C 331.673 497.470,332.575 497.200,333.348 497.200 C 334.121 497.200,334.864 497.020,335.000 496.800 C 335.136 496.580,335.845 496.400,336.575 496.400 C 337.305 496.400,338.126 496.130,338.400 495.800 C 338.674 495.470,339.484 495.200,340.200 495.200 C 340.916 495.200,341.726 494.930,342.000 494.600 C 342.274 494.270,343.005 494.000,343.625 494.000 C 344.245 494.000,344.864 493.820,345.000 493.600 C 345.136 493.380,345.755 493.200,346.375 493.200 C 346.995 493.200,347.726 492.930,348.000 492.600 C 348.274 492.270,349.016 492.000,349.649 492.000 C 350.405 492.000,350.800 491.794,350.800 491.400 C 350.800 490.983,351.220 490.800,352.176 490.800 C 352.933 490.800,353.664 490.620,353.800 490.400 C 353.936 490.180,354.467 490.000,354.981 490.000 C 355.494 490.000,356.018 489.730,356.145 489.400 C 356.271 489.070,356.831 488.800,357.387 488.800 C 358.021 488.800,358.400 488.575,358.400 488.200 C 358.400 487.827,358.778 487.600,359.400 487.600 C 359.950 487.600,360.400 487.420,360.400 487.200 C 360.400 486.980,360.850 486.800,361.400 486.800 C 362.022 486.800,362.400 486.573,362.400 486.200 C 362.400 485.827,362.778 485.600,363.400 485.600 C 363.950 485.600,364.400 485.440,364.400 485.243 C 364.400 485.047,364.819 484.782,365.331 484.653 C 365.843 484.524,366.739 483.978,367.321 483.438 C 367.903 482.899,368.924 482.136,369.590 481.743 C 370.255 481.349,370.800 480.886,370.800 480.714 C 370.800 480.541,371.070 480.400,371.400 480.400 C 371.730 480.400,372.000 480.130,372.000 479.800 C 372.000 479.470,372.205 479.200,372.456 479.200 C 373.128 479.200,373.973 477.932,373.987 476.900 C 373.995 476.372,374.248 476.000,374.600 476.000 C 375.003 476.000,375.200 475.597,375.200 474.771 C 375.200 474.096,375.470 473.273,375.800 472.943 C 376.567 472.176,376.567 471.024,375.800 470.257 C 375.470 469.927,375.200 469.099,375.200 468.416 C 375.200 467.682,374.955 467.081,374.600 466.945 C 374.270 466.818,374.000 466.541,374.000 466.329 C 374.000 465.810,372.962 464.800,372.429 464.800 C 372.193 464.800,372.000 464.530,372.000 464.200 C 372.000 463.870,371.749 463.600,371.443 463.600 C 371.136 463.600,370.782 463.330,370.655 463.000 C 370.529 462.670,370.059 462.400,369.613 462.400 C 369.166 462.400,368.800 462.220,368.800 462.000 C 368.800 461.780,368.350 461.600,367.800 461.600 C 367.161 461.600,366.800 461.375,366.800 460.976 C 366.800 459.877,363.832 460.374,363.672 461.500 C 363.586 462.105,363.750 462.400,364.172 462.400 C 364.517 462.400,364.800 462.593,364.800 462.829 C 364.800 463.064,365.072 463.529,365.404 463.861 C 365.736 464.193,365.904 464.631,365.778 464.835 C 365.652 465.039,365.831 465.314,366.175 465.446 C 367.056 465.784,367.078 470.608,366.200 470.945 C 365.870 471.071,365.600 471.541,365.600 471.987 C 365.600 472.434,365.420 472.800,365.200 472.800 C 364.980 472.800,364.800 473.070,364.800 473.400 C 364.800 473.730,364.549 474.000,364.243 474.000 C 363.936 474.000,363.582 474.270,363.455 474.600 C 363.329 474.930,362.859 475.200,362.413 475.200 C 361.957 475.200,361.600 475.464,361.600 475.800 C 361.600 476.130,361.330 476.400,361.000 476.400 C 360.670 476.400,360.400 476.580,360.400 476.800 C 360.400 477.020,359.950 477.200,359.400 477.200 C 358.778 477.200,358.400 477.427,358.400 477.800 C 358.400 478.173,358.022 478.400,357.400 478.400 C 356.850 478.400,356.400 478.580,356.400 478.800 C 356.400 479.020,355.969 479.200,355.443 479.200 C 354.916 479.200,354.382 479.470,354.255 479.800 C 354.113 480.172,353.504 480.400,352.655 480.400 C 351.807 480.400,351.198 480.628,351.055 481.000 C 350.911 481.377,350.299 481.600,349.413 481.600 C 348.636 481.600,348.000 481.780,348.000 482.000 C 348.000 482.220,347.280 482.400,346.400 482.400 C 345.244 482.400,344.800 482.567,344.800 483.000 C 344.800 483.454,344.310 483.600,342.787 483.600 C 341.368 483.600,340.707 483.777,340.545 484.200 C 340.384 484.619,339.731 484.800,338.381 484.800 C 337.317 484.800,336.350 484.957,336.231 485.150 C 336.112 485.342,335.005 485.583,333.771 485.686 C 332.536 485.788,331.404 486.070,331.255 486.312 C 331.105 486.554,329.862 486.792,328.491 486.841 C 327.121 486.891,326.000 487.063,326.000 487.225 C 326.000 487.387,324.740 487.645,323.200 487.800 C 321.660 487.955,320.400 488.243,320.400 488.441 C 320.400 488.638,318.960 488.800,317.200 488.800 C 314.622 488.800,314.000 488.917,314.000 489.400 C 314.000 489.889,313.333 490.000,310.400 490.000 C 308.267 490.000,306.800 490.163,306.800 490.400 C 306.800 490.634,305.430 490.800,303.489 490.800 C 301.245 490.800,299.911 490.987,299.350 491.380 C 298.772 491.785,297.246 491.980,294.286 492.027 C 291.098 492.078,289.997 492.232,289.837 492.647 C 289.674 493.073,288.573 493.200,285.046 493.200 C 282.485 493.200,280.408 493.369,280.333 493.583 C 280.258 493.799,277.799 493.992,274.716 494.024 C 270.558 494.067,269.119 494.216,268.767 494.640 C 268.404 495.077,266.909 495.200,261.980 495.200 C 256.893 495.200,255.540 495.317,255.057 495.800 C 254.564 496.293,253.035 496.400,246.462 496.400 C 241.610 496.400,238.414 496.554,238.333 496.791 C 238.251 497.033,233.749 497.194,226.531 497.213 C 216.867 497.238,214.780 497.343,214.382 497.822 C 213.670 498.680,143.142 498.694,142.430 497.836 C 142.052 497.381,139.991 497.263,131.681 497.221 C 125.500 497.191,121.347 497.017,121.267 496.785 C 121.188 496.558,118.290 496.400,114.216 496.400 C 108.555 496.400,107.208 496.291,106.800 495.800 C 106.407 495.326,105.268 495.200,101.384 495.200 C 97.874 495.200,96.420 495.061,96.304 494.713 C 96.194 494.382,94.735 494.176,91.771 494.073 C 89.367 493.990,87.229 493.759,87.020 493.561 C 86.811 493.362,85.133 493.200,83.291 493.200 C 80.848 493.200,79.781 493.038,79.343 492.600 C 78.932 492.190,77.899 491.996,76.071 491.987 C 74.359 491.979,73.121 491.764,72.624 491.387 C 72.131 491.015,70.923 490.800,69.324 490.800 C 67.908 490.800,66.800 490.624,66.800 490.400 C 66.800 490.174,65.667 490.000,64.200 490.000 C 62.156 490.000,61.600 489.872,61.600 489.400 C 61.600 488.948,61.114 488.800,59.624 488.800 C 58.537 488.800,57.546 488.637,57.423 488.437 C 57.300 488.238,56.299 487.951,55.200 487.800 C 54.100 487.649,53.200 487.362,53.200 487.162 C 53.200 486.963,52.557 486.800,51.771 486.800 C 50.986 486.800,50.073 486.530,49.743 486.200 C 49.413 485.870,48.616 485.600,47.971 485.600 C 47.327 485.600,46.800 485.420,46.800 485.200 C 46.800 484.980,46.080 484.800,45.200 484.800 C 44.044 484.800,43.600 484.633,43.600 484.200 C 43.600 483.831,43.225 483.600,42.624 483.600 C 42.087 483.600,41.543 483.431,41.416 483.225 C 41.112 482.733,38.826 481.600,38.139 481.600 C 37.842 481.600,37.600 481.330,37.600 481.000 C 37.600 480.670,37.330 480.400,37.000 480.400 C 34.522 480.400,38.898 473.693,41.862 472.949 C 42.378 472.819,42.800 472.574,42.800 472.403 C 42.800 472.233,43.115 471.988,43.500 471.858 C 43.885 471.729,44.470 471.458,44.800 471.256 C 46.292 470.343,49.877 468.800,50.506 468.800 C 50.888 468.800,51.200 468.530,51.200 468.200 C 51.200 467.767,51.644 467.600,52.800 467.600 C 53.680 467.600,54.400 467.420,54.400 467.200 C 54.400 466.980,54.837 466.800,55.371 466.800 C 55.906 466.800,56.613 466.530,56.943 466.200 C 57.273 465.870,58.191 465.600,58.984 465.600 C 59.896 465.600,60.510 465.380,60.655 465.000 C 60.796 464.633,61.403 464.400,62.219 464.400 C 62.953 464.400,63.664 464.220,63.800 464.000 C 63.936 463.780,64.937 463.600,66.024 463.600 C 67.514 463.600,68.000 463.452,68.000 463.000 C 68.000 462.528,68.556 462.400,70.600 462.400 C 72.067 462.400,73.200 462.226,73.200 462.000 C 73.200 461.770,74.435 461.599,76.100 461.598 C 77.890 461.596,79.439 461.366,80.146 460.998 C 80.896 460.606,82.448 460.400,84.646 460.400 C 87.957 460.400,88.000 460.387,88.000 459.400 C 88.000 458.812,87.770 458.400,87.443 458.400 C 87.136 458.400,86.782 458.130,86.655 457.800 C 86.524 457.457,85.927 457.200,85.262 457.200 C 84.622 457.200,83.874 456.930,83.600 456.600 C 83.240 456.166,82.286 456.000,80.151 456.000 C 78.528 456.000,77.200 455.842,77.200 455.649 C 77.200 455.456,75.400 455.268,73.200 455.230 C 70.632 455.185,69.200 455.311,69.200 455.580 M397.600 488.372 C 397.600 488.607,397.330 488.800,397.000 488.800 C 396.670 488.800,396.400 488.994,396.400 489.231 C 396.400 489.791,394.191 492.000,393.631 492.000 C 393.394 492.000,393.200 492.240,393.200 492.532 C 393.200 492.825,392.750 493.306,392.200 493.600 C 391.650 493.894,391.200 494.375,391.200 494.668 C 391.200 494.962,390.773 495.200,390.243 495.200 C 389.716 495.200,389.182 495.470,389.055 495.800 C 388.929 496.130,388.459 496.400,388.013 496.400 C 387.566 496.400,387.200 496.580,387.200 496.800 C 387.200 497.020,386.924 497.200,386.587 497.200 C 386.251 497.200,385.871 497.470,385.745 497.800 C 385.618 498.130,385.168 498.400,384.745 498.400 C 384.321 498.400,383.871 498.670,383.745 499.000 C 383.618 499.330,383.084 499.600,382.557 499.600 C 382.031 499.600,381.600 499.780,381.600 500.000 C 381.600 500.220,381.150 500.400,380.600 500.400 C 379.978 500.400,379.600 500.627,379.600 501.000 C 379.600 501.369,379.225 501.600,378.624 501.600 C 378.087 501.600,377.536 501.780,377.400 502.000 C 377.264 502.220,376.735 502.400,376.225 502.400 C 375.715 502.400,375.074 502.670,374.800 503.000 C 374.526 503.330,373.784 503.600,373.151 503.600 C 372.395 503.600,372.000 503.806,372.000 504.200 C 372.000 504.597,371.603 504.800,370.824 504.800 C 370.177 504.800,369.536 504.980,369.400 505.200 C 369.264 505.420,368.623 505.600,367.976 505.600 C 367.197 505.600,366.800 505.803,366.800 506.200 C 366.800 506.633,366.356 506.800,365.200 506.800 C 364.044 506.800,363.600 506.967,363.600 507.400 C 363.600 507.833,363.156 508.000,362.000 508.000 C 361.120 508.000,360.400 508.180,360.400 508.400 C 360.400 508.620,359.699 508.800,358.843 508.800 C 357.828 508.800,357.205 509.009,357.055 509.400 C 356.903 509.797,356.276 510.000,355.200 510.000 C 354.124 510.000,353.497 510.203,353.345 510.600 C 353.188 511.007,352.550 511.200,351.357 511.200 C 350.391 511.200,349.600 511.380,349.600 511.600 C 349.600 511.820,348.784 512.000,347.787 512.000 C 346.545 512.000,345.902 512.189,345.745 512.600 C 345.583 513.020,344.928 513.200,343.557 513.200 C 342.481 513.200,341.600 513.380,341.600 513.600 C 341.600 513.820,340.709 514.000,339.620 514.000 C 338.313 514.000,337.530 514.196,337.318 514.575 C 337.107 514.952,336.205 515.183,334.715 515.243 C 333.256 515.302,332.360 515.527,332.229 515.868 C 332.097 516.212,331.323 516.400,330.036 516.400 C 328.942 516.400,327.936 516.580,327.800 516.800 C 327.664 517.020,326.586 517.200,325.405 517.200 C 324.029 517.200,323.041 517.416,322.657 517.800 C 322.267 518.191,321.275 518.400,319.816 518.400 C 318.193 518.400,317.511 518.565,317.345 519.000 C 317.167 519.464,316.392 519.600,313.934 519.600 C 311.915 519.600,310.843 519.746,311.000 520.000 C 311.156 520.253,310.154 520.400,308.273 520.400 C 306.116 520.400,305.161 520.565,304.800 521.000 C 304.445 521.428,303.485 521.604,301.451 521.613 C 299.581 521.621,298.333 521.827,297.824 522.213 C 297.307 522.604,296.078 522.800,294.147 522.800 C 292.552 522.800,291.136 522.980,291.000 523.200 C 290.864 523.420,289.178 523.600,287.253 523.600 C 284.795 523.600,283.522 523.775,282.976 524.187 C 282.421 524.607,281.097 524.778,278.324 524.787 C 276.185 524.794,274.336 524.979,274.200 525.200 C 274.060 525.426,272.092 525.600,269.665 525.600 C 266.560 525.600,265.149 525.761,264.547 526.182 C 263.930 526.614,262.312 526.779,258.258 526.823 C 253.876 526.869,252.800 526.991,252.800 527.440 C 252.800 527.898,251.542 528.000,245.880 528.000 C 242.074 528.000,238.789 528.165,238.580 528.368 C 238.371 528.570,233.844 528.795,228.520 528.868 C 221.459 528.964,218.704 529.135,218.340 529.500 C 217.569 530.271,146.499 530.201,145.480 529.428 C 144.926 529.008,142.663 528.869,135.680 528.824 C 130.316 528.789,126.545 528.609,126.467 528.383 C 126.389 528.160,123.599 528.000,119.800 528.000 C 114.929 528.000,113.224 527.873,113.101 527.500 C 112.981 527.141,111.369 526.963,107.371 526.867 C 103.690 526.779,101.709 526.576,101.519 526.267 C 101.336 525.972,99.641 525.751,96.915 525.667 C 94.542 525.594,92.429 525.369,92.220 525.167 C 92.011 524.965,90.269 524.800,88.349 524.800 C 85.778 524.800,84.699 524.642,84.257 524.200 C 83.824 523.767,82.768 523.600,80.452 523.600 C 78.689 523.600,77.136 523.420,77.000 523.200 C 76.620 522.584,72.000 522.687,72.000 523.311 C 72.000 524.196,73.214 525.600,73.980 525.600 C 74.384 525.600,74.818 525.870,74.945 526.200 C 75.077 526.544,75.674 526.800,76.345 526.800 C 77.015 526.800,77.613 527.056,77.745 527.400 C 77.871 527.730,78.431 528.000,78.987 528.000 C 79.544 528.000,80.000 528.180,80.000 528.400 C 80.000 528.620,80.698 528.800,81.551 528.800 C 82.442 528.800,83.314 529.055,83.600 529.400 C 83.874 529.730,84.719 530.000,85.478 530.000 C 86.236 530.000,87.127 530.270,87.457 530.600 C 87.787 530.930,88.754 531.200,89.605 531.200 C 90.456 531.200,91.264 531.380,91.400 531.600 C 91.536 531.820,92.605 532.000,93.775 532.000 C 95.178 532.000,96.072 532.204,96.400 532.600 C 96.738 533.008,97.645 533.200,99.225 533.200 C 100.505 533.200,101.664 533.380,101.800 533.600 C 101.936 533.820,103.392 534.000,105.036 534.000 C 107.324 534.000,108.079 534.141,108.255 534.600 C 108.434 535.066,109.222 535.200,111.794 535.200 C 114.180 535.200,115.235 535.360,115.578 535.774 C 116.068 536.364,118.339 536.571,129.397 537.031 C 133.337 537.195,134.673 537.387,134.917 537.824 C 135.177 538.288,136.482 538.400,141.634 538.400 C 146.736 538.400,148.219 538.525,148.974 539.020 C 151.025 540.364,257.245 540.298,258.591 538.952 C 259.017 538.526,260.690 538.400,265.922 538.400 C 271.461 538.400,272.793 538.290,273.200 537.800 C 273.597 537.322,274.778 537.200,279.025 537.200 C 282.146 537.200,284.455 537.034,284.600 536.800 C 284.739 536.575,286.719 536.394,289.124 536.387 C 292.249 536.378,293.609 536.216,294.176 535.787 C 294.730 535.368,296.023 535.200,298.689 535.200 C 301.641 535.200,302.473 535.074,302.655 534.600 C 302.837 534.126,303.672 534.000,306.643 534.000 C 308.881 534.000,310.400 533.838,310.400 533.600 C 310.400 533.367,311.738 533.200,313.613 533.200 C 316.099 533.200,316.877 533.064,317.055 532.600 C 317.228 532.149,317.952 532.000,319.963 532.000 C 321.435 532.000,322.811 531.840,323.020 531.643 C 323.229 531.447,324.560 531.208,325.977 531.112 C 327.448 531.013,328.621 530.737,328.710 530.469 C 328.804 530.188,329.725 530.000,331.005 530.000 C 332.372 530.000,333.359 529.784,333.743 529.400 C 334.099 529.044,335.077 528.800,336.148 528.800 C 337.141 528.800,338.064 528.620,338.200 528.400 C 338.336 528.180,339.315 528.000,340.375 528.000 C 341.600 528.000,342.483 527.781,342.800 527.400 C 343.100 527.038,343.976 526.800,345.006 526.800 C 346.156 526.800,346.790 526.604,346.945 526.200 C 347.102 525.789,347.745 525.600,348.987 525.600 C 349.984 525.600,350.800 525.420,350.800 525.200 C 350.800 524.980,351.520 524.800,352.400 524.800 C 353.556 524.800,354.000 524.633,354.000 524.200 C 354.000 523.768,354.441 523.600,355.571 523.600 C 356.436 523.600,357.413 523.330,357.743 523.000 C 358.073 522.670,358.885 522.400,359.548 522.400 C 360.211 522.400,360.864 522.220,361.000 522.000 C 361.136 521.780,361.757 521.600,362.381 521.600 C 363.019 521.600,363.615 521.338,363.745 521.000 C 363.889 520.623,364.501 520.400,365.387 520.400 C 366.164 520.400,366.800 520.220,366.800 520.000 C 366.800 519.780,367.231 519.600,367.757 519.600 C 368.284 519.600,368.818 519.330,368.945 519.000 C 369.080 518.647,369.680 518.400,370.400 518.400 C 371.120 518.400,371.720 518.153,371.855 517.800 C 371.982 517.470,372.516 517.200,373.043 517.200 C 373.569 517.200,374.000 517.020,374.000 516.800 C 374.000 516.580,374.431 516.400,374.957 516.400 C 375.484 516.400,376.018 516.130,376.145 515.800 C 376.271 515.470,376.831 515.200,377.387 515.200 C 378.021 515.200,378.400 514.975,378.400 514.600 C 378.400 514.227,378.778 514.000,379.400 514.000 C 379.950 514.000,380.400 513.820,380.400 513.600 C 380.400 513.380,380.670 513.200,381.000 513.200 C 381.330 513.200,381.600 513.023,381.600 512.808 C 381.600 512.592,382.050 512.302,382.600 512.164 C 383.150 512.026,383.601 511.708,383.603 511.457 C 383.606 510.975,385.397 510.000,386.280 510.000 C 386.566 510.000,386.800 509.730,386.800 509.400 C 386.800 509.070,386.986 508.800,387.213 508.800 C 387.441 508.800,388.126 508.305,388.735 507.700 C 389.345 507.095,390.478 506.087,391.252 505.460 C 392.027 504.833,392.991 503.708,393.393 502.960 C 393.796 502.212,394.368 501.600,394.663 501.600 C 394.958 501.600,395.200 501.349,395.200 501.043 C 395.200 500.736,395.470 500.382,395.800 500.255 C 396.130 500.129,396.400 499.659,396.400 499.213 C 396.400 498.766,396.580 498.400,396.800 498.400 C 397.020 498.400,397.200 497.944,397.200 497.387 C 397.200 496.831,397.470 496.271,397.800 496.145 C 398.130 496.018,398.400 495.471,398.400 494.929 C 398.400 494.386,398.678 493.665,399.019 493.324 C 400.063 492.280,399.664 488.237,398.500 488.072 C 398.005 488.002,397.600 488.137,397.600 488.372 " stroke="none" fill="#54839c" fill-rule="evenodd"></path></g></svg>