<svg id="svg" version="1.1" xmlns="http://www.w3.org/2000/svg" xmlns:xlink="http://www.w3.org/1999/xlink" width="400" height="398.44357976653697" viewBox="0, 0, 400,398.44357976653697"><g id="svgg"><path id="path0" d="M307.876 126.820 C 307.876 144.367,308.013 153.539,308.275 153.539 C 308.537 153.539,308.674 144.367,308.674 126.820 C 308.674 109.272,308.537 100.100,308.275 100.100 C 308.013 100.100,307.876 109.272,307.876 126.820 M347.213 100.696 C 347.339 101.023,347.628 101.176,347.856 101.035 C 348.084 100.894,348.786 100.794,349.417 100.812 C 350.047 100.830,350.459 100.677,350.333 100.472 C 349.917 99.800,346.951 100.013,347.213 100.696 M354.935 102.094 C 354.935 102.313,355.204 102.493,355.533 102.493 C 355.862 102.493,356.132 102.313,356.132 102.094 C 356.132 101.874,355.862 101.695,355.533 101.695 C 355.204 101.695,354.935 101.874,354.935 102.094 M357.819 103.290 C 358.327 104.103,360.120 104.414,360.120 103.689 C 360.120 103.470,359.771 103.290,359.346 103.290 C 358.920 103.290,358.461 103.111,358.325 102.891 C 358.189 102.672,357.908 102.493,357.700 102.493 C 357.492 102.493,357.545 102.851,357.819 103.290 M365.304 107.091 C 365.304 107.427,365.618 107.821,366.002 107.966 C 366.386 108.112,366.904 108.420,367.154 108.652 C 368.532 109.930,369.376 110.469,370.000 110.469 C 370.384 110.469,371.032 110.914,371.441 111.458 C 371.850 112.002,372.341 112.351,372.533 112.232 C 372.724 112.114,372.881 112.195,372.881 112.413 C 372.881 113.807,373.709 114.928,374.349 114.400 C 374.909 113.938,374.976 113.946,374.808 114.453 C 374.625 115.008,375.498 116.251,376.072 116.251 C 376.470 116.251,377.667 117.545,377.667 117.975 C 377.667 118.399,378.871 118.969,379.158 118.681 C 379.258 118.582,378.559 117.705,377.606 116.733 C 376.652 115.761,375.244 114.255,374.477 113.386 C 373.709 112.517,372.459 111.370,371.699 110.838 C 370.940 110.306,369.865 109.467,369.311 108.973 C 368.757 108.480,368.027 108.076,367.689 108.076 C 367.352 108.076,366.817 107.717,366.500 107.278 C 365.815 106.327,365.304 106.248,365.304 107.091 M379.129 119.907 C 378.582 120.454,378.896 120.837,379.889 120.837 C 380.800 120.837,380.848 120.771,380.316 120.239 C 379.644 119.567,379.508 119.529,379.129 119.907 M381.439 123.257 C 381.122 123.769,381.201 123.850,382.353 124.205 C 383.382 124.521,383.503 124.224,382.681 123.401 C 381.999 122.720,381.786 122.695,381.439 123.257 M383.250 125.600 C 383.250 125.806,383.430 126.086,383.650 126.222 C 383.913 126.385,383.916 126.719,383.660 127.198 C 383.334 127.807,383.448 127.961,384.357 128.136 C 385.733 128.400,385.817 128.301,385.172 127.173 C 384.229 125.523,383.250 124.721,383.250 125.600 M384.887 129.361 C 384.531 129.790,384.647 130.050,385.424 130.559 C 386.031 130.956,386.326 131.439,386.186 131.805 C 386.029 132.215,386.211 132.403,386.764 132.403 C 387.207 132.403,387.661 132.627,387.772 132.901 C 387.892 133.199,387.986 133.119,388.004 132.702 C 388.022 132.318,387.856 132.004,387.637 132.004 C 387.418 132.004,387.238 131.645,387.238 131.206 C 387.238 130.768,387.059 130.409,386.839 130.409 C 386.620 130.409,386.441 130.050,386.441 129.611 C 386.441 128.696,385.558 128.554,384.887 129.361 M387.733 134.391 C 387.085 135.429,387.106 135.992,387.794 135.992 C 388.364 135.992,388.833 135.167,388.833 134.165 C 388.833 133.358,388.311 133.466,387.733 134.391 M388.833 135.414 C 388.833 135.534,389.110 136.167,389.448 136.821 C 390.079 138.042,389.900 140.778,389.188 140.778 C 388.993 140.778,388.833 141.047,388.833 141.376 C 388.833 142.053,389.458 142.178,389.831 141.575 C 390.310 140.800,390.714 141.190,390.515 142.235 C 390.385 142.914,388.154 145.476,384.289 149.386 C 377.469 156.285,377.273 156.503,377.256 157.211 C 377.250 157.495,376.698 158.175,376.030 158.724 C 373.714 160.626,362.911 171.469,362.911 171.892 C 362.911 172.587,362.901 172.597,354.237 181.044 C 351.770 183.450,349.751 185.608,349.751 185.839 C 349.751 186.418,346.647 189.675,339.880 196.197 C 338.071 197.941,336.590 199.557,336.590 199.789 C 336.590 200.021,335.110 201.719,333.300 203.563 C 331.491 205.407,329.561 207.464,329.013 208.134 C 328.465 208.805,327.702 209.459,327.318 209.589 C 326.934 209.718,326.620 210.083,326.620 210.399 C 326.620 210.715,323.659 213.934,320.040 217.553 C 316.421 221.172,313.460 224.452,313.460 224.840 C 313.460 225.229,313.074 225.811,312.602 226.133 C 311.181 227.105,299.900 238.433,299.900 238.888 C 299.900 239.305,298.973 240.435,297.200 242.180 C 296.702 242.670,293.966 245.354,291.119 248.145 C 288.272 250.935,285.942 253.407,285.942 253.637 C 285.942 253.867,284.974 255.057,283.791 256.282 C 281.086 259.082,281.723 258.446,276.471 263.583 C 274.003 265.996,271.984 268.159,271.984 268.389 C 271.984 268.618,270.659 270.170,269.039 271.837 C 265.123 275.867,265.103 275.886,261.316 279.542 C 259.506 281.289,258.026 282.907,258.026 283.138 C 258.026 283.369,256.142 285.443,253.838 287.746 C 251.535 290.049,249.651 292.089,249.651 292.279 C 249.651 293.376,238.037 293.951,205.783 294.451 C 202.602 294.500,232.797 294.580,272.881 294.628 C 321.262 294.686,345.763 294.582,345.763 294.317 C 345.763 294.098,346.660 293.918,347.757 293.918 C 348.853 293.918,349.751 293.739,349.751 293.519 C 349.751 293.300,350.469 293.121,351.346 293.121 C 352.223 293.121,352.941 292.941,352.941 292.722 C 352.941 292.502,353.480 292.323,354.138 292.323 C 354.796 292.323,355.334 292.144,355.334 291.924 C 355.334 291.705,355.682 291.525,356.108 291.525 C 356.534 291.525,356.980 291.366,357.101 291.172 C 357.221 290.977,357.954 290.699,358.731 290.553 C 359.507 290.408,360.060 290.156,359.960 289.995 C 359.860 289.833,360.259 289.661,360.846 289.613 C 361.434 289.564,361.974 289.347,362.047 289.129 C 362.120 288.912,362.524 288.734,362.944 288.734 C 363.365 288.734,363.709 288.576,363.709 288.383 C 363.709 288.191,364.247 287.810,364.905 287.537 C 365.563 287.265,366.102 286.884,366.102 286.691 C 366.102 286.499,366.373 286.341,366.704 286.341 C 367.035 286.341,367.869 285.803,368.557 285.145 C 369.246 284.487,369.961 283.948,370.147 283.948 C 370.333 283.948,371.370 283.081,372.451 282.022 C 373.533 280.963,374.968 279.662,375.640 279.131 C 376.312 278.600,376.864 277.959,376.866 277.707 C 376.868 277.455,377.767 276.333,378.863 275.213 C 379.960 274.093,380.857 273.086,380.857 272.975 C 380.857 272.865,381.396 272.211,382.054 271.522 C 382.712 270.834,383.250 270.110,383.250 269.914 C 383.250 269.718,383.609 269.173,384.048 268.702 C 384.487 268.231,384.845 267.610,384.845 267.323 C 384.845 267.035,385.025 266.800,385.244 266.800 C 385.464 266.800,385.643 266.523,385.643 266.185 C 385.643 265.847,386.002 265.185,386.441 264.714 C 386.879 264.243,387.238 263.622,387.238 263.335 C 387.238 263.047,387.418 262.812,387.637 262.812 C 387.856 262.812,388.036 262.578,388.036 262.292 C 388.036 262.006,388.466 260.884,388.993 259.799 C 389.519 258.714,390.252 257.109,390.621 256.231 C 390.991 255.354,391.462 254.318,391.667 253.929 C 391.873 253.541,392.152 252.419,392.286 251.437 C 392.421 250.455,392.686 249.651,392.876 249.651 C 393.065 249.651,393.220 249.113,393.220 248.455 C 393.220 247.797,393.400 247.258,393.619 247.258 C 393.838 247.258,394.018 246.720,394.018 246.062 C 394.018 245.404,394.197 244.865,394.417 244.865 C 394.636 244.865,394.816 244.148,394.816 243.270 C 394.816 242.393,394.995 241.675,395.214 241.675 C 395.434 241.675,395.613 241.057,395.613 240.303 C 395.613 239.548,395.793 238.820,396.012 238.684 C 396.231 238.548,396.411 237.640,396.411 236.666 C 396.411 235.692,396.590 234.895,396.810 234.895 C 397.029 234.895,397.208 234.009,397.208 232.925 C 397.208 231.841,397.388 230.843,397.607 230.708 C 397.827 230.572,398.006 229.305,398.006 227.893 C 398.006 226.446,398.180 225.324,398.405 225.324 C 398.639 225.324,398.804 223.955,398.804 222.014 C 398.804 220.193,398.995 218.513,399.228 218.279 C 399.818 217.689,399.815 179.915,399.225 179.325 C 398.993 179.093,398.804 177.672,398.804 176.168 C 398.804 174.663,398.661 173.520,398.488 173.628 C 398.314 173.735,398.142 173.434,398.106 172.958 C 398.055 172.273,398.119 172.217,398.416 172.687 C 398.717 173.163,398.793 173.107,398.797 172.406 C 398.801 171.926,398.624 171.422,398.405 171.286 C 398.185 171.151,398.006 169.782,398.006 168.245 C 398.006 165.532,397.980 165.458,397.109 165.721 C 396.377 165.942,396.303 165.896,396.710 165.469 C 397.301 164.848,397.386 161.117,396.810 161.117 C 396.590 161.117,396.411 160.219,396.411 159.123 C 396.411 158.026,396.231 157.129,396.012 157.129 C 395.793 157.129,395.613 156.785,395.613 156.364 C 395.613 155.944,395.389 155.509,395.115 155.399 C 394.716 155.238,394.716 155.191,395.115 155.166 C 395.702 155.129,395.799 153.938,395.214 153.938 C 394.995 153.938,394.816 153.208,394.816 152.316 C 394.816 150.875,394.726 150.722,394.018 150.947 C 393.560 151.092,393.220 151.019,393.220 150.775 C 393.220 150.541,393.400 150.349,393.619 150.349 C 393.838 150.349,394.018 149.821,394.018 149.176 C 394.018 148.531,393.838 147.892,393.619 147.757 C 393.400 147.621,393.220 147.790,393.220 148.132 C 393.220 148.474,392.951 148.754,392.622 148.754 C 392.293 148.754,392.024 148.479,392.024 148.143 C 392.024 147.807,392.293 147.429,392.622 147.303 C 393.352 147.023,393.450 145.021,392.722 145.264 C 392.448 145.356,392.223 145.640,392.223 145.896 C 392.223 146.152,392.074 146.376,391.891 146.394 C 391.249 146.458,391.213 146.071,391.815 145.571 C 392.663 144.867,391.907 140.043,390.813 139.182 C 390.673 139.073,390.311 138.131,390.008 137.089 C 389.558 135.540,388.833 134.507,388.833 135.414 M307.079 157.926 C 307.079 158.365,307.258 158.724,307.478 158.724 C 307.697 158.724,307.876 158.365,307.876 157.926 C 307.876 157.488,307.697 157.129,307.478 157.129 C 307.258 157.129,307.079 157.488,307.079 157.926 M307.079 160.120 C 307.079 160.449,307.258 160.718,307.478 160.718 C 307.697 160.718,307.876 160.449,307.876 160.120 C 307.876 159.791,307.697 159.521,307.478 159.521 C 307.258 159.521,307.079 159.791,307.079 160.120 M306.281 162.114 C 306.281 162.443,306.441 162.712,306.637 162.712 C 306.833 162.712,307.097 162.443,307.223 162.114 C 307.363 161.749,307.224 161.515,306.867 161.515 C 306.545 161.515,306.281 161.785,306.281 162.114 M304.977 167.738 C 304.817 167.898,304.686 168.304,304.686 168.641 C 304.686 169.090,304.804 169.134,305.130 168.809 C 305.374 168.565,305.504 168.159,305.420 167.906 C 305.336 167.654,305.137 167.579,304.977 167.738 M303.097 172.782 C 303.102 173.507,303.177 173.564,303.490 173.081 C 303.989 172.308,303.989 171.884,303.490 171.884 C 303.270 171.884,303.093 172.288,303.097 172.782 M301.304 176.797 C 300.931 177.582,300.741 178.412,300.882 178.639 C 301.026 178.873,300.907 178.965,300.610 178.851 C 300.299 178.732,299.886 179.103,299.606 179.753 C 299.018 181.122,298.232 182.359,297.707 182.746 C 297.103 183.189,297.987 183.114,298.704 182.660 C 299.033 182.453,299.311 182.141,299.322 181.969 C 299.382 180.996,300.031 179.860,300.525 179.860 C 301.126 179.860,301.141 179.830,301.296 178.297 C 301.349 177.767,301.672 177.128,302.014 176.879 C 302.399 176.597,302.511 176.224,302.308 175.897 C 302.073 175.517,301.791 175.770,301.304 176.797 M296.678 184.546 C 296.366 185.150,294.541 187.190,292.622 189.081 C 289.075 192.576,288.431 193.427,290.014 192.526 C 291.236 191.831,292.124 190.964,292.124 190.465 C 292.124 190.235,292.701 189.684,293.407 189.241 C 294.113 188.797,294.798 188.121,294.929 187.737 C 295.061 187.353,295.349 187.039,295.569 187.039 C 296.173 187.039,297.109 185.980,297.109 185.296 C 297.109 184.965,297.288 184.582,297.507 184.447 C 297.990 184.149,298.037 183.450,297.575 183.450 C 297.393 183.450,296.989 183.943,296.678 184.546 M286.939 193.898 C 286.129 194.360,284.746 195.770,284.746 196.135 C 284.746 196.245,285.060 196.061,285.444 195.727 C 285.828 195.393,286.391 195.209,286.696 195.318 C 287.017 195.434,287.140 195.340,286.988 195.094 C 286.844 194.861,287.128 194.389,287.619 194.045 C 288.644 193.328,288.134 193.218,286.939 193.898 M283.549 196.070 C 283.549 196.285,282.921 196.708,282.154 197.009 C 281.036 197.448,280.239 198.205,280.896 198.205 C 281.913 198.205,284.238 196.368,283.789 195.919 C 283.657 195.787,283.549 195.856,283.549 196.070 M279.239 198.634 C 279.318 198.870,279.552 199.063,279.761 199.063 C 279.969 199.063,280.204 198.870,280.282 198.634 C 280.361 198.398,280.126 198.205,279.761 198.205 C 279.395 198.205,279.160 198.398,279.239 198.634 M275.839 200.066 C 275.355 200.551,275.564 200.976,276.171 200.742 C 276.500 200.616,276.770 200.353,276.770 200.157 C 276.770 199.739,276.220 199.685,275.839 200.066 M273.446 200.864 C 272.925 201.386,273.193 201.717,273.974 201.513 C 274.410 201.398,274.668 201.146,274.548 200.952 C 274.289 200.532,273.816 200.495,273.446 200.864 M270.389 201.795 C 270.389 202.014,270.837 202.193,271.386 202.193 C 271.934 202.193,272.383 202.014,272.383 201.795 C 272.383 201.575,271.934 201.396,271.386 201.396 C 270.837 201.396,270.389 201.575,270.389 201.795 M267.198 202.592 C 267.198 202.812,267.468 202.991,267.797 202.991 C 268.126 202.991,268.395 202.812,268.395 202.592 C 268.395 202.373,268.126 202.193,267.797 202.193 C 267.468 202.193,267.198 202.373,267.198 202.592 M262.812 203.390 C 262.812 203.609,263.081 203.789,263.410 203.789 C 263.739 203.789,264.008 203.609,264.008 203.390 C 264.008 203.170,263.739 202.991,263.410 202.991 C 263.081 202.991,262.812 203.170,262.812 203.390 M153.539 204.194 C 153.539 204.657,155.893 204.574,156.185 204.100 C 156.291 203.929,155.739 203.789,154.959 203.789 C 154.178 203.789,153.539 203.971,153.539 204.194 M239.083 204.049 C 242.799 204.333,254.745 204.362,254.575 204.088 C 254.473 203.923,250.587 203.820,245.939 203.858 C 241.291 203.897,238.205 203.983,239.083 204.049 M146.760 204.985 C 146.760 205.204,147.018 205.384,147.334 205.384 C 147.650 205.384,148.020 205.204,148.156 204.985 C 148.291 204.766,148.032 204.586,147.581 204.586 C 147.129 204.586,146.760 204.766,146.760 204.985 M142.772 205.783 C 142.772 206.002,143.131 206.181,143.569 206.181 C 144.008 206.181,144.367 206.002,144.367 205.783 C 144.367 205.563,144.008 205.384,143.569 205.384 C 143.131 205.384,142.772 205.563,142.772 205.783 M139.781 206.580 C 139.641 206.806,139.976 206.979,140.555 206.979 C 141.116 206.979,141.575 206.800,141.575 206.580 C 141.575 206.361,141.227 206.181,140.801 206.181 C 140.375 206.181,139.916 206.361,139.781 206.580 M133.300 208.440 C 132.519 208.755,132.717 209.372,133.599 209.372 C 134.042 209.372,134.397 209.106,134.397 208.774 C 134.397 208.159,134.168 208.089,133.300 208.440 M126.421 211.667 C 126.421 211.833,125.882 212.207,125.224 212.498 C 124.566 212.790,124.028 213.189,124.028 213.387 C 124.028 213.584,124.701 213.372,125.523 212.917 C 127.481 211.832,127.955 211.366,127.099 211.366 C 126.726 211.366,126.421 211.502,126.421 211.667 M122.257 214.370 C 121.831 214.692,121.662 214.955,121.881 214.955 C 122.101 214.955,122.629 214.692,123.054 214.370 C 123.480 214.048,123.649 213.784,123.430 213.784 C 123.210 213.784,122.683 214.048,122.257 214.370 M120.124 215.967 C 119.458 216.722,120.062 216.720,121.060 215.965 C 121.644 215.523,121.687 215.380,121.236 215.382 C 120.907 215.383,120.407 215.647,120.124 215.967 M113.320 222.783 C 112.804 223.332,112.489 223.888,112.619 224.019 C 112.881 224.280,114.457 222.611,114.457 222.073 C 114.457 221.604,114.382 221.651,113.320 222.783 M104.729 239.514 C 104.387 240.406,104.414 240.479,105.085 240.479 C 105.417 240.479,105.683 240.124,105.683 239.681 C 105.683 238.730,105.071 238.623,104.729 239.514 M104.394 241.658 C 104.119 242.639,104.284 243.207,104.718 242.773 C 104.846 242.645,104.887 242.122,104.810 241.610 L 104.670 240.678 104.394 241.658 M103.290 246.261 C 103.290 246.590,103.470 246.859,103.689 246.859 C 103.908 246.859,104.088 246.590,104.088 246.261 C 104.088 245.932,103.908 245.663,103.689 245.663 C 103.470 245.663,103.290 245.932,103.290 246.261 M102.493 300.897 C 102.493 330.542,102.628 345.763,102.891 345.763 C 103.155 345.763,103.290 330.542,103.290 300.897 C 103.290 271.253,103.155 256.032,102.891 256.032 C 102.628 256.032,102.493 271.253,102.493 300.897 M209.372 307.826 C 209.372 308.017,214.966 308.307,221.803 308.470 C 230.870 308.686,234.030 308.879,233.481 309.187 C 232.425 309.778,230.907 311.348,230.907 311.849 C 230.907 312.080,227.991 315.217,224.427 318.819 C 217.768 325.550,216.949 326.425,216.949 326.811 C 216.949 326.934,213.719 330.258,209.771 334.197 C 205.823 338.137,202.592 341.551,202.592 341.785 C 202.592 342.019,199.452 345.337,195.613 349.158 C 191.775 352.979,188.634 356.291,188.634 356.517 C 188.634 356.744,185.494 360.067,181.655 363.903 C 177.817 367.738,174.676 371.059,174.676 371.283 C 174.676 371.507,171.535 374.826,167.697 378.658 C 163.858 382.491,160.718 385.812,160.718 386.040 C 160.718 386.267,159.372 387.800,157.727 389.445 C 154.828 392.344,154.097 393.619,155.334 393.619 C 155.663 393.619,155.932 393.799,155.932 394.018 C 155.932 394.237,156.212 394.417,156.554 394.417 C 156.896 394.417,157.065 394.237,156.929 394.018 C 156.794 393.799,156.873 393.619,157.105 393.619 C 157.337 393.619,157.527 393.799,157.527 394.018 C 157.527 394.237,158.066 394.417,158.724 394.417 C 159.382 394.417,159.920 394.596,159.920 394.816 C 159.920 395.035,160.918 395.214,162.137 395.214 C 163.514 395.214,164.261 395.063,164.108 394.816 C 163.972 394.596,164.051 394.417,164.284 394.417 C 164.516 394.417,164.706 394.776,164.706 395.214 C 164.706 395.935,164.972 396.012,167.474 396.012 C 168.996 396.012,170.353 396.191,170.489 396.411 C 170.624 396.630,172.329 396.810,174.277 396.810 C 176.225 396.810,177.930 396.989,178.066 397.208 C 178.442 397.817,180.369 397.719,180.025 397.109 C 179.800 396.710,179.851 396.710,180.280 397.109 C 180.649 397.451,182.346 397.607,185.699 397.607 C 188.524 397.607,190.685 397.775,190.828 398.006 C 190.981 398.255,194.878 398.405,201.196 398.405 C 207.515 398.405,211.411 398.255,211.565 398.006 C 211.714 397.766,214.486 397.607,218.544 397.607 C 222.603 397.607,225.375 397.449,225.523 397.208 C 225.659 396.989,227.364 396.810,229.312 396.810 C 231.260 396.810,232.965 396.630,233.101 396.411 C 233.236 396.191,234.683 396.012,236.315 396.012 C 238.027 396.012,239.282 395.843,239.282 395.613 C 239.282 395.392,240.346 395.214,241.675 395.214 C 243.004 395.214,244.068 395.037,244.068 394.816 C 244.068 394.596,244.865 394.417,245.839 394.417 C 246.813 394.417,247.721 394.237,247.856 394.018 C 247.992 393.799,248.900 393.619,249.874 393.619 C 250.848 393.619,251.645 393.440,251.645 393.220 C 251.645 393.001,252.363 392.822,253.240 392.822 C 254.118 392.822,254.835 392.642,254.835 392.423 C 254.835 392.203,255.453 392.024,256.208 392.024 C 256.963 392.024,257.691 391.844,257.827 391.625 C 257.962 391.406,258.601 391.226,259.246 391.226 C 259.891 391.226,260.419 391.070,260.419 390.879 C 260.419 390.688,261.309 390.413,262.396 390.269 C 263.484 390.125,264.460 389.868,264.565 389.699 C 264.669 389.529,265.664 389.143,266.774 388.840 C 267.885 388.538,268.794 388.143,268.794 387.964 C 268.794 387.784,269.153 387.637,269.591 387.637 C 270.030 387.637,270.389 387.458,270.389 387.238 C 270.389 387.019,270.641 386.839,270.949 386.839 C 271.614 386.839,274.917 385.177,275.108 384.746 C 275.181 384.581,275.585 384.447,276.005 384.447 C 276.426 384.447,276.770 384.311,276.770 384.145 C 276.770 383.979,277.263 383.623,277.866 383.353 C 278.470 383.083,279.591 382.322,280.359 381.661 C 281.127 381.001,281.907 380.460,282.093 380.460 C 282.279 380.459,282.935 379.920,283.549 379.262 C 284.164 378.604,284.836 378.066,285.042 378.066 C 285.491 378.066,289.133 374.681,289.133 374.264 C 289.133 374.103,289.458 373.682,289.856 373.327 C 290.801 372.484,293.121 369.070,293.121 368.522 C 293.121 368.288,293.300 368.096,293.519 368.096 C 293.739 368.096,293.918 367.737,293.918 367.298 C 293.918 366.859,294.098 366.500,294.317 366.500 C 294.536 366.500,294.716 366.177,294.716 365.783 C 294.716 365.388,294.900 364.881,295.125 364.655 C 295.350 364.430,295.645 363.318,295.779 362.183 C 295.913 361.048,296.178 360.120,296.367 360.120 C 296.555 360.120,296.707 348.230,296.704 333.699 C 296.700 316.494,296.563 307.487,296.311 307.876 C 296.053 308.275,295.922 308.308,295.918 307.976 C 295.914 307.580,286.989 307.478,252.642 307.478 C 228.248 307.478,209.372 307.629,209.372 307.826 M258.824 333.302 C 258.824 333.712,261.589 334.671,262.773 334.672 C 263.300 334.673,263.531 334.797,263.285 334.949 C 263.000 335.125,263.231 335.508,263.922 336.007 C 266.158 337.622,268.794 340.637,268.794 341.580 C 268.794 341.906,268.973 342.173,269.192 342.173 C 269.412 342.173,269.591 342.532,269.591 342.971 C 269.591 343.410,269.771 343.769,269.990 343.769 C 270.209 343.769,270.389 344.487,270.389 345.364 C 270.389 346.241,270.568 346.959,270.788 346.959 C 271.009 346.959,271.186 348.015,271.186 349.328 C 271.186 350.632,271.007 351.809,270.788 351.944 C 270.568 352.080,270.389 352.808,270.389 353.563 C 270.389 354.318,270.209 354.935,269.990 354.935 C 269.771 354.935,269.591 355.294,269.591 355.733 C 269.591 356.171,269.412 356.530,269.192 356.530 C 268.973 356.530,268.794 356.798,268.794 357.124 C 268.794 357.724,268.122 358.672,266.525 360.327 C 266.044 360.824,265.730 361.310,265.826 361.406 C 265.922 361.502,265.508 361.834,264.905 362.144 C 264.302 362.453,263.518 363.022,263.164 363.407 C 262.809 363.792,262.226 364.108,261.867 364.108 C 261.509 364.108,261.216 364.287,261.216 364.506 C 261.216 364.726,260.678 364.905,260.020 364.905 C 259.362 364.905,258.824 365.085,258.824 365.304 C 258.824 365.546,257.095 365.703,254.437 365.703 C 251.778 365.703,250.050 365.546,250.050 365.304 C 250.050 365.085,249.688 364.905,249.247 364.905 C 248.359 364.905,247.119 364.276,245.907 363.210 C 245.471 362.827,244.954 362.512,244.759 362.512 C 244.422 362.512,242.291 360.399,240.778 358.564 C 240.394 358.098,240.080 357.451,240.080 357.124 C 240.080 356.798,239.900 356.530,239.681 356.530 C 239.462 356.530,239.282 356.171,239.282 355.733 C 239.282 355.294,239.103 354.935,238.883 354.935 C 238.664 354.935,238.485 354.217,238.485 353.340 C 238.485 352.463,238.305 351.745,238.086 351.745 C 237.864 351.745,237.687 350.681,237.687 349.352 C 237.687 348.023,237.864 346.959,238.086 346.959 C 238.305 346.959,238.485 346.241,238.485 345.364 C 238.485 344.487,238.664 343.769,238.883 343.769 C 239.103 343.769,239.282 343.410,239.282 342.971 C 239.282 342.532,239.462 342.173,239.681 342.173 C 239.900 342.173,240.080 341.854,240.080 341.464 C 240.080 341.074,240.439 340.496,240.877 340.179 C 241.316 339.863,241.675 339.447,241.675 339.254 C 241.675 338.783,243.891 336.740,245.313 335.900 C 245.944 335.527,246.461 335.081,246.461 334.909 C 246.461 334.737,246.809 334.596,247.235 334.596 C 247.660 334.596,248.120 334.417,248.255 334.197 C 248.391 333.978,248.850 333.799,249.276 333.799 C 249.702 333.799,250.050 333.619,250.050 333.400 C 250.050 333.158,251.778 333.001,254.437 333.001 C 256.849 333.001,258.824 333.137,258.824 333.302 M102.493 348.308 C 102.493 349.295,102.681 350.219,102.912 350.361 C 103.186 350.531,103.298 349.981,103.235 348.767 C 103.110 346.354,102.493 345.973,102.493 348.308 M104.094 357.228 C 104.112 358.102,104.873 358.683,104.879 357.827 C 104.883 357.333,104.706 356.929,104.487 356.929 C 104.267 356.929,104.090 357.064,104.094 357.228 M105.055 360.359 C 105.288 361.105,105.615 361.715,105.781 361.715 C 105.946 361.715,106.082 362.074,106.082 362.512 C 106.082 362.951,106.261 363.310,106.481 363.310 C 106.700 363.310,106.879 363.669,106.879 364.108 C 106.879 364.546,107.059 364.905,107.278 364.905 C 107.498 364.905,107.677 365.264,107.677 365.703 C 107.677 366.142,107.826 366.500,108.008 366.500 C 108.191 366.500,108.594 366.994,108.906 367.597 C 109.542 368.830,110.275 369.691,110.688 369.691 C 110.841 369.691,110.742 369.422,110.469 369.093 C 110.196 368.764,110.111 368.495,110.281 368.495 C 110.451 368.495,110.204 368.159,109.732 367.750 C 109.260 367.340,108.873 366.723,108.873 366.378 C 108.873 366.032,108.691 365.637,108.467 365.499 C 107.947 365.177,106.273 361.838,105.943 360.463 C 105.804 359.884,105.452 359.319,105.160 359.207 C 104.735 359.043,104.714 359.269,105.055 360.359 M110.867 370.330 C 110.867 370.697,114.980 374.855,115.354 374.866 C 116.045 374.887,115.548 374.036,113.958 372.475 C 112.244 370.793,110.867 369.838,110.867 370.330 M115.847 374.884 C 115.580 375.317,118.379 378.265,118.727 377.917 C 118.852 377.791,118.309 376.972,117.518 376.097 C 116.727 375.222,115.976 374.676,115.847 374.884 M120.439 379.091 C 120.439 379.515,121.671 380.555,121.901 380.326 C 122.026 380.200,121.851 379.820,121.512 379.481 C 120.878 378.847,120.439 378.688,120.439 379.091 M122.433 380.562 C 122.433 381.034,123.973 382.258,124.220 381.982 C 124.282 381.912,124.181 381.451,123.994 380.957 C 123.636 380.010,122.433 379.706,122.433 380.562 M124.829 382.353 C 124.830 382.517,125.275 382.858,125.818 383.109 C 126.720 383.528,126.769 383.503,126.399 382.810 C 126.009 382.083,124.822 381.737,124.829 382.353 M129.079 384.314 C 128.574 384.819,128.817 385.244,129.611 385.244 C 130.050 385.244,130.409 385.424,130.409 385.643 C 130.409 385.862,130.768 386.042,131.206 386.042 C 131.645 386.042,132.004 386.221,132.004 386.441 C 132.004 386.660,132.239 386.839,132.527 386.839 C 132.815 386.839,133.793 387.198,134.701 387.637 C 135.609 388.076,136.543 388.435,136.776 388.435 C 137.181 388.435,137.584 388.602,139.395 389.518 C 141.430 390.548,142.846 390.570,142.705 389.570 C 142.587 388.735,142.390 388.646,140.875 388.741 C 139.673 388.817,139.207 388.701,139.280 388.343 C 139.336 388.064,139.113 387.832,138.784 387.826 C 138.455 387.820,137.961 387.675,137.687 387.503 C 137.413 387.332,137.029 387.290,136.835 387.410 C 136.641 387.530,136.386 387.264,136.270 386.819 C 136.101 386.174,135.849 386.063,135.028 386.269 C 134.385 386.430,133.998 386.361,133.998 386.085 C 133.998 385.842,133.466 385.643,132.816 385.643 C 132.041 385.643,131.486 385.368,131.206 384.845 C 130.791 384.070,129.617 383.776,129.079 384.314 M145.406 390.496 C 145.600 390.810,145.477 390.880,145.031 390.708 C 144.666 390.568,144.367 390.628,144.367 390.840 C 144.367 391.052,144.816 391.226,145.364 391.226 C 145.984 391.226,146.361 391.000,146.361 390.628 C 146.361 390.299,146.081 390.030,145.739 390.030 C 145.366 390.030,145.233 390.216,145.406 390.496 M149.153 391.255 C 149.153 392.016,150.266 392.822,151.317 392.822 C 151.881 392.822,152.343 393.001,152.343 393.220 C 152.343 393.440,152.762 393.619,153.274 393.619 C 153.852 393.619,154.204 393.383,154.204 392.994 C 154.204 392.547,153.951 392.433,153.315 392.593 C 152.737 392.738,152.346 392.608,152.198 392.220 C 152.072 391.893,151.694 391.625,151.358 391.625 C 151.023 391.625,150.748 391.446,150.748 391.226 C 150.748 391.007,150.389 390.828,149.950 390.828 C 149.511 390.828,149.153 391.020,149.153 391.255 " stroke="none" fill="#fccc3b" fill-rule="evenodd"></path><path id="path1" d="M308.674 126.813 C 308.674 144.365,308.537 153.539,308.275 153.539 C 308.056 153.539,307.876 153.729,307.876 153.962 C 307.876 154.194,308.056 154.273,308.275 154.138 C 308.495 154.002,308.674 154.171,308.674 154.513 C 308.674 154.855,308.495 155.135,308.275 155.135 C 308.056 155.135,307.876 155.927,307.876 156.896 C 307.876 157.915,307.666 158.755,307.378 158.890 C 306.979 159.076,306.979 159.169,307.378 159.355 C 307.994 159.643,308.039 160.718,307.435 160.718 C 307.192 160.718,307.095 160.982,307.219 161.305 C 307.342 161.627,307.182 162.153,306.862 162.472 C 306.543 162.792,306.281 163.594,306.281 164.255 C 306.281 164.916,306.102 165.567,305.882 165.703 C 305.663 165.838,305.484 166.556,305.484 167.298 C 305.484 168.040,305.304 168.758,305.085 168.893 C 304.865 169.029,304.686 169.578,304.686 170.113 C 304.686 170.649,304.529 171.087,304.337 171.087 C 304.034 171.087,303.812 171.738,303.266 174.237 C 303.199 174.544,302.930 174.927,302.670 175.088 C 302.409 175.250,302.274 175.615,302.369 175.901 C 302.464 176.187,302.221 176.742,301.829 177.135 C 301.403 177.560,301.219 178.120,301.373 178.521 C 301.546 178.972,301.479 179.100,301.169 178.908 C 300.867 178.722,300.789 178.837,300.945 179.242 C 301.098 179.643,300.957 179.860,300.541 179.860 C 300.189 179.860,299.900 180.050,299.900 180.283 C 299.900 180.515,299.746 180.610,299.558 180.493 C 299.369 180.377,299.265 180.736,299.326 181.291 C 299.406 182.024,299.181 182.416,298.503 182.725 C 297.990 182.959,297.658 183.379,297.766 183.658 C 297.873 183.938,297.769 184.285,297.535 184.430 C 297.300 184.575,297.109 184.965,297.109 185.296 C 297.109 185.980,296.173 187.039,295.569 187.039 C 295.349 187.039,295.061 187.353,294.929 187.737 C 294.798 188.121,294.113 188.797,293.407 189.241 C 292.701 189.684,292.124 190.235,292.124 190.465 C 292.124 191.196,290.399 192.538,289.133 192.793 C 288.501 192.920,286.807 194.802,287.018 195.143 C 287.168 195.385,287.013 195.451,286.635 195.306 C 286.286 195.172,285.795 195.310,285.543 195.613 C 285.292 195.916,284.853 196.075,284.569 195.965 C 284.284 195.856,283.949 196.033,283.824 196.358 C 283.700 196.683,282.914 197.267,282.078 197.655 C 281.242 198.044,280.413 198.600,280.235 198.890 C 280.057 199.181,279.726 199.304,279.499 199.164 C 279.074 198.901,277.347 199.644,276.478 200.463 C 276.207 200.718,275.596 200.824,275.119 200.699 C 274.524 200.544,274.342 200.617,274.537 200.934 C 274.808 201.372,274.096 201.583,272.881 201.426 C 272.607 201.390,272.383 201.548,272.383 201.777 C 272.383 202.010,271.518 202.193,270.422 202.193 C 269.344 202.193,268.398 202.384,268.320 202.616 C 268.243 202.849,267.555 203.054,266.792 203.073 C 266.028 203.092,265.269 203.305,265.105 203.548 C 264.895 203.857,264.701 203.826,264.455 203.444 C 264.187 203.028,264.066 203.017,263.939 203.397 C 263.825 203.740,262.868 203.874,260.829 203.832 C 258.827 203.791,257.779 203.934,257.556 204.279 C 257.318 204.647,257.147 204.663,256.929 204.334 C 256.551 203.764,254.353 203.730,254.706 204.300 C 254.872 204.569,254.627 204.607,254.001 204.411 C 252.484 203.935,156.819 203.620,156.231 204.089 C 155.957 204.308,154.118 204.520,152.144 204.561 C 150.169 204.602,148.384 204.804,148.175 205.010 C 147.967 205.215,147.025 205.384,146.082 205.384 C 145.139 205.384,144.367 205.563,144.367 205.783 C 144.367 206.002,143.739 206.181,142.971 206.181 C 142.203 206.181,141.575 206.361,141.575 206.580 C 141.575 206.800,140.868 206.979,140.004 206.979 C 139.139 206.979,138.321 207.159,138.185 207.378 C 138.050 207.597,137.511 207.777,136.989 207.777 C 136.467 207.777,135.921 207.968,135.776 208.203 C 135.631 208.437,135.262 208.532,134.955 208.415 C 134.626 208.288,134.397 208.452,134.397 208.815 C 134.397 209.220,134.092 209.390,133.500 209.314 C 133.006 209.250,131.436 209.771,130.010 210.472 C 126.121 212.384,122.278 214.711,121.151 215.838 C 120.759 216.230,120.259 216.550,120.040 216.550 C 119.821 216.550,119.641 216.820,119.641 217.149 C 119.641 217.478,119.353 217.747,119.000 217.747 C 118.397 217.747,114.457 221.588,114.457 222.176 C 114.457 222.326,113.642 223.311,112.646 224.365 C 110.852 226.265,106.082 235.162,106.082 236.610 C 106.082 236.983,105.918 237.288,105.717 237.288 C 105.517 237.288,105.435 238.006,105.536 238.883 C 105.671 240.058,105.575 240.479,105.172 240.479 C 104.791 240.479,104.678 240.842,104.800 241.675 C 104.906 242.393,104.798 242.871,104.532 242.871 C 104.265 242.871,104.088 243.666,104.088 244.865 C 104.088 245.962,103.908 246.859,103.689 246.859 C 103.425 246.859,103.290 263.598,103.290 296.278 C 103.290 335.457,103.187 345.731,102.792 345.864 C 102.418 345.990,102.405 346.173,102.740 346.595 C 102.986 346.905,103.222 348.684,103.264 350.548 C 103.306 352.413,103.509 354.109,103.714 354.317 C 103.920 354.525,104.088 355.198,104.088 355.813 C 104.088 356.427,104.280 356.929,104.515 356.929 C 104.750 356.929,104.887 357.349,104.820 357.861 C 104.753 358.374,105.009 359.104,105.390 359.485 C 105.770 359.865,106.082 360.439,106.082 360.760 C 106.082 361.499,107.927 365.165,108.467 365.499 C 108.691 365.637,108.873 366.059,108.873 366.436 C 108.873 366.813,109.223 367.374,109.650 367.682 C 110.077 367.989,110.349 368.365,110.255 368.517 C 110.072 368.813,110.878 369.696,113.802 372.401 C 114.820 373.342,115.653 374.315,115.653 374.561 C 115.653 374.807,115.757 374.904,115.885 374.777 C 116.012 374.649,116.775 375.291,117.579 376.202 C 119.858 378.781,119.950 378.863,120.522 378.863 C 120.818 378.863,121.302 379.199,121.598 379.610 C 121.917 380.052,122.439 380.278,122.876 380.164 C 123.401 380.027,123.730 380.272,124.011 381.012 C 124.261 381.669,124.710 382.054,125.227 382.054 C 125.678 382.054,126.149 382.319,126.273 382.642 C 126.605 383.509,128.593 384.378,129.739 384.159 C 130.467 384.020,130.858 384.195,131.185 384.806 C 131.486 385.367,132.023 385.643,132.816 385.643 C 133.466 385.643,133.998 385.842,133.998 386.085 C 133.998 386.361,134.385 386.430,135.028 386.269 C 135.849 386.063,136.101 386.174,136.270 386.819 C 136.386 387.264,136.641 387.530,136.835 387.410 C 137.029 387.290,137.413 387.332,137.687 387.503 C 137.961 387.675,138.455 387.820,138.784 387.826 C 139.113 387.832,139.336 388.064,139.280 388.343 C 139.207 388.701,139.673 388.817,140.875 388.741 C 142.370 388.647,142.587 388.741,142.700 389.531 C 142.779 390.092,143.103 390.429,143.564 390.429 C 143.970 390.429,144.615 390.549,144.998 390.696 C 145.473 390.878,145.602 390.815,145.406 390.496 C 145.233 390.216,145.366 390.030,145.739 390.030 C 146.081 390.030,146.361 390.234,146.361 390.484 C 146.361 391.097,147.593 391.996,148.455 392.011 C 148.838 392.018,149.153 391.755,149.153 391.426 C 149.153 391.093,149.507 390.828,149.950 390.828 C 150.389 390.828,150.748 391.007,150.748 391.226 C 150.748 391.446,151.023 391.625,151.358 391.625 C 151.694 391.625,152.072 391.893,152.198 392.220 C 152.357 392.636,152.733 392.739,153.441 392.561 C 154.117 392.391,154.367 392.450,154.191 392.736 C 154.045 392.972,154.108 393.278,154.330 393.416 C 154.553 393.553,154.736 393.389,154.736 393.051 C 154.736 392.712,156.082 391.090,157.727 389.445 C 159.372 387.800,160.718 386.267,160.718 386.040 C 160.718 385.812,163.858 382.491,167.697 378.658 C 171.535 374.826,174.676 371.507,174.676 371.283 C 174.676 371.059,177.817 367.738,181.655 363.903 C 185.494 360.067,188.634 356.744,188.634 356.517 C 188.634 356.291,191.775 352.979,195.613 349.158 C 199.452 345.337,202.592 342.019,202.592 341.785 C 202.592 341.551,205.823 338.137,209.771 334.197 C 213.719 330.258,216.949 326.934,216.949 326.811 C 216.949 326.425,217.768 325.550,224.427 318.819 C 227.991 315.217,230.907 312.080,230.907 311.849 C 230.907 311.348,232.425 309.778,233.481 309.187 C 234.030 308.879,230.870 308.686,221.803 308.470 C 214.966 308.307,209.372 308.017,209.372 307.826 C 209.372 307.634,207.308 307.478,204.786 307.478 L 200.199 307.478 200.199 300.897 L 200.199 294.317 208.275 294.321 C 230.863 294.332,249.651 293.405,249.651 292.279 C 249.651 292.089,251.535 290.049,253.838 287.746 C 256.142 285.443,258.026 283.369,258.026 283.138 C 258.026 282.907,259.506 281.289,261.316 279.542 C 265.099 275.890,265.011 275.978,268.985 271.891 C 270.635 270.194,271.984 268.618,271.984 268.389 C 271.984 268.159,274.003 265.996,276.471 263.583 C 281.723 258.446,281.086 259.082,283.791 256.282 C 284.974 255.057,285.942 253.867,285.942 253.637 C 285.942 253.407,288.272 250.935,291.119 248.145 C 293.966 245.354,296.702 242.670,297.200 242.180 C 298.973 240.435,299.900 239.305,299.900 238.888 C 299.900 238.433,311.181 227.105,312.602 226.133 C 313.074 225.811,313.460 225.229,313.460 224.840 C 313.460 224.452,316.421 221.172,320.040 217.553 C 323.659 213.934,326.620 210.715,326.620 210.399 C 326.620 210.083,326.934 209.718,327.318 209.589 C 327.702 209.459,328.465 208.805,329.013 208.134 C 329.561 207.464,331.491 205.407,333.300 203.563 C 335.110 201.719,336.590 200.021,336.590 199.789 C 336.590 199.557,338.071 197.941,339.880 196.197 C 346.647 189.675,349.751 186.418,349.751 185.839 C 349.751 185.608,351.770 183.450,354.237 181.044 C 362.901 172.597,362.911 172.587,362.911 171.892 C 362.911 171.469,373.714 160.626,376.030 158.724 C 376.698 158.175,377.250 157.495,377.256 157.211 C 377.273 156.503,377.469 156.285,384.289 149.386 C 388.154 145.476,390.385 142.914,390.515 142.235 C 390.714 141.190,390.310 140.800,389.831 141.575 C 389.458 142.178,388.833 142.053,388.833 141.376 C 388.833 141.047,388.993 140.778,389.188 140.778 C 390.013 140.778,390.063 138.013,389.266 136.503 C 388.828 135.673,388.462 135.219,388.452 135.494 C 388.429 136.158,387.238 136.138,387.238 135.474 C 387.238 135.188,387.436 134.758,387.677 134.517 C 388.337 133.857,387.713 132.403,386.770 132.403 C 386.211 132.403,386.028 132.216,386.186 131.805 C 386.326 131.439,386.030 130.955,385.418 130.555 C 384.476 129.938,384.458 129.861,385.092 129.160 C 385.731 128.455,385.703 128.407,384.518 128.170 C 383.464 127.959,383.333 127.809,383.662 127.195 C 383.916 126.719,383.912 126.384,383.650 126.222 C 383.430 126.086,383.250 125.630,383.250 125.208 C 383.250 124.724,382.884 124.350,382.256 124.192 C 381.444 123.989,381.306 123.768,381.502 122.988 C 381.647 122.412,381.567 122.034,381.299 122.034 C 381.056 122.034,380.857 121.765,380.857 121.436 C 380.857 121.062,380.480 120.837,379.853 120.837 C 378.991 120.837,378.882 120.701,379.089 119.878 C 379.275 119.136,379.141 118.859,378.498 118.655 C 378.041 118.510,377.667 118.211,377.667 117.991 C 377.667 117.548,376.477 116.251,376.072 116.251 C 375.498 116.251,374.625 115.008,374.808 114.453 C 374.976 113.946,374.909 113.938,374.349 114.400 C 373.709 114.928,372.881 113.807,372.881 112.413 C 372.881 112.195,372.724 112.114,372.533 112.232 C 372.341 112.351,371.850 112.002,371.441 111.458 C 371.032 110.914,370.384 110.469,370.000 110.469 C 369.376 110.469,368.532 109.930,367.154 108.652 C 366.904 108.420,366.386 108.112,366.002 107.966 C 365.618 107.821,365.304 107.450,365.304 107.141 C 365.304 106.534,362.945 105.216,362.429 105.535 C 362.256 105.642,362.114 105.540,362.114 105.308 C 362.114 105.075,361.755 104.885,361.316 104.885 C 360.877 104.885,360.518 104.706,360.518 104.487 C 360.518 104.267,360.023 104.088,359.418 104.088 C 358.749 104.088,358.122 103.775,357.819 103.290 C 357.502 102.781,356.889 102.493,356.128 102.493 C 355.472 102.493,354.935 102.313,354.935 102.094 C 354.935 101.874,354.522 101.695,354.018 101.695 C 353.513 101.695,352.926 101.520,352.712 101.307 C 352.266 100.860,348.484 100.647,347.859 101.033 C 347.630 101.175,347.341 101.030,347.218 100.710 C 347.027 100.212,344.239 100.126,327.835 100.107 L 308.674 100.086 308.674 126.813 M391.655 145.727 C 391.335 146.112,391.320 146.372,391.606 146.548 C 391.836 146.690,392.038 146.751,392.054 146.684 C 392.442 145.120,392.347 144.893,391.655 145.727 M392.290 147.424 C 391.804 147.910,392.015 148.754,392.622 148.754 C 392.954 148.754,393.220 148.399,393.220 147.956 C 393.220 147.162,392.795 146.919,392.290 147.424 " stroke="none" fill="#fcd646" fill-rule="evenodd"></path><path id="path2" d="M174.477 0.466 C 164.756 1.170,163.705 1.279,163.502 1.607 C 163.387 1.794,161.911 1.984,160.222 2.029 C 158.534 2.073,157.248 2.263,157.364 2.451 C 157.480 2.638,156.767 2.792,155.780 2.792 C 154.793 2.792,153.874 2.971,153.739 3.190 C 153.603 3.410,152.821 3.589,152.000 3.589 C 151.180 3.589,150.338 3.750,150.130 3.947 C 149.921 4.144,149.033 4.403,148.156 4.523 C 145.385 4.901,143.776 5.284,143.559 5.617 C 143.444 5.794,142.602 5.983,141.688 6.037 C 140.775 6.091,140.117 6.280,140.227 6.457 C 140.396 6.731,138.838 6.977,137.886 6.827 C 137.722 6.801,137.587 6.959,137.587 7.178 C 137.587 7.398,137.258 7.577,136.856 7.577 C 136.454 7.577,136.002 7.700,135.852 7.851 C 135.391 8.311,132.675 9.142,132.329 8.928 C 132.150 8.817,132.004 9.010,132.004 9.356 C 132.004 9.806,131.726 9.935,131.030 9.809 C 130.494 9.712,129.997 9.810,129.924 10.028 C 129.778 10.465,124.564 12.762,123.717 12.762 C 123.423 12.762,123.283 12.924,123.406 13.122 C 123.528 13.320,123.090 13.669,122.432 13.899 C 121.774 14.128,121.236 14.504,121.236 14.735 C 121.236 14.966,121.012 15.155,120.738 15.155 C 120.464 15.155,119.722 15.600,119.091 16.143 C 118.459 16.687,117.741 17.017,117.495 16.877 C 117.250 16.737,117.181 16.767,117.342 16.945 C 117.731 17.376,116.458 18.315,115.454 18.338 C 114.791 18.354,114.758 18.423,115.254 18.744 C 115.583 18.956,115.660 19.133,115.424 19.136 C 114.986 19.143,110.070 23.737,110.070 24.141 C 110.070 24.263,109.621 24.812,109.073 25.360 C 108.524 25.909,108.076 26.599,108.076 26.895 C 108.076 27.190,107.827 27.527,107.524 27.644 C 107.220 27.760,106.560 28.767,106.057 29.880 C 105.554 30.993,105.011 31.904,104.852 31.904 C 104.692 31.904,104.650 32.243,104.758 32.657 C 104.866 33.071,104.760 33.530,104.521 33.677 C 104.283 33.825,104.088 34.394,104.088 34.942 C 104.088 35.491,103.943 35.850,103.765 35.740 C 103.588 35.631,103.405 36.293,103.358 37.212 C 103.311 38.131,103.081 39.364,102.846 39.951 C 102.126 41.755,102.530 88.616,103.274 89.512 C 103.826 90.177,106.428 90.207,151.846 90.072 C 199.563 89.931,199.837 89.935,200.032 90.728 C 200.140 91.167,200.177 94.128,200.114 97.308 L 200.000 103.091 181.480 103.194 C 169.402 103.262,162.819 103.158,162.556 102.895 C 162.001 102.340,57.172 102.336,56.830 102.891 C 56.694 103.111,55.517 103.290,54.214 103.290 C 52.900 103.290,51.844 103.468,51.844 103.689 C 51.844 103.908,51.037 104.088,50.050 104.088 C 49.063 104.088,48.255 104.267,48.255 104.487 C 48.255 104.706,47.804 104.885,47.253 104.885 C 46.701 104.885,45.894 105.065,45.458 105.284 C 45.022 105.503,44.310 105.862,43.874 106.082 C 43.438 106.301,42.810 106.481,42.478 106.481 C 42.146 106.481,41.874 106.660,41.874 106.879 C 41.874 107.099,41.325 107.278,40.654 107.278 C 39.943 107.278,39.537 107.444,39.681 107.677 C 39.817 107.896,39.569 108.076,39.130 108.076 C 38.691 108.076,38.219 108.258,38.082 108.481 C 37.944 108.704,37.664 108.783,37.460 108.657 C 37.256 108.531,37.089 108.720,37.089 109.078 C 37.089 109.478,36.825 109.679,36.406 109.598 C 36.031 109.526,35.282 109.876,34.742 110.376 C 34.203 110.876,33.343 111.390,32.833 111.518 C 32.322 111.647,31.904 111.908,31.904 112.099 C 31.904 112.290,31.231 112.802,30.409 113.238 C 29.586 113.673,28.220 114.664,27.374 115.439 C 26.527 116.215,25.664 116.849,25.456 116.849 C 25.248 116.849,25.151 116.984,25.240 117.149 C 25.445 117.525,22.842 120.017,22.549 119.724 C 22.430 119.605,22.333 119.762,22.333 120.073 C 22.332 120.806,20.537 122.897,20.199 122.559 C 20.057 122.416,19.940 122.559,19.940 122.876 C 19.940 123.194,19.581 123.712,19.143 124.028 C 18.704 124.344,18.345 124.910,18.345 125.285 C 18.345 125.661,18.004 126.076,17.587 126.209 C 17.170 126.341,16.726 126.858,16.601 127.358 C 16.303 128.545,14.964 130.077,14.552 129.704 C 14.374 129.543,14.365 129.647,14.531 129.935 C 14.700 130.228,14.581 130.756,14.262 131.132 C 13.948 131.502,13.461 132.386,13.180 133.096 C 12.899 133.806,12.511 134.289,12.317 134.169 C 12.123 134.049,11.964 134.300,11.964 134.726 C 11.964 135.802,10.959 137.639,10.565 137.282 C 10.387 137.121,10.370 137.213,10.527 137.487 C 10.766 137.902,9.869 140.081,9.172 140.778 C 9.063 140.887,8.914 141.336,8.842 141.775 C 8.770 142.213,8.437 142.998,8.103 143.519 C 7.645 144.231,7.628 144.389,8.034 144.158 C 8.470 143.911,8.478 143.955,8.076 144.388 C 7.802 144.684,7.577 145.338,7.577 145.842 C 7.577 146.347,7.398 146.760,7.178 146.760 C 6.959 146.760,6.780 147.298,6.780 147.956 C 6.780 148.614,6.600 149.153,6.381 149.153 C 6.162 149.153,5.982 149.691,5.982 150.349 C 5.982 151.007,5.803 151.545,5.583 151.545 C 5.364 151.545,5.184 152.073,5.184 152.718 C 5.184 153.363,5.005 154.002,4.786 154.138 C 4.566 154.273,4.387 154.991,4.387 155.733 C 4.387 156.475,4.207 157.192,3.988 157.328 C 3.769 157.464,3.589 158.271,3.589 159.123 C 3.589 159.974,3.410 160.782,3.190 160.917 C 2.971 161.053,2.792 161.860,2.792 162.712 C 2.792 163.563,2.612 164.371,2.393 164.506 C 2.173 164.642,1.994 165.819,1.994 167.122 C 1.994 168.425,1.829 169.492,1.628 169.492 C 1.427 169.492,1.170 170.703,1.058 172.183 C 0.946 173.664,0.647 177.478,0.393 180.658 C -0.280 189.095,0.130 221.998,0.919 222.787 C 1.072 222.939,1.196 224.111,1.196 225.390 C 1.196 226.670,1.331 227.717,1.496 227.718 C 1.660 227.719,1.851 228.747,1.919 230.003 C 1.987 231.259,2.232 232.403,2.462 232.546 C 2.731 232.712,2.687 232.870,2.338 232.988 C 1.916 233.130,1.899 233.297,2.264 233.739 C 2.522 234.052,2.788 235.412,2.855 236.762 C 2.921 238.111,3.114 239.130,3.283 239.026 C 3.451 238.922,3.589 239.375,3.589 240.033 C 3.589 240.691,3.769 241.340,3.988 241.476 C 4.207 241.611,4.387 242.508,4.387 243.470 C 4.387 244.431,4.566 245.328,4.786 245.464 C 5.005 245.599,5.184 246.238,5.184 246.883 C 5.184 247.528,5.364 248.056,5.583 248.056 C 5.803 248.056,5.982 248.673,5.982 249.428 C 5.982 250.183,6.162 250.911,6.381 251.047 C 6.600 251.182,6.780 251.608,6.780 251.992 C 6.780 252.377,7.163 253.103,7.632 253.606 C 8.267 254.287,8.358 254.599,7.990 254.827 C 7.631 255.049,7.739 255.302,8.384 255.754 C 9.064 256.230,9.229 256.661,9.091 257.600 C 8.964 258.466,9.074 258.824,9.468 258.824 C 9.845 258.824,9.952 259.113,9.801 259.721 C 9.679 260.214,9.682 260.394,9.808 260.120 C 10.125 259.428,10.768 259.494,10.768 260.219 C 10.768 260.548,10.944 260.818,11.159 260.818 C 11.378 260.818,11.506 261.739,11.449 262.911 C 11.349 264.975,12.179 266.401,13.480 266.401 C 13.696 266.401,13.976 266.670,14.102 266.999 C 14.229 267.328,14.158 267.597,13.946 267.597 C 13.733 267.597,13.559 267.956,13.559 268.395 C 13.559 268.923,13.825 269.192,14.348 269.192 C 14.781 269.192,15.443 269.686,15.817 270.289 C 16.192 270.892,16.855 271.790,17.292 272.283 C 17.989 273.072,18.005 273.180,17.417 273.180 C 17.050 273.180,16.755 273.315,16.762 273.480 C 16.792 274.178,17.896 275.174,18.639 275.174 C 19.637 275.174,20.798 276.413,20.040 276.668 C 19.766 276.761,19.541 277.011,19.541 277.225 C 19.541 277.439,19.716 277.507,19.929 277.375 C 20.563 276.983,22.409 278.391,21.964 278.927 C 21.444 279.554,22.103 280.532,22.852 280.245 C 23.677 279.928,24.017 280.369,23.463 281.037 C 23.117 281.454,23.122 281.706,23.483 282.067 C 23.855 282.439,24.034 282.428,24.289 282.016 C 24.869 281.077,26.110 281.748,26.725 283.336 C 27.037 284.143,27.041 284.143,27.358 283.353 C 27.534 282.915,29.080 281.210,30.795 279.564 C 32.510 277.917,35.749 274.731,37.994 272.482 C 40.238 270.233,44.093 266.375,46.560 263.908 C 49.027 261.440,52.527 257.941,54.337 256.130 C 62.747 247.718,67.657 242.810,70.687 239.787 C 75.414 235.070,76.567 233.788,76.597 233.212 C 76.611 232.931,78.051 231.356,79.795 229.711 C 81.540 228.066,84.623 225.059,86.648 223.030 C 90.435 219.234,93.371 216.296,111.165 198.503 C 114.126 195.542,117.805 191.863,119.340 190.327 C 120.876 188.792,124.555 185.113,127.516 182.152 C 130.477 179.190,133.976 175.691,135.292 174.375 C 136.608 173.058,140.466 169.200,143.866 165.800 C 147.265 162.400,150.921 158.744,151.990 157.675 C 158.028 151.640,161.518 147.907,161.537 147.463 C 161.549 147.186,162.453 146.152,163.545 145.165 C 164.637 144.177,166.467 142.426,167.611 141.273 C 168.755 140.119,172.449 136.417,175.821 133.046 C 183.475 125.392,184.331 124.536,192.467 116.399 C 196.114 112.751,199.816 109.048,200.694 108.171 C 201.571 107.294,205.249 103.614,208.868 99.995 C 212.487 96.375,215.986 92.875,216.644 92.217 C 217.302 91.559,220.956 87.904,224.765 84.095 C 228.574 80.285,232.277 76.587,232.994 75.876 C 235.571 73.319,236.889 71.800,236.889 71.387 C 236.889 71.156,239.447 68.456,242.572 65.388 C 245.698 62.319,248.565 59.497,248.943 59.117 C 249.322 58.736,253.001 55.055,257.119 50.937 C 261.237 46.819,264.940 43.116,265.349 42.707 C 265.758 42.299,269.380 38.669,273.398 34.641 C 277.416 30.613,280.940 27.118,281.229 26.873 C 281.518 26.628,282.021 26.042,282.346 25.570 C 282.672 25.098,283.165 24.799,283.443 24.906 C 283.721 25.012,283.948 24.926,283.948 24.713 C 283.948 24.501,283.769 24.327,283.549 24.327 C 282.834 24.327,283.130 23.131,283.848 23.118 C 284.412 23.108,284.340 22.924,283.475 22.162 C 282.886 21.643,282.512 21.110,282.644 20.978 C 282.776 20.846,282.506 20.738,282.044 20.738 C 281.582 20.738,281.093 20.917,280.957 21.137 C 280.435 21.982,279.991 21.479,280.226 20.306 C 280.465 19.110,280.437 19.082,279.196 19.278 C 278.090 19.452,277.987 19.399,278.423 18.873 C 278.845 18.364,278.801 18.283,278.147 18.367 C 276.912 18.526,276.039 17.974,276.250 17.168 C 276.449 16.408,275.523 15.503,275.284 16.222 C 275.208 16.449,274.699 16.548,274.152 16.444 C 273.369 16.294,273.211 16.084,273.411 15.455 C 273.733 14.442,273.014 13.972,271.133 13.964 C 269.986 13.959,269.637 13.779,269.459 13.095 C 269.268 12.366,269.137 12.311,268.614 12.745 C 268.274 13.027,267.974 13.146,267.946 13.010 C 267.919 12.873,267.851 12.582,267.797 12.363 C 267.742 12.144,267.674 11.852,267.647 11.716 C 267.620 11.579,267.328 11.691,266.999 11.964 C 266.499 12.379,266.401 12.321,266.401 11.614 C 266.401 11.128,266.146 10.768,265.803 10.768 C 265.474 10.768,265.204 10.947,265.204 11.167 C 265.204 11.386,265.021 11.565,264.798 11.565 C 264.574 11.565,264.476 11.072,264.580 10.469 C 264.749 9.489,264.714 9.447,264.245 10.070 C 263.957 10.454,263.561 10.767,263.366 10.767 C 262.867 10.767,260.790 8.934,261.024 8.700 C 261.213 8.512,260.520 8.383,259.114 8.345 C 258.687 8.334,258.513 8.139,258.674 7.852 C 258.858 7.525,258.774 7.532,258.403 7.876 C 257.623 8.601,256.184 8.554,256.791 7.823 C 257.320 7.186,256.623 6.780,255.002 6.780 C 254.472 6.780,254.038 6.600,254.038 6.381 C 254.038 6.162,253.769 5.982,253.440 5.982 C 253.111 5.982,252.841 6.162,252.841 6.381 C 252.841 7.074,251.858 6.813,251.339 5.982 C 251.021 5.473,250.409 5.184,249.648 5.184 C 248.992 5.184,248.455 5.005,248.455 4.786 C 248.455 4.566,247.658 4.387,246.684 4.387 C 245.709 4.387,244.802 4.207,244.666 3.988 C 244.345 3.469,242.871 3.469,242.871 3.988 C 242.871 4.739,241.370 4.389,241.161 3.589 C 240.987 2.925,240.617 2.792,238.944 2.792 C 237.840 2.792,236.825 2.612,236.690 2.393 C 236.336 1.820,234.896 1.900,234.889 2.493 C 234.885 2.846,234.798 2.861,234.590 2.543 C 234.330 2.145,232.256 1.711,227.119 0.979 C 220.728 0.069,184.789 -0.282,174.477 0.466 M282.210 21.934 C 282.534 21.934,282.683 22.122,282.540 22.352 C 282.229 22.856,281.140 22.079,281.188 21.387 C 281.208 21.104,281.294 21.122,281.421 21.436 C 281.531 21.710,281.887 21.934,282.210 21.934 M284.988 24.257 C 284.731 24.673,285.739 25.922,286.332 25.922 C 286.515 25.922,286.571 26.284,286.455 26.726 C 286.293 27.344,286.394 27.472,286.891 27.281 C 287.247 27.145,287.537 26.884,287.537 26.702 C 287.537 26.061,285.237 23.855,284.988 24.257 M288.833 28.726 C 287.698 29.183,287.705 29.318,288.867 29.415 C 289.456 29.463,289.797 29.276,289.797 28.903 C 289.797 28.580,289.782 28.326,289.764 28.340 C 289.746 28.354,289.327 28.528,288.833 28.726 M289.330 30.312 C 289.194 30.533,289.370 30.824,289.723 30.959 C 290.486 31.252,290.912 30.929,290.545 30.336 C 290.214 29.800,289.654 29.789,289.330 30.312 M148.953 31.904 C 149.089 32.124,149.727 32.303,150.372 32.303 C 151.018 32.303,151.545 32.483,151.545 32.702 C 151.545 32.921,151.885 33.101,152.300 33.101 C 152.716 33.101,153.159 33.370,153.285 33.699 C 153.411 34.028,153.750 34.297,154.038 34.297 C 154.936 34.297,158.680 38.178,159.412 39.867 C 159.795 40.752,160.256 41.476,160.437 41.476 C 160.617 41.476,160.674 41.623,160.562 41.803 C 160.451 41.984,160.620 42.632,160.938 43.245 C 161.622 44.563,161.783 52.854,161.117 52.443 C 160.891 52.303,160.718 52.633,160.718 53.203 C 160.718 54.126,159.231 57.227,158.170 58.517 C 157.045 59.885,155.287 61.412,154.835 61.414 C 154.561 61.415,154.337 61.606,154.337 61.838 C 154.337 62.070,154.176 62.161,153.980 62.040 C 153.784 61.918,153.516 62.099,153.385 62.440 C 153.253 62.782,152.965 62.950,152.745 62.813 C 152.524 62.677,152.343 62.711,152.343 62.890 C 152.343 64.116,144.167 65.566,142.446 64.646 C 142.077 64.448,141.236 64.194,140.578 64.081 C 139.046 63.817,136.762 62.990,136.048 62.441 C 134.122 60.958,130.758 57.227,130.196 55.950 C 129.829 55.118,129.368 54.078,129.170 53.639 C 128.972 53.200,128.744 52.303,128.665 51.645 C 128.585 50.987,128.386 50.132,128.223 49.746 C 128.060 49.359,128.047 48.462,128.193 47.752 C 128.340 47.042,128.558 45.743,128.678 44.865 C 128.797 43.988,129.056 43.100,129.253 42.891 C 129.450 42.683,129.611 42.100,129.611 41.595 C 129.611 41.091,129.791 40.678,130.010 40.678 C 130.229 40.678,130.409 40.409,130.409 40.080 C 130.409 39.751,130.588 39.482,130.808 39.482 C 131.027 39.482,131.206 39.239,131.206 38.943 C 131.206 38.380,134.986 34.696,135.563 34.696 C 135.745 34.696,136.115 34.430,136.384 34.106 C 137.021 33.339,139.108 32.303,140.018 32.303 C 140.410 32.303,140.842 32.124,140.977 31.904 C 141.113 31.684,142.901 31.505,144.965 31.505 C 147.029 31.505,148.817 31.684,148.953 31.904 M295.912 145.207 C 295.912 146.590,296.234 146.601,296.498 145.227 C 296.588 144.763,296.492 144.280,296.287 144.152 C 296.081 144.025,295.912 144.500,295.912 145.207 M131.605 194.375 C 131.605 194.718,131.989 194.909,132.609 194.873 C 133.512 194.821,133.544 194.766,132.931 194.317 C 132.043 193.667,131.605 193.686,131.605 194.375 M125.479 195.690 C 125.044 196.126,125.197 196.477,125.823 196.477 C 126.152 196.477,126.421 196.338,126.421 196.168 C 126.421 195.719,125.777 195.393,125.479 195.690 M120.633 197.017 C 120.308 197.543,120.756 198.205,121.436 198.205 C 122.333 198.205,122.438 197.603,121.628 197.097 C 121.151 196.799,120.786 196.770,120.633 197.017 M104.088 209.172 C 104.088 209.501,104.357 209.771,104.686 209.771 C 105.015 209.771,105.284 209.501,105.284 209.172 C 105.284 208.843,105.015 208.574,104.686 208.574 C 104.357 208.574,104.088 208.843,104.088 209.172 M99.557 215.553 C 99.683 215.882,99.927 216.152,100.100 216.152 C 100.272 216.152,100.516 215.882,100.643 215.553 C 100.798 215.148,100.623 214.955,100.100 214.955 C 99.577 214.955,99.401 215.148,99.557 215.553 M96.112 222.931 C 95.795 223.127,95.669 223.419,95.831 223.581 C 95.993 223.743,96.334 223.666,96.590 223.410 C 97.193 222.807,96.856 222.471,96.112 222.931 M91.801 235.723 C 91.880 235.959,92.115 236.152,92.323 236.152 C 92.531 236.152,92.766 235.959,92.845 235.723 C 92.923 235.487,92.689 235.294,92.323 235.294 C 91.957 235.294,91.723 235.487,91.801 235.723 M27.617 284.611 C 26.968 284.873,26.984 285.466,27.658 286.140 C 28.111 286.593,28.191 286.493,28.157 285.514 C 28.134 284.873,28.116 284.363,28.116 284.379 C 28.116 284.396,27.891 284.500,27.617 284.611 M29.523 286.724 C 29.019 287.043,29.033 287.133,29.620 287.358 C 29.996 287.503,30.188 287.809,30.046 288.040 C 29.903 288.270,29.974 288.343,30.202 288.202 C 30.664 287.916,31.636 288.870,31.263 289.242 C 31.134 289.371,31.404 289.379,31.865 289.258 C 32.967 288.970,32.934 288.423,31.805 288.263 C 31.228 288.181,30.862 287.815,30.780 287.238 C 30.640 286.257,30.411 286.163,29.523 286.724 M53.440 297.265 C 53.440 297.653,54.563 297.798,55.071 297.477 C 55.480 297.218,55.335 297.119,54.536 297.115 C 53.933 297.111,53.440 297.179,53.440 297.265 " stroke="none" fill="#377cae" fill-rule="evenodd"></path><path id="path3" d="M168.694 0.798 C 168.694 1.297,169.117 1.297,169.890 0.798 C 170.374 0.485,170.317 0.410,169.591 0.405 C 169.098 0.402,168.694 0.578,168.694 0.798 M162.313 1.595 C 162.313 1.815,162.582 1.994,162.911 1.994 C 163.240 1.994,163.509 1.815,163.509 1.595 C 163.509 1.376,163.240 1.196,162.911 1.196 C 162.582 1.196,162.313 1.376,162.313 1.595 M230.508 1.351 C 230.508 1.435,231.047 1.584,231.705 1.680 C 232.363 1.777,232.901 1.707,232.901 1.526 C 232.901 1.345,232.363 1.196,231.705 1.196 C 231.047 1.196,230.508 1.266,230.508 1.351 M241.161 3.589 C 241.370 4.389,242.871 4.739,242.871 3.988 C 242.871 3.769,242.602 3.589,242.273 3.589 C 241.944 3.589,241.675 3.410,241.675 3.190 C 241.675 2.971,241.512 2.792,241.314 2.792 C 241.115 2.792,241.046 3.151,241.161 3.589 M244.318 3.905 C 244.211 4.079,244.470 4.247,244.893 4.279 C 245.317 4.311,245.663 4.169,245.663 3.963 C 245.663 3.509,244.592 3.463,244.318 3.905 M251.339 5.982 C 251.858 6.813,252.841 7.074,252.841 6.381 C 252.841 6.162,252.572 5.982,252.243 5.982 C 251.914 5.982,251.645 5.803,251.645 5.583 C 251.645 5.364,251.464 5.184,251.243 5.184 C 251.004 5.184,251.044 5.509,251.339 5.982 M256.629 7.977 C 256.499 8.187,257.025 8.328,257.827 8.298 C 259.683 8.228,259.997 7.721,258.225 7.654 C 257.475 7.626,256.757 7.771,256.629 7.977 M261.615 9.561 C 263.036 10.788,264.008 11.106,264.008 10.345 C 264.008 10.113,264.180 10.029,264.389 10.159 C 264.599 10.288,264.670 10.658,264.546 10.980 C 264.423 11.302,264.520 11.565,264.763 11.565 C 265.006 11.565,265.204 11.386,265.204 11.167 C 265.204 10.947,265.518 10.754,265.902 10.736 C 266.443 10.712,266.466 10.660,266.002 10.508 C 265.673 10.399,265.045 10.145,264.606 9.944 C 264.167 9.742,263.001 9.302,262.014 8.966 L 260.219 8.356 261.615 9.561 M128.913 10.252 C 128.420 10.347,128.016 10.575,128.016 10.758 C 128.016 11.170,129.542 10.804,129.840 10.321 C 129.960 10.128,130.002 9.995,129.934 10.024 C 129.866 10.054,129.407 10.156,128.913 10.252 M266.401 11.814 C 266.401 12.343,266.509 12.371,266.999 11.964 C 267.328 11.691,267.620 11.579,267.647 11.716 C 267.674 11.852,267.742 12.144,267.797 12.363 C 267.851 12.582,267.919 12.873,267.946 13.010 C 267.974 13.146,268.274 13.027,268.614 12.745 C 269.137 12.311,269.268 12.366,269.459 13.095 C 269.647 13.817,269.954 13.949,271.333 13.904 C 272.245 13.874,272.581 13.772,272.084 13.677 C 271.590 13.582,271.186 13.322,271.186 13.100 C 271.186 12.877,270.978 12.765,270.724 12.850 C 270.469 12.934,269.815 12.590,269.270 12.085 C 268.107 11.007,266.401 10.846,266.401 11.814 M273.579 14.714 C 273.579 14.920,273.479 15.350,273.357 15.669 C 273.207 16.059,273.462 16.312,274.134 16.440 C 275.502 16.702,275.768 15.772,274.552 14.976 C 274.017 14.625,273.579 14.507,273.579 14.714 M276.140 16.849 C 276.180 17.994,277.069 18.694,278.134 18.420 C 278.852 18.235,278.893 18.292,278.442 18.842 C 277.998 19.384,278.027 19.457,278.642 19.340 C 279.038 19.265,279.497 19.190,279.661 19.173 C 280.317 19.106,279.900 18.449,278.863 17.917 C 278.260 17.607,277.476 17.038,277.122 16.653 C 276.276 15.734,276.102 15.769,276.140 16.849 M280.193 20.595 C 280.055 20.956,280.018 21.327,280.111 21.421 C 280.342 21.652,281.954 20.622,281.954 20.243 C 281.954 19.649,280.440 19.952,280.193 20.595 M281.188 21.387 C 281.140 22.079,282.229 22.856,282.540 22.352 C 282.683 22.122,282.534 21.934,282.210 21.934 C 281.887 21.934,281.531 21.710,281.421 21.436 C 281.294 21.122,281.208 21.104,281.188 21.387 M283.151 23.729 C 283.151 24.058,283.330 24.327,283.549 24.327 C 283.769 24.327,283.948 24.501,283.948 24.713 C 283.948 24.926,283.721 25.012,283.443 24.906 C 283.165 24.799,282.672 25.098,282.346 25.570 C 282.021 26.042,281.518 26.628,281.229 26.873 C 280.940 27.118,277.391 30.638,273.343 34.696 C 269.295 38.754,265.648 42.408,265.240 42.817 C 264.831 43.225,261.152 46.904,257.064 50.992 C 252.976 55.080,249.322 58.736,248.943 59.117 C 248.565 59.497,245.698 62.319,242.572 65.388 C 239.447 68.456,236.889 71.156,236.889 71.387 C 236.889 71.800,235.571 73.319,232.994 75.876 C 232.277 76.587,228.574 80.285,224.765 84.095 C 220.956 87.904,217.302 91.559,216.644 92.217 C 215.986 92.875,212.487 96.375,208.868 99.995 C 205.249 103.614,201.571 107.294,200.694 108.171 C 199.816 109.048,196.137 112.728,192.519 116.347 C 184.446 124.421,183.591 125.277,175.872 132.994 C 172.473 136.394,168.755 140.119,167.611 141.273 C 166.467 142.426,164.637 144.177,163.545 145.165 C 162.453 146.152,161.549 147.186,161.537 147.463 C 161.518 147.909,158.076 151.592,152.041 157.624 C 150.944 158.721,147.288 162.377,143.917 165.749 C 140.545 169.121,136.710 172.956,135.394 174.273 C 134.078 175.589,130.578 179.089,127.617 182.050 C 124.656 185.011,120.954 188.713,119.391 190.277 C 117.828 191.840,114.126 195.542,111.165 198.503 C 93.324 216.344,90.445 219.224,86.648 223.030 C 84.623 225.059,81.540 228.066,79.795 229.711 C 78.051 231.356,76.611 232.931,76.597 233.212 C 76.567 233.788,75.414 235.070,70.687 239.787 C 67.657 242.810,62.747 247.718,54.337 256.130 C 52.527 257.941,49.027 261.440,46.560 263.908 C 44.093 266.375,40.238 270.233,37.994 272.482 C 35.749 274.731,32.510 277.917,30.795 279.564 C 29.080 281.210,27.534 282.915,27.358 283.353 C 27.045 284.132,27.032 284.131,26.708 283.291 C 26.157 281.866,24.553 281.188,24.159 282.214 C 24.037 282.533,24.159 283.069,24.431 283.405 C 25.584 284.830,28.025 286.989,29.214 287.637 C 29.919 288.021,30.337 288.335,30.143 288.335 C 29.949 288.335,30.580 288.866,31.545 289.516 C 32.510 290.165,33.361 290.522,33.435 290.309 C 33.509 290.095,34.074 290.461,34.691 291.122 C 35.309 291.782,36.100 292.323,36.451 292.323 C 36.802 292.323,37.089 292.502,37.089 292.722 C 37.089 292.941,37.448 293.121,37.886 293.121 C 38.325 293.121,38.684 293.300,38.684 293.519 C 38.684 293.739,39.097 293.918,39.601 293.918 C 40.106 293.918,40.760 294.143,41.056 294.417 C 41.485 294.816,41.536 294.816,41.311 294.417 C 41.156 294.143,41.213 293.918,41.438 293.918 C 41.663 293.918,42.051 294.301,42.302 294.770 C 42.666 295.450,42.828 295.510,43.108 295.069 C 43.360 294.671,43.459 294.656,43.463 295.015 C 43.467 295.289,43.739 295.513,44.068 295.513 C 44.397 295.513,44.666 295.693,44.666 295.912 C 44.666 296.132,45.384 296.311,46.261 296.311 C 47.139 296.311,47.856 296.491,47.856 296.710 C 47.856 296.929,48.136 297.109,48.478 297.109 C 48.820 297.109,48.989 296.929,48.853 296.710 C 48.718 296.491,48.887 296.311,49.229 296.311 C 49.571 296.311,49.850 296.491,49.850 296.710 C 49.850 296.929,50.299 297.109,50.847 297.109 C 51.396 297.109,51.844 296.929,51.844 296.710 C 51.844 296.491,52.024 296.311,52.243 296.311 C 52.463 296.311,52.642 296.670,52.642 297.109 C 52.642 297.672,52.906 297.904,53.539 297.900 C 54.265 297.895,54.322 297.820,53.838 297.507 C 53.380 297.211,53.519 297.121,54.437 297.121 C 55.355 297.121,55.494 297.211,55.035 297.507 C 54.644 297.760,60.826 297.896,72.881 297.900 L 91.326 297.906 91.326 269.791 C 91.326 251.313,91.463 241.675,91.725 241.675 C 91.944 241.675,92.124 240.688,92.124 239.482 C 92.124 238.275,92.303 237.288,92.522 237.288 C 92.742 237.288,92.921 237.019,92.921 236.690 C 92.921 236.361,92.719 236.137,92.473 236.191 C 92.226 236.246,91.942 236.067,91.841 235.793 C 91.741 235.518,91.898 235.293,92.190 235.291 C 92.869 235.287,93.719 233.472,93.719 232.024 C 93.719 231.410,93.898 230.907,94.118 230.907 C 94.337 230.907,94.516 230.369,94.516 229.711 C 94.516 229.053,94.696 228.514,94.915 228.514 C 95.135 228.514,95.314 227.976,95.314 227.318 C 95.314 226.660,95.494 226.122,95.713 226.122 C 95.932 226.122,96.112 225.673,96.112 225.125 C 96.112 224.576,96.291 224.128,96.510 224.128 C 96.730 224.128,96.909 223.954,96.909 223.741 C 96.909 223.529,96.640 223.458,96.311 223.585 C 95.292 223.976,95.654 223.086,96.710 222.605 C 97.258 222.355,97.707 221.893,97.707 221.577 C 97.707 221.262,97.931 220.913,98.205 220.803 C 98.503 220.682,98.423 220.589,98.006 220.570 C 97.622 220.553,97.308 220.340,97.308 220.097 C 97.308 219.854,97.555 219.750,97.856 219.866 C 98.180 219.990,98.628 219.640,98.952 219.011 C 99.254 218.425,99.680 217.812,99.900 217.647 C 100.151 217.459,100.078 217.187,99.701 216.912 C 99.202 216.548,99.225 216.515,99.838 216.714 C 100.356 216.882,100.634 216.717,100.781 216.153 C 100.896 215.714,101.149 215.354,101.343 215.354 C 101.536 215.354,101.695 214.995,101.695 214.556 C 101.695 214.118,101.830 213.753,101.994 213.746 C 102.159 213.739,102.638 213.261,103.059 212.684 C 103.480 212.106,103.615 211.763,103.358 211.922 C 103.083 212.092,102.891 211.971,102.891 211.626 C 102.891 211.267,103.161 211.111,103.589 211.221 C 104.003 211.327,104.492 211.068,104.789 210.585 C 105.209 209.903,105.193 209.771,104.689 209.771 C 104.358 209.771,104.088 209.481,104.088 209.126 C 104.088 208.666,104.329 208.544,104.930 208.701 C 105.813 208.932,105.877 208.897,108.018 206.980 C 108.754 206.322,109.472 205.781,109.613 205.779 C 109.755 205.777,110.531 205.149,111.339 204.383 C 112.147 203.618,113.000 202.991,113.234 202.991 C 113.468 202.991,113.659 202.812,113.659 202.592 C 113.659 202.373,113.928 202.193,114.257 202.193 C 114.586 202.193,114.855 202.014,114.855 201.795 C 114.855 201.575,115.214 201.396,115.653 201.396 C 116.092 201.396,116.451 201.216,116.451 200.997 C 116.451 200.778,116.725 200.598,117.061 200.598 C 117.397 200.598,117.771 200.340,117.892 200.025 C 118.013 199.710,118.366 199.550,118.677 199.669 C 118.988 199.788,119.242 199.687,119.242 199.444 C 119.242 199.202,119.621 199.003,120.083 199.003 C 120.775 199.003,120.881 198.831,120.680 198.030 C 120.429 197.033,120.983 196.276,121.432 197.002 C 122.014 197.944,124.675 197.458,125.195 196.315 C 125.660 195.294,125.728 195.270,126.218 195.940 C 126.549 196.393,126.839 196.502,127.004 196.235 C 127.148 196.003,127.757 195.813,128.359 195.813 C 129.795 195.813,131.598 194.957,131.602 194.274 C 131.604 193.945,131.852 193.828,132.236 193.975 C 132.583 194.108,132.987 194.220,133.133 194.223 C 133.280 194.227,133.131 194.404,132.802 194.616 C 132.442 194.848,132.393 195.005,132.678 195.009 C 132.940 195.012,133.264 194.835,133.400 194.616 C 133.535 194.397,134.623 194.217,135.816 194.217 C 137.516 194.217,137.986 194.083,137.986 193.596 C 137.986 193.254,138.168 193.087,138.391 193.224 C 138.614 193.362,138.693 193.642,138.567 193.846 C 138.441 194.050,138.517 194.217,138.737 194.217 C 138.956 194.217,139.246 194.038,139.382 193.819 C 139.544 193.556,157.986 193.420,193.410 193.420 C 236.062 193.420,247.234 193.317,247.394 192.921 C 247.546 192.546,247.701 192.571,248.019 193.021 C 248.306 193.426,248.444 193.459,248.449 193.121 C 248.453 192.770,249.282 192.622,251.246 192.622 C 252.782 192.622,254.038 192.461,254.038 192.263 C 254.038 192.066,254.801 191.814,255.733 191.704 C 258.678 191.354,262.562 190.415,263.970 189.711 C 264.716 189.338,265.748 189.033,266.263 189.033 C 266.777 189.033,267.198 188.853,267.198 188.634 C 267.198 188.415,267.557 188.235,267.996 188.235 C 268.435 188.235,268.794 188.056,268.794 187.836 C 268.794 187.617,269.153 187.438,269.591 187.438 C 270.030 187.438,270.389 187.258,270.389 187.039 C 270.389 186.820,270.748 186.640,271.186 186.640 C 271.625 186.640,271.984 186.461,271.984 186.241 C 271.984 186.022,272.277 185.842,272.635 185.842 C 272.993 185.842,273.577 185.528,273.931 185.145 C 274.286 184.761,274.845 184.388,275.174 184.317 C 275.503 184.246,275.833 184.021,275.906 183.819 C 275.979 183.616,276.266 183.450,276.544 183.450 C 276.823 183.450,277.614 182.911,278.302 182.253 C 278.991 181.595,279.658 181.057,279.786 181.057 C 280.287 181.057,281.157 179.878,281.163 179.191 C 281.166 178.734,281.277 178.633,281.462 178.919 C 281.674 179.248,281.896 179.221,282.269 178.819 C 282.589 178.475,282.620 178.265,282.353 178.265 C 282.085 178.265,282.117 178.056,282.437 177.711 C 282.809 177.310,283.032 177.282,283.244 177.611 C 283.413 177.873,283.542 177.643,283.549 177.069 C 283.559 176.278,283.641 176.195,283.948 176.670 C 284.261 177.154,284.336 177.096,284.341 176.371 C 284.345 175.824,284.591 175.474,284.974 175.474 C 285.588 175.474,286.740 174.571,286.740 174.090 C 286.740 173.955,287.099 173.460,287.537 172.989 C 287.976 172.518,288.335 171.897,288.335 171.610 C 288.335 171.322,288.514 171.087,288.734 171.087 C 288.953 171.087,289.133 170.818,289.133 170.489 C 289.133 170.160,289.279 169.890,289.457 169.890 C 289.635 169.890,290.028 169.262,290.329 168.495 C 290.630 167.727,291.023 167.099,291.201 167.099 C 291.379 167.099,291.525 166.740,291.525 166.301 C 291.525 165.862,291.705 165.503,291.924 165.503 C 292.144 165.503,292.326 164.920,292.329 164.207 C 292.334 163.224,292.428 163.056,292.722 163.509 C 293.015 163.963,293.110 163.795,293.115 162.812 C 293.118 162.099,293.300 161.515,293.519 161.515 C 293.739 161.515,293.918 161.064,293.918 160.513 C 293.918 159.962,294.074 159.199,294.264 158.818 C 295.177 156.986,295.571 154.982,295.792 151.047 C 295.924 148.689,296.184 146.760,296.371 146.760 C 296.557 146.760,296.707 146.446,296.704 146.062 C 296.699 145.465,296.641 145.451,296.311 145.962 C 296.018 146.415,295.923 146.239,295.918 145.241 C 295.915 144.461,296.076 144.022,296.311 144.167 C 296.530 144.303,296.710 144.055,296.710 143.616 C 296.710 143.178,296.530 142.708,296.311 142.572 C 296.092 142.437,295.912 142.146,295.912 141.927 C 295.912 141.708,296.092 141.639,296.311 141.775 C 296.576 141.938,296.710 125.952,296.710 94.118 C 296.710 62.284,296.576 46.297,296.311 46.461 C 296.092 46.596,295.912 46.417,295.912 46.062 C 295.912 45.707,296.092 45.527,296.311 45.663 C 296.530 45.799,296.710 45.719,296.710 45.487 C 296.710 45.255,296.530 45.065,296.311 45.065 C 296.092 45.065,295.912 44.526,295.912 43.868 C 295.912 43.210,295.733 42.672,295.513 42.672 C 295.294 42.672,295.115 42.482,295.115 42.250 C 295.115 42.017,295.269 41.923,295.458 42.039 C 295.964 42.352,294.891 37.547,294.352 37.089 C 294.223 36.979,293.824 36.082,293.466 35.095 C 293.107 34.108,292.620 33.343,292.384 33.395 C 292.147 33.447,292.055 33.223,292.181 32.897 C 292.306 32.570,292.210 32.303,291.967 32.303 C 291.724 32.303,291.525 31.955,291.525 31.530 C 291.525 30.956,291.275 30.776,290.550 30.832 C 290.014 30.873,289.610 30.728,289.653 30.508 C 289.696 30.289,289.955 30.135,290.229 30.165 C 291.001 30.251,290.827 29.821,289.530 28.436 C 288.873 27.735,288.335 27.050,288.335 26.912 C 288.335 26.775,288.042 26.370,287.684 26.012 C 287.082 25.410,287.053 25.424,287.297 26.193 C 287.480 26.769,287.359 27.102,286.903 27.277 C 286.396 27.471,286.292 27.349,286.451 26.740 C 286.593 26.199,286.419 25.874,285.901 25.710 C 285.140 25.468,284.993 25.113,285.124 23.829 C 285.175 23.327,284.907 23.131,284.173 23.131 C 283.530 23.131,283.151 23.353,283.151 23.729 M109.075 24.723 C 108.677 25.163,108.481 25.523,108.641 25.523 C 109.061 25.523,110.198 24.322,109.982 24.106 C 109.881 24.006,109.473 24.283,109.075 24.723 M107.566 26.724 C 106.733 27.697,106.698 27.961,107.438 27.677 C 107.746 27.559,108.088 27.116,108.199 26.692 C 108.449 25.734,108.413 25.736,107.566 26.724 M289.729 29.110 C 289.870 29.338,289.555 29.471,288.984 29.424 C 288.439 29.379,288.081 29.201,288.188 29.028 C 288.462 28.585,289.437 28.637,289.729 29.110 M132.403 37.288 C 131.659 38.056,131.188 38.684,131.356 38.684 C 131.666 38.684,131.987 38.378,133.362 36.777 C 134.548 35.396,133.905 35.738,132.403 37.288 M128.294 46.817 C 128.131 47.232,128.091 47.666,128.206 47.781 C 128.570 48.144,128.890 47.548,128.737 46.791 C 128.598 46.097,128.576 46.098,128.294 46.817 M128.016 49.229 C 128.016 49.545,128.195 49.914,128.415 50.050 C 128.634 50.185,128.814 49.927,128.814 49.475 C 128.814 49.024,128.634 48.654,128.415 48.654 C 128.195 48.654,128.016 48.913,128.016 49.229 M130.900 57.428 C 131.368 58.176,132.004 58.505,132.004 57.997 C 132.004 57.700,130.932 56.630,130.633 56.630 C 130.506 56.630,130.626 56.989,130.900 57.428 M156.194 59.867 C 155.352 60.719,154.813 61.415,154.998 61.414 C 155.475 61.411,157.926 59.059,157.926 58.604 C 157.926 58.106,157.963 58.080,156.194 59.867 M134.972 61.628 C 135.983 62.393,136.618 62.384,135.850 61.615 C 135.521 61.286,135.014 61.023,134.724 61.030 C 134.394 61.038,134.486 61.260,134.972 61.628 M142.373 64.606 C 143.146 65.106,143.569 65.106,143.569 64.606 C 143.569 64.387,143.166 64.210,142.672 64.213 C 141.946 64.218,141.889 64.294,142.373 64.606 M102.521 85.763 C 102.560 88.545,102.736 89.714,103.193 90.229 C 103.777 90.887,106.600 90.927,151.807 90.927 L 199.801 90.927 199.801 96.710 L 199.801 102.493 180.977 102.493 C 168.302 102.493,162.285 102.624,162.556 102.895 C 162.819 103.158,169.402 103.262,181.480 103.194 L 200.000 103.091 200.114 97.308 C 200.177 94.128,200.140 91.167,200.032 90.728 C 199.837 89.935,199.563 89.931,151.954 90.073 C 116.713 90.177,103.929 90.096,103.529 89.764 C 103.156 89.454,102.967 88.228,102.926 85.854 C 102.894 83.952,102.777 82.305,102.667 82.195 C 102.557 82.085,102.491 83.691,102.521 85.763 M34.155 110.269 C 33.826 110.598,33.274 110.867,32.930 110.867 C 32.585 110.867,32.303 111.047,32.303 111.266 C 32.303 111.486,32.417 111.665,32.555 111.665 C 32.894 111.665,35.494 110.049,35.494 109.838 C 35.494 109.460,34.713 109.711,34.155 110.269 M31.505 111.966 C 31.505 112.132,30.957 112.511,30.286 112.808 C 29.616 113.104,29.150 113.431,29.252 113.533 C 29.536 113.816,31.904 112.495,31.904 112.054 C 31.904 111.840,31.815 111.665,31.705 111.665 C 31.595 111.665,31.505 111.801,31.505 111.966 M20.863 121.420 C 20.384 121.932,20.091 122.451,20.213 122.573 C 20.436 122.795,20.877 122.416,21.883 121.135 C 22.690 120.108,21.877 120.335,20.863 121.420 M10.247 138.190 C 9.883 138.955,9.666 139.581,9.767 139.581 C 10.040 139.581,11.250 137.139,11.068 136.957 C 10.981 136.870,10.612 137.426,10.247 138.190 M100.643 215.553 C 100.516 215.882,100.272 216.152,100.100 216.152 C 99.927 216.152,99.683 215.882,99.557 215.553 C 99.401 215.148,99.577 214.955,100.100 214.955 C 100.623 214.955,100.798 215.148,100.643 215.553 M1.196 228.690 C 1.196 229.226,1.350 229.759,1.537 229.875 C 1.725 229.990,1.859 229.553,1.836 228.902 C 1.786 227.487,1.196 227.292,1.196 228.690 M7.577 255.606 C 7.577 255.814,7.757 256.096,7.976 256.231 C 8.195 256.367,8.375 256.816,8.375 257.228 C 8.375 257.641,8.554 258.090,8.774 258.225 C 9.004 258.367,9.172 257.996,9.172 257.348 C 9.172 256.656,8.866 256.032,8.375 255.726 C 7.936 255.452,7.577 255.398,7.577 255.606 M9.253 259.365 C 9.672 259.683,9.850 260.195,9.717 260.703 C 9.599 261.155,9.697 261.646,9.935 261.793 C 10.174 261.940,10.369 262.409,10.369 262.835 C 10.369 263.261,10.535 263.609,10.738 263.609 C 10.942 263.609,11.174 263.923,11.255 264.307 C 11.335 264.691,11.428 264.063,11.461 262.911 C 11.493 261.760,11.351 260.818,11.144 260.818 C 10.937 260.818,10.768 260.625,10.768 260.390 C 10.768 259.789,9.730 258.821,9.101 258.836 C 8.739 258.845,8.786 259.010,9.253 259.365 M11.964 266.155 C 11.964 266.463,12.230 266.816,12.556 266.941 C 12.892 267.070,13.046 267.433,12.912 267.782 C 12.622 268.537,13.036 268.576,13.751 267.861 C 14.361 267.252,14.140 266.813,12.861 266.098 C 12.119 265.683,11.964 265.693,11.964 266.155 M13.788 269.498 C 14.023 269.659,14.336 270.116,14.483 270.514 C 14.630 270.912,14.914 271.136,15.115 271.012 C 15.315 270.888,15.385 271.146,15.270 271.585 C 15.153 272.031,15.258 272.383,15.507 272.383 C 15.752 272.383,15.952 272.671,15.952 273.024 C 15.952 273.444,16.169 273.581,16.583 273.423 C 16.930 273.289,17.410 273.180,17.649 273.180 C 17.889 273.180,17.728 272.777,17.292 272.283 C 16.855 271.790,16.192 270.892,15.817 270.289 C 15.401 269.620,14.790 269.195,14.248 269.199 C 13.746 269.202,13.546 269.332,13.788 269.498 M17.547 275.591 C 17.547 275.820,17.861 275.954,18.245 275.890 C 18.711 275.812,18.986 276.071,19.071 276.671 C 19.185 277.477,19.261 277.506,19.808 276.959 C 20.295 276.472,20.320 276.230,19.931 275.762 C 19.375 275.092,17.547 274.961,17.547 275.591 M19.940 277.979 C 19.940 279.248,22.624 281.742,23.345 281.144 C 24.057 280.553,23.727 279.909,22.878 280.235 C 22.109 280.530,21.435 279.565,21.964 278.927 C 22.227 278.611,22.036 278.262,21.357 277.817 C 20.084 276.983,19.940 277.000,19.940 277.979 M28.157 285.514 C 28.191 286.493,28.111 286.593,27.658 286.140 C 26.984 285.466,26.968 284.873,27.617 284.611 C 27.891 284.500,28.116 284.396,28.116 284.379 C 28.116 284.363,28.134 284.873,28.157 285.514 M30.780 287.238 C 30.862 287.815,31.228 288.181,31.805 288.263 C 32.690 288.389,33.098 289.133,32.282 289.133 C 31.438 289.133,29.126 286.978,29.628 286.659 C 30.405 286.166,30.645 286.286,30.780 287.238 " stroke="none" fill="#346b94" fill-rule="evenodd"></path></g></svg>